<?xml version="1.0" standalone="no"?>
<!DOCTYPE svg PUBLIC "-//W3C//DTD SVG 1.1//EN" "http://www.w3.org/Graphics/SVG/1.1/DTD/svg11.dtd" >
<svg xmlns="http://www.w3.org/2000/svg" xmlns:xlink="http://www.w3.org/1999/xlink" version="1.1">
<metadata></metadata>
<defs>
<font id="PTSerif" horiz-adv-x="1157" >
<font-face units-per-em="2048" ascent="1593" descent="-455" />
<missing-glyph horiz-adv-x="552" />
<glyph unicode="fi" horiz-adv-x="1351" d="M47 895v80q72 45 156 67v72q0 127 47 210t121.5 131t168 66.5t187.5 18.5q53 0 119.5 -7t130 -19.5t117 -28t82.5 -31.5q-6 -68 -24.5 -122t-39.5 -95h-172l-152 195q-53 0 -105 -11.5t-93 -44.5t-66.5 -93t-25.5 -157v-102h196q35 0 88.5 3t111.5 6t112.5 7t89.5 9h69 v-920q41 -10 74 -21.5t61 -27.5v-80h-555v80q25 14 58 27.5t67 21.5v766h-372v-766q41 -4 80.5 -18.5t74.5 -30.5v-80h-585v80q63 37 135 49v766h-156z" />
<glyph unicode="fl" horiz-adv-x="1361" d="M47 895v80q72 45 156 67v72q0 127 31.5 210t87 131t130 66.5t158.5 18.5q86 0 155 -21.5t101 -33.5q43 16 106.5 33.5t123.5 21.5h69v-1411q35 -8 73 -20.5t73 -28.5v-80h-555v80q25 16 55.5 28.5t58.5 20.5v1241q-43 16 -81.5 28.5t-77.5 12.5q-53 0 -92 -14.5t-67 -48 t-41 -92t-13 -144.5v-88h217v-129h-217v-766q45 -6 88 -19.5t78 -29.5v-80h-596v80q63 37 135 49v766h-156z" />
<glyph unicode="&#xd;" horiz-adv-x="552" />
<glyph unicode=" "  horiz-adv-x="552" />
<glyph unicode="&#x09;" horiz-adv-x="552" />
<glyph unicode="&#xa0;" horiz-adv-x="552" />
<glyph unicode="!" horiz-adv-x="704" d="M225 145q0 74 48.5 119t125.5 45q78 0 127 -45t49 -119t-49 -117.5t-127 -43.5t-126 43.5t-48 117.5zM250 844v569q20 12 61 17.5t86 5.5t85 -5.5t63 -17.5v-569l-103 -398h-90z" />
<glyph unicode="&#x22;" horiz-adv-x="851" d="M133 1372q10 27 48 44.5t85 17.5q43 0 83 -15.5t50 -46.5l-94 -377h-78zM452 1372q10 27 48 44.5t85 17.5q43 0 83 -15.5t50 -46.5l-94 -377h-78z" />
<glyph unicode="#" d="M78 451l39 131h157l64 270h-158l39 131h152l80 332h143l-78 -332h254l80 332h143l-80 -332h162l-45 -131h-149l-64 -270h156l-45 -131h-142l-77 -332h-144l78 332h-254l-78 -332h-145l78 332h-166zM420 582h254l63 270h-254z" />
<glyph unicode="$" d="M104 1079q0 84 30 150.5t83 114t127 76t160 34.5v102h143v-100q98 -4 177 -22.5t151 -49.5q0 -31 -5 -64.5t-13.5 -65t-18.5 -58.5t-18 -41h-84l-105 158q-16 4 -35.5 7t-48.5 3v-492l78 -32q61 -29 122.5 -65t110 -85t78 -114.5t29.5 -155.5q0 -162 -106.5 -266.5 t-311.5 -130.5v-125h-143v118q-61 0 -123 9.5t-115 24t-94 31.5t-61 36q4 80 21.5 158.5t33.5 123.5h86l104 -198q20 -16 54 -31.5t94 -19.5v518q-4 2 -9.5 3t-9.5 5l-47 20q-63 27 -122.5 65t-106.5 88t-76 117.5t-29 153.5zM358 1118q0 -86 47.5 -138t118.5 -91v430 q-78 -10 -122 -62.5t-44 -138.5zM627 119q82 23 127 78t45 143t-49.5 140t-122.5 91v-452z" />
<glyph unicode="%" horiz-adv-x="1736" d="M86 1110q0 80 28.5 143.5t81 109.5t124 70.5t159.5 24.5t160.5 -21.5t124 -64.5t80 -108.5t28.5 -153.5q0 -80 -28.5 -144.5t-80 -109.5t-124 -69.5t-160.5 -24.5t-159.5 21.5t-124 64.5t-81 108.5t-28.5 153.5zM219 61l1196 1403l99 -86l-1198 -1405zM332 1110 q0 -244 147 -244q72 0 109.5 54.5t37.5 189.5t-37.5 189.5t-109.5 54.5q-76 0 -111.5 -54.5t-35.5 -189.5zM864 326q0 80 28.5 143.5t81 109.5t124 70.5t159.5 24.5t160.5 -21.5t124 -64.5t80 -108.5t28.5 -153.5q0 -80 -28.5 -144.5t-80 -109.5t-124 -69.5t-160.5 -24.5 t-159.5 21.5t-124 64.5t-81 108.5t-28.5 153.5zM1110 326q0 -244 147 -244q72 0 109.5 54.5t37.5 189.5t-37.5 189.5t-109.5 54.5q-76 0 -111.5 -54.5t-35.5 -189.5z" />
<glyph unicode="&#x26;" horiz-adv-x="1835" d="M215 401q0 94 36 173t87 140.5t109.5 105.5t101.5 69q-51 55 -88 133t-37 154q0 51 21.5 102t65.5 91t108.5 64.5t150.5 24.5q147 0 239.5 -65.5t92.5 -188.5q0 -59 -20.5 -112.5t-54.5 -100.5t-78 -89t-93 -77q141 -195 387 -413q16 23 36.5 76t35 120.5t18.5 143 t-12 143.5q-33 6 -57.5 18.5t-51.5 30.5v80h467v-80q-55 -35 -135 -49q-10 -88 -30.5 -174t-48 -162t-58.5 -135t-61 -92q72 -63 145.5 -112.5t144.5 -90.5l105 -49v-80h-357q-41 25 -96 58.5t-108 86.5q-63 -66 -178 -118t-263 -52q-137 0 -236.5 38t-163 98.5t-94 136.5 t-30.5 153zM522 475q0 -76 24.5 -139.5t68.5 -109.5t103.5 -71.5t129.5 -25.5q61 0 125.5 26t109.5 83q-66 55 -133 126.5t-127.5 145.5t-109.5 143.5t-78 118.5q-59 -74 -86 -140.5t-27 -156.5zM664 1192q0 -31 12 -68t31.5 -73.5t43 -71.5t46.5 -61q70 53 102.5 128.5 t28.5 161.5q-4 57 -36 97.5t-97 40.5q-68 0 -99.5 -47.5t-31.5 -106.5z" />
<glyph unicode="'" horiz-adv-x="491" d="M133 1372q10 27 48 44.5t85 17.5q43 0 83 -15.5t50 -46.5l-94 -377h-78z" />
<glyph unicode="(" horiz-adv-x="768" d="M102 498q0 178 48.5 320.5t128 256t183 202.5t214.5 161l61 -64q-82 -88 -146.5 -177t-109.5 -193.5t-68.5 -227.5t-23.5 -278q0 -150 25.5 -275t71.5 -230.5t111 -193.5t140 -161l-67 -68q-98 59 -199.5 138t-183.5 189.5t-133.5 257t-51.5 343.5z" />
<glyph unicode=")" horiz-adv-x="768" d="M31 -362q76 74 139 165t109.5 200.5t72 237.5t25.5 277q0 156 -23.5 278t-67.5 222t-108.5 186t-146.5 170l61 64q117 -68 220.5 -156t182 -200.5t125 -252t46.5 -311.5q0 -174 -42 -318.5t-117 -261t-179.5 -207.5t-229.5 -161z" />
<glyph unicode="*" horiz-adv-x="948" d="M114 1273q7 34 25.5 67.5t45 59t51.5 27.5l186 -217q0 -31 -27 -45l-276 58q-12 16 -5 50zM116.5 1032q-10.5 35 0.5 53l276 54q29 -16 29 -43l-180 -217q-23 0 -48.5 25.5t-46 59t-31 68.5zM362 805l89 268q29 16 55 0l90 -264q-8 -16 -42 -25.5t-73 -10.5t-73.5 7 t-45.5 25zM362 1497q8 18 41 28.5t72 10.5t73 -9t44 -30l-88 -268q-27 -16 -53 0zM535 1208l186 217q25 2 48.5 -19.5t39.5 -53t23.5 -67.5t1.5 -60l-275 -62q-25 18 -24 45zM537 1092q0 27 24 43l268 -50q12 -23 5 -57.5t-24 -67t-43 -56t-50 -23.5z" />
<glyph unicode="+" d="M117 623v163h379v402h163v-402h379v-163h-379v-414h-163v414h-379z" />
<glyph unicode="," horiz-adv-x="626" d="M109 -268q41 12 73.5 36.5t56 55.5t36 65.5t10.5 67.5q-29 37 -69 59.5t-85 36.5q-10 43 -3 86t27.5 80t48 62.5t58.5 31.5q43 -2 84 -19.5t74 -49t52.5 -80.5t19.5 -115q0 -63 -26 -128.5t-70 -122t-105.5 -98.5t-134.5 -58z" />
<glyph unicode="-" horiz-adv-x="847" d="M135 485v185h578v-185h-578z" />
<glyph unicode="." horiz-adv-x="606" d="M129 145q0 74 47 119t125 45t127 -45t49 -119t-49 -117.5t-127 -43.5t-125 43.5t-47 117.5z" />
<glyph unicode="/" horiz-adv-x="704" d="M-94 -219l745 1685l123 -51l-747 -1687z" />
<glyph unicode="0" d="M47 717q0 184 40 322.5t110.5 231.5t168 140t212.5 47q246 0 389 -185.5t143 -555.5q0 -184 -40 -322.5t-112.5 -231.5t-173 -140.5t-219.5 -47.5q-125 0 -221 50.5t-162.5 145.5t-100.5 232.5t-34 313.5zM354 717q0 -147 9.5 -264t34 -198t64.5 -124t101 -43 q72 0 118 35t73.5 110.5t38 194.5t10.5 289q0 147 -8.5 264t-32 198t-67.5 124t-117 43q-66 0 -109 -35t-68.5 -111t-36 -195.5t-10.5 -287.5z" />
<glyph unicode="1" d="M207 1266q109 29 236.5 78t236.5 114h70v-1300q51 -12 102 -29.5t102 -40.5v-88h-708v88q51 23 103 40t106 30v940l8 121q-57 -18 -118.5 -24.5t-127.5 -4.5z" />
<glyph unicode="2" d="M88 0v131q53 47 120.5 109.5t137.5 137.5t137.5 159t120.5 171t85 177t32 176q0 113 -60.5 183.5t-171.5 70.5q-35 0 -62.5 -4t-61.5 -15l-76 -317h-70q-12 31 -27.5 72t-32 86t-30.5 89t-23 81q72 61 183.5 106t271.5 45q113 0 195 -28.5t136 -80t79.5 -119t25.5 -145.5 q0 -125 -57 -236.5t-141 -208.5t-180.5 -180t-174.5 -151l-106 -71v-9l125 13h352l100 229h70q6 -49 13.5 -114.5t13.5 -132t10 -127t4 -97.5h-938z" />
<glyph unicode="3" d="M113 98l75 213h60q12 -14 33.5 -37.5t45 -50t46 -53.5t39.5 -45q20 -4 45.5 -10t68.5 -6q47 0 92.5 21.5t81 60t57 92t21.5 114.5q0 70 -23.5 120t-61.5 83t-87 48.5t-98 15.5h-119v81l307 402l70 72v8l-111 -13h-309l-80 -208h-69q-10 43 -21.5 102t-21 118.5t-14.5 115 t-5 92.5h893v-101l-354 -432l-88 -90v-4l69 14q96 -4 173 -35.5t129.5 -86t80 -126t27.5 -157.5q0 -102 -44 -184t-118 -139.5t-172 -87.5t-207 -30q-61 0 -122.5 9.5t-116 26t-98.5 39t-74 48.5z" />
<glyph unicode="4" d="M0 369v92l784 997h111v-956h252v-133h-252v-232q80 -16 156 -49v-88h-633v88q100 35 188 49v232h-606zM164 487l145 15h297v436l21 143h-6l-78 -143l-297 -383z" />
<glyph unicode="5" d="M82 98l86 203h59q14 -14 33 -36.5t39 -47t38.5 -49.5t33.5 -43q20 -8 37.5 -12t46.5 -4q61 0 114.5 21.5t91 60t60 93t22.5 119.5q0 72 -27.5 126.5t-74.5 89t-110.5 52t-133.5 17.5l-178 -2l82 748h535l96 112h69q0 -31 -2 -80t-8 -100t-14 -97t-16 -71h-562l-37 -293 h170q111 0 201 -29.5t153.5 -86t98.5 -137.5t35 -185q0 -117 -44 -208t-120 -153.5t-178.5 -96.5t-220.5 -34q-119 0 -217.5 38t-157.5 85z" />
<glyph unicode="6" d="M78 512q0 193 67.5 352.5t182 282.5t267.5 205t325 118l30 -88q-111 -35 -205 -94t-166.5 -144t-118.5 -192.5t-59 -236.5q16 27 42 52.5t63 47t85 34.5t109 13q84 0 157 -26.5t126 -80t84 -132.5t31 -183q0 -106 -40 -192t-107.5 -146.5t-159 -93.5t-193.5 -33 q-127 0 -224.5 40t-163 112t-99 170t-33.5 215zM385 461q0 -70 12.5 -134.5t39 -114.5t68.5 -81t101 -31q51 0 86 26t56.5 69t32 100.5t10.5 120.5q0 303 -203 303q-70 0 -119 -36t-72 -83q-6 -29 -9 -66.5t-3 -72.5z" />
<glyph unicode="7" d="M109 1434h958v-97q-111 -172 -186.5 -323.5t-127 -307t-85 -325.5t-58.5 -381h-291q74 297 191 565.5t276 540.5l76 98l-102 -10h-441l-79 -209h-70q-10 43 -20.5 105.5t-19.5 126t-15 122t-6 95.5z" />
<glyph unicode="8" d="M72 322q0 143 92 240t242 145q-123 70 -199 165t-76 220q0 80 32 146.5t91 115.5t144 76.5t192 27.5q98 0 179 -24.5t138.5 -67.5t88 -104.5t30.5 -135.5q0 -123 -82 -213t-207 -129q88 -47 152.5 -94t107.5 -98t64.5 -108.5t21.5 -125.5q0 -80 -33.5 -149.5t-98 -121.5 t-160 -82t-220.5 -30q-115 0 -208 27t-157.5 73t-99 109.5t-34.5 137.5zM358 373q0 -49 12.5 -98.5t40 -87t70.5 -62.5t107 -25q51 0 89 16.5t63.5 44t39 63.5t13.5 75q0 70 -26 119t-68 89t-98 73.5t-118 70.5q-72 -55 -98.5 -131t-26.5 -147zM410 1135q0 -98 68.5 -173 t176.5 -131q57 53 81 118t24 149q0 119 -48 177t-126 58q-92 0 -134 -57t-42 -141z" />
<glyph unicode="9" d="M78 987q0 104 37 190.5t103.5 149t158.5 97t205 34.5q119 0 213 -40t159.5 -111.5t99 -175t33.5 -228.5q0 -190 -57 -351t-161.5 -283t-251 -198.5t-322.5 -95.5l-47 88q236 61 362.5 221t159.5 394q-39 -51 -102.5 -84t-163.5 -33q-88 0 -165 26.5t-135.5 81t-92 134.5 t-33.5 184zM385 999q0 -59 13.5 -112t40 -94t65.5 -64.5t92 -23.5q61 0 108.5 23.5t71.5 64.5q4 27 6 65.5t2 75.5q0 80 -11 152.5t-35.5 127t-63.5 87t-96 32.5q-102 0 -147.5 -83t-45.5 -251z" />
<glyph unicode=":" horiz-adv-x="702" d="M225 145q0 74 47 119t125 45t127 -45t49 -119t-49 -117.5t-127 -43.5t-125 43.5t-47 117.5zM225 878q0 74 47 119t125 45t127 -45t49 -119t-49 -117.5t-127 -43.5t-125 43.5t-47 117.5z" />
<glyph unicode=";" horiz-adv-x="712" d="M209 -268q41 12 73.5 36.5t56 55.5t36 65.5t10.5 67.5q-29 37 -69 59.5t-85 36.5q-10 43 -3 86t27.5 80t48 62.5t58.5 31.5q43 -2 84 -19.5t74 -49t52.5 -80.5t19.5 -115q0 -63 -26 -128.5t-70 -122t-105.5 -98.5t-134.5 -58zM229 878q0 74 47 119t125 45t127 -45 t49 -119t-49 -117.5t-127 -43.5t-125 43.5t-47 117.5z" />
<glyph unicode="&#x3c;" d="M133 664v63l789 481l73 -133l-436 -262l-168 -70l166 -63l477 -281l-114 -188z" />
<glyph unicode="=" d="M117 449v163h921v-163h-921zM117 797v164h921v-164h-921z" />
<glyph unicode="&#x3e;" d="M150 1018l114 190l787 -452v-64l-789 -481l-74 133l437 262l168 70l-166 63z" />
<glyph unicode="?" horiz-adv-x="995" d="M115 1354q78 47 177 75.5t253 28.5q92 0 164.5 -25.5t125 -69.5t80 -105.5t27.5 -133.5q0 -92 -35 -157.5t-86 -115.5t-111.5 -92t-112.5 -90t-87 -107.5t-35 -145.5h-67q-29 94 -22 162.5t33.5 124t65.5 100.5t75 92t61.5 100.5t25.5 122.5q0 39 -9 77t-30.5 66.5 t-55.5 46t-83 17.5q-43 0 -76 -8t-49 -21l-68 -270h-69q-12 27 -26.5 67t-28 84t-23.5 90t-14 87zM291 145q0 74 47 119t125 45t127 -45t49 -119t-49 -117.5t-127 -43.5t-125 43.5t-47 117.5z" />
<glyph unicode="@" horiz-adv-x="2179" d="M166 483q0 223 76.5 403.5t209 307.5t308.5 195.5t377 68.5q195 0 357.5 -54t279 -155.5t182 -248t65.5 -332.5q0 -143 -52 -261t-136 -203t-190.5 -131t-215.5 -46q-61 0 -106 15t-73.5 52t-38 96.5t2.5 147.5h-8q-18 -55 -54 -111.5t-82 -100.5t-101.5 -71.5 t-112.5 -27.5q-139 0 -210 90t-71 229q0 121 40 240t111 212t169 151.5t215 58.5q72 0 120 -13.5t97 -42.5q49 23 117.5 33t138.5 8l-100 -569q-25 -131 -22 -195.5t61 -64.5q47 0 107.5 30.5t113.5 93t90 158t37 222.5q0 156 -56.5 278.5t-156 206.5t-235.5 128t-294 44 q-178 0 -326.5 -62.5t-255 -173t-166 -263t-59.5 -330.5q0 -182 60.5 -318.5t167 -228.5t253 -138.5t318.5 -46.5q59 0 135 14.5t138 43.5l32 -117q-72 -41 -157.5 -57.5t-190.5 -16.5q-182 0 -347 53.5t-290 160t-198.5 266t-73.5 372.5zM854 340q0 -70 24.5 -110t84.5 -40 q35 0 70.5 29t69.5 75t65.5 104.5t58.5 115.5l57 336q-23 16 -47.5 24.5t-58.5 8.5q-70 0 -129.5 -53.5t-102.5 -135.5t-67.5 -177t-24.5 -177z" />
<glyph unicode="A" horiz-adv-x="1492" d="M0 0v78q33 20 71 35.5t74 23.5l529 1321h151l514 -1321q41 -8 82 -23.5t72 -35.5v-78h-641v78q39 18 84 34.5t86 24.5l-119 326h-454l-121 -326q94 -12 178 -59v-78h-506zM498 596h362l-133 391l-39 176h-4l-45 -180z" />
<glyph unicode="B" horiz-adv-x="1329" d="M41 0v78q39 23 83 39t85 20v1159q-41 8 -86 23.5t-82 36.5v78h330q78 0 147.5 6t159.5 6q98 0 190.5 -14.5t164 -51.5t114.5 -103.5t43 -170.5q0 -66 -23.5 -122t-65.5 -99t-98.5 -72t-121.5 -41v-8q66 -8 132 -30.5t119.5 -65.5t87 -107.5t33.5 -152.5q0 -111 -49 -191 t-132 -131t-189.5 -74.5t-220.5 -23.5q-43 0 -94.5 2t-102.5 4t-99.5 4t-80.5 2h-244zM504 135q29 -6 60.5 -10t94.5 -4q129 0 203 76.5t74 203.5q0 78 -24.5 128.5t-67.5 80t-102.5 41t-129.5 11.5h-108v-527zM504 795h65q35 0 70 3t66 7q80 33 129 101.5t49 156.5 q0 129 -67.5 189.5t-174.5 60.5q-45 0 -78 -2t-59 -6v-510z" />
<glyph unicode="C" horiz-adv-x="1335" d="M80 719q0 195 58.5 335t156.5 230t228 132t274 42q135 0 244.5 -19.5t179.5 -52.5q0 -33 -3.5 -84t-10.5 -107t-16 -110.5t-17 -91.5h-87l-112 310q-18 10 -59.5 16t-84.5 6q-84 0 -157.5 -34t-131 -107.5t-90 -189t-32.5 -277.5q0 -293 116.5 -450.5t317.5 -157.5 q57 0 97 9t55 25l100 287h84q8 -33 15 -79t12.5 -98t7.5 -103.5t2 -92.5q-72 -45 -179.5 -63.5t-220.5 -18.5q-170 0 -308 42t-235.5 133.5t-150.5 231.5t-53 337z" />
<glyph unicode="D" horiz-adv-x="1507" d="M41 0v78q35 20 78 36t90 23v1159q-47 10 -91 25.5t-77 34.5v78h238q35 0 86 2t106 5t107.5 6t89.5 3q178 0 318 -47t237.5 -137t149.5 -223.5t52 -307.5q0 -170 -49 -309t-147.5 -237.5t-249 -152.5t-352.5 -54q-27 0 -72 3t-96 6t-102.5 6t-90.5 3h-225zM504 123 q8 -2 28.5 -3t42 -2t42 -2t30.5 -1q119 0 202 49t136 133t77.5 196.5t24.5 239.5q0 113 -25.5 217.5t-78.5 186.5t-138 131t-204 49q-37 0 -74 -2t-63 -6v-1186z" />
<glyph unicode="E" horiz-adv-x="1236" d="M41 0v78q35 18 78 34.5t90 24.5v1159q-41 8 -87 23.5t-81 36.5v78h1077q-4 -92 -14 -190.5t-27 -184.5h-84l-94 241h-383v-501h250l90 157h66q10 -100 10 -223t-10 -229h-66l-90 162h-250v-533h399l109 260h84q8 -39 16.5 -88t13.5 -101t8 -105.5t3 -98.5h-1108z" />
<glyph unicode="F" horiz-adv-x="1177" d="M41 0v78q33 18 69.5 33.5t77.5 25.5v1159q-47 10 -82.5 26.5t-64.5 33.5v78h1071q0 -41 -4 -89.5t-9 -98.5t-12.5 -98t-15.5 -89h-84l-94 241h-397v-538h280l92 158h62q8 -53 11 -112.5t3 -119.5q-2 -61 -5 -118.5t-9 -102.5h-62l-92 162h-280v-492q94 -12 178 -59v-78 h-633z" />
<glyph unicode="G" horiz-adv-x="1452" d="M80 717q0 201 62.5 341t166 229t234.5 130t268 41q135 0 254 -18.5t188 -53.5q0 -31 -3 -78.5t-9 -103t-15 -111t-22 -100.5h-84l-114 312q-23 10 -68 15t-90 5q-84 0 -162 -32.5t-137.5 -105.5t-94 -188.5t-34.5 -281.5q0 -135 31.5 -247t89 -191.5t137.5 -124.5 t176 -45q31 0 63.5 5t61.5 13t50.5 18.5t29.5 18.5v385q-53 4 -100.5 20.5t-88.5 38.5v78h560v-78q-18 -18 -49 -33.5t-78 -25.5v-459q-41 -20 -100.5 -40.5t-125 -37t-131 -27t-117.5 -10.5q-176 0 -314 46.5t-235.5 139.5t-148.5 232t-51 324z" />
<glyph unicode="H" horiz-adv-x="1574" d="M41 0v78q35 18 81 34t87 25v1159q-49 8 -94 24.5t-74 35.5v78h621v-78q-31 -20 -69 -36.5t-77 -23.5v-495h543v495q-45 8 -81 24.5t-65 35.5v78h621v-78q-35 -23 -80 -37t-88 -23v-1159q47 -8 91 -24.5t77 -34.5v-78h-621v78q31 18 68 34t78 25v531h-543v-531 q41 -8 76 -22.5t70 -36.5v-78h-621z" />
<glyph unicode="I" horiz-adv-x="761" d="M61 0v78q82 45 166 59v1159q-41 6 -86 22.5t-80 37.5v78h639v-78q-37 -23 -81 -38t-84 -22v-1159q41 -8 85 -22.5t80 -36.5v-78h-639z" />
<glyph unicode="J" horiz-adv-x="747" d="M55 1356v78h631v-78q-33 -20 -74 -36.5t-82 -23.5v-1048q0 -168 -50 -275.5t-118.5 -170t-140 -91t-117.5 -39.5l-38 54q31 25 59.5 62.5t50 97t34.5 144.5t13 206v1060q-45 10 -89 23.5t-79 36.5z" />
<glyph unicode="K" horiz-adv-x="1454" d="M41 0v78q41 20 84 36t84 23v1159q-47 6 -91 22.5t-77 37.5v78h621v-78q-27 -16 -65 -32.5t-81 -27.5v-520l121 29l330 491q-41 8 -81 25.5t-69 34.5v78h549v-78q-35 -23 -80 -38t-82 -22l-389 -493q47 -66 110.5 -149t135.5 -172t147.5 -180t147.5 -173l98 -59v-70h-356 l-82 57q-49 61 -103.5 136t-107.5 156t-104.5 163t-96.5 160h-88v-535q45 -8 82 -24.5t64 -34.5v-78h-621z" />
<glyph unicode="L" horiz-adv-x="1193" d="M41 0v78q47 25 89 39t79 20v1159q-100 16 -168 60v78h672v-78q-43 -23 -95.5 -38t-101.5 -22v-1163h395l138 367h84q8 -47 15 -110.5t11 -133.5t6 -138q1 -34 1 -63t-1 -55h-1124z" />
<glyph unicode="M" horiz-adv-x="1904" d="M41 0v78q33 16 81 38.5t91 30.5v1149q-41 8 -87 22.5t-81 37.5v78h555l313 -834l60 -197h2l61 201l320 830h508v-78q-35 -20 -75 -35.5t-81 -24.5v-1161q43 -8 83 -24.5t71 -32.5v-78h-613v78q41 20 80 34.5t84 24.5v856l10 240h-16l-68 -219l-395 -1014h-94l-393 1006 l-74 239h-18l2 -260v-840q39 -8 86 -26.5t88 -40.5v-78h-500z" />
<glyph unicode="N" horiz-adv-x="1552" d="M41 0v78q37 25 81 46t91 36v1118q-41 16 -82 36.5t-74 43.5v76h443l587 -852l95 -176h8l-10 176v684q-49 16 -95.5 39.5t-80.5 50.5v78h507v-78q-39 -31 -86 -54.5t-88 -35.5v-1291h-174l-723 1045l-82 158h-6l19 -164v-854q41 -10 91 -34t85 -48v-78h-506z" />
<glyph unicode="O" horiz-adv-x="1544" d="M80 717q0 160 45 296t133 235.5t217 154.5t297 55t297 -55t216 -154.5t132 -235.5t45 -296t-45 -296t-132 -235.5t-216 -155t-297 -55.5t-297 55.5t-217 155t-133 235.5t-45 296zM428 717q0 -131 20.5 -243t64.5 -192.5t112.5 -126.5t165.5 -46q88 0 149 46t100 126.5 t56.5 192.5t17.5 243t-19.5 242.5t-61.5 192.5t-110.5 127t-166.5 46q-94 0 -157.5 -46t-101.5 -127t-53.5 -192.5t-15.5 -242.5z" />
<glyph unicode="P" horiz-adv-x="1310" d="M41 0v78q39 23 83 37t85 22v1159q-47 8 -90 23.5t-78 36.5v78h258q82 0 187.5 8t193.5 8q109 0 212 -21.5t184 -72.5t130 -136t49 -212q0 -121 -48 -209t-128 -145.5t-184 -85t-215 -27.5h-32.5t-48.5 1t-49.5 2t-33.5 3v-410q55 -8 109.5 -23.5t97.5 -35.5v-78h-682z M516 682q18 -6 55 -7t60 -1q55 0 106 18.5t91 57t65 100t25 147.5q0 164 -80 242t-211 78q-41 0 -64.5 -3t-46.5 -9v-623z" />
<glyph unicode="Q" horiz-adv-x="1544" d="M80 717q0 160 45 296t133 235.5t217 154.5t297 55t297 -55t216 -154.5t132 -235.5t45 -296t-45 -296t-132 -235.5t-216 -155t-297 -55.5t-297 55.5t-217 155t-133 235.5t-45 296zM362 -176l52 90q65 12 129 12q32 0 64 -3q95 -9 188.5 -30.5t186.5 -48t188 -42.5 q89 -16 181 -16h11q98 1 203 36l20 -51q-37 -39 -79 -75t-88 -64.5t-97 -45t-107 -16.5q-94 0 -189 34t-198.5 78t-217 84.5t-247.5 57.5zM428 717q0 -131 20.5 -243t64.5 -192.5t112.5 -126.5t165.5 -46q88 0 149 46t100 126.5t56.5 192.5t17.5 243t-19.5 242.5 t-61.5 192.5t-110.5 127t-166.5 46q-94 0 -157.5 -46t-101.5 -127t-53.5 -192.5t-15.5 -242.5z" />
<glyph unicode="R" horiz-adv-x="1427" d="M41 0v78q45 25 86 38t82 21v1159q-102 23 -168 60v78h217q41 0 93 2t109.5 5t117 6t114.5 3q113 0 208 -25.5t164 -77t106.5 -128t37.5 -179.5q0 -147 -71.5 -241t-196.5 -142q82 -129 174 -263t195 -259l98 -65v-70h-342l-88 68q-94 113 -167 261t-128 292h-166v-484 q47 -10 84 -26.5t72 -32.5v-78h-631zM516 733h121q104 0 178 75t74 222q0 76 -20.5 130t-57.5 89t-86.5 51.5t-106.5 16.5q-63 0 -102 -12v-572z" />
<glyph unicode="S" horiz-adv-x="1142" d="M86 72q2 47 10 101t17.5 108.5t19.5 103.5t21 86h84l84 -301q23 -23 63.5 -42t108.5 -19q113 0 187.5 58t74.5 163q0 76 -48.5 127t-122 94t-157.5 85t-157.5 99.5t-122 136t-48.5 195.5q0 100 37 174t101.5 122t152.5 71.5t191 23.5q125 0 232.5 -17.5t193.5 -54.5 q-2 -41 -7.5 -94t-13.5 -105t-17 -98.5t-18 -76.5h-84l-94 280q-25 12 -73 22.5t-99 10.5q-86 0 -145.5 -45t-59.5 -131q0 -78 49.5 -132t123 -99.5t160.5 -89.5t161 -101t123 -134t49 -190q0 -205 -138.5 -316.5t-406.5 -111.5q-66 0 -132.5 8.5t-125.5 22.5t-105 30.5 t-69 35.5z" />
<glyph unicode="T" horiz-adv-x="1366" d="M31 1434h1304q0 -49 -4 -115t-10 -133.5t-14.5 -130t-16.5 -105.5h-86l-131 350h-237v-1163q53 -10 105 -24.5t93 -34.5v-78h-704v78q41 16 93 34t105 25v1163h-237l-131 -350h-84q-8 41 -16.5 104.5t-14.5 131t-10 134t-4 114.5z" />
<glyph unicode="U" horiz-adv-x="1464" d="M14 1356v78h631v-78q-68 -43 -156 -60v-788q0 -100 23 -168t66 -110t103 -60t136 -18q68 0 124 19t98 62t64.5 113t22.5 172v768q-47 10 -97 28.5t-83 41.5v78h508v-78q-37 -27 -82 -43.5t-88 -26.5v-770q0 -262 -138 -398t-390 -136q-274 0 -424 122.5t-150 393.5v798 q-41 6 -86 21.5t-82 38.5z" />
<glyph unicode="V" horiz-adv-x="1503" d="M0 1356v78h682v-78q-35 -16 -78 -32.5t-90 -27.5l287 -807l47 -192h4l45 197l258 802q-49 10 -93 26.5t-79 33.5v78h520v-78q-25 -16 -64.5 -32.5t-82.5 -27.5l-471 -1296l-203 -25l-528 1321q-41 10 -82 25.5t-72 34.5z" />
<glyph unicode="W" horiz-adv-x="2115" d="M0 1356v78h664v-78q-35 -18 -79 -33.5t-91 -26.5l190 -723l43 -266h4l72 277l272 850h121l291 -840l69 -266h5l47 270l164 698q-82 12 -173 60v78h517v-78q-35 -23 -74 -37t-76 -23l-362 -1296l-213 -25l-318 992l-309 -967l-215 -25l-399 1321q-43 8 -80 23.5t-70 36.5z " />
<glyph unicode="X" horiz-adv-x="1490" d="M25 0v78q68 41 139 59l411 584l-385 575q-39 10 -73.5 26.5t-67.5 33.5v78h649v-78q-25 -14 -61.5 -29.5t-85.5 -30.5l250 -411l246 411q-41 8 -82 25.5t-74 34.5v78h508v-78q-31 -16 -65 -32.5t-74 -27.5l-365 -534l424 -625q47 -10 85 -25.5t73 -33.5v-78h-664v78 q33 18 69 33.5t76 25.5l-290 451l-271 -453q43 -6 80 -20.5t72 -36.5v-78h-524z" />
<glyph unicode="Y" horiz-adv-x="1429" d="M0 1356v78h672v-78q-29 -16 -66 -32.5t-86 -27.5l293 -548l279 548q-47 10 -90.5 26.5t-73.5 33.5v78h502v-78q-31 -18 -69 -35.5t-77 -24.5l-397 -696v-463q41 -4 81 -21.5t74 -37.5v-78h-630v78q35 18 77.5 34.5t90.5 24.5v461l-414 698q-47 8 -89 24.5t-77 35.5z" />
<glyph unicode="Z" horiz-adv-x="1298" d="M72 0v133l794 1167h-508l-120 -292h-86q-10 45 -18.5 102t-14.5 115.5t-8 113t-2 95.5h1093v-134l-790 -1167h561l127 299h86q8 -43 15 -97t13.5 -112.5t9.5 -116t3 -106.5h-1155z" />
<glyph unicode="[" horiz-adv-x="663" d="M147 -471v1905h480v-113h-213v-1679h213v-113h-480z" />
<glyph unicode="\" horiz-adv-x="782" d="M-115 1405l119 59l848 -1677l-117 -61z" />
<glyph unicode="]" horiz-adv-x="663" d="M37 -358h213v1679h-213v113h479v-1905h-479v113z" />
<glyph unicode="^" horiz-adv-x="1019" d="M88 889l381 567h94l348 -567h-245l-162 276l-37 109l-51 -111l-185 -274h-143z" />
<glyph unicode="_" horiz-adv-x="839" d="M0 -238h840v-163h-840v163z" />
<glyph unicode="`" horiz-adv-x="718" d="M123 1458v60q12 12 53 23t87 17.5t87 7.5t56 -3l190 -357l-92 -45z" />
<glyph unicode="a" horiz-adv-x="1140" d="M55 260q0 92 35 151.5t109.5 97.5t192.5 56.5t286 26.5q6 61 6 110q0 94 -20 148q-30 82 -134 82q-63 0 -116 -21l-97 -245h-90q-16 25 -31.5 56.5t-28.5 67t-22.5 72.5t-13.5 72q78 53 201 84t260 31q117 0 190.5 -26t115.5 -70t58.5 -103t16.5 -127q0 -123 -5 -222.5 t-5 -203.5q0 -45 1 -78t5 -69l141 -22v-71q-25 -12 -67 -24.5t-88 -23.5t-91 -18t-80 -11h-69q-20 47 -24.5 94t-6.5 114h-10q-10 -41 -35 -78.5t-62.5 -67.5t-89 -48.5t-114.5 -18.5q-68 0 -125.5 20.5t-100.5 57.5t-67.5 89.5t-24.5 117.5zM362 303q0 -78 37 -121t103 -43 q43 0 73.5 16.5t52 39t33 49t17.5 47.5v205q-96 -2 -157.5 -12.5t-96.5 -34t-48.5 -59.5t-13.5 -87z" />
<glyph unicode="b" horiz-adv-x="1204" d="M-18 1386v80q31 12 81 24.5t104 22t106.5 16.5t88.5 11h70v-709h4q41 102 125 160t199 58q180 0 280.5 -125t100.5 -379q0 -281 -148.5 -422t-435.5 -141q-51 0 -114.5 7t-123 17t-109.5 24.5t-73 28.5v1311zM432 143q29 -20 71 -32.5t95 -12.5q117 0 171 104.5t54 327.5 q0 162 -43.5 258.5t-152.5 96.5q-78 0 -125 -56.5t-70 -142.5v-543z" />
<glyph unicode="c" horiz-adv-x="991" d="M63 512q0 260 142.5 398.5t404.5 138.5q100 0 184.5 -21.5t139.5 -50.5q-4 -35 -11.5 -77t-16.5 -84t-21.5 -82t-24.5 -66h-100l-86 243q-14 10 -30.5 15.5t-49.5 5.5q-53 0 -92 -19.5t-66.5 -66.5t-41 -125t-13.5 -193q0 -84 18.5 -154.5t56.5 -122.5t95 -82t135 -30 q72 0 125 20.5t90 49.5l33 -43q-14 -41 -47 -75t-79 -60.5t-104.5 -41t-121.5 -14.5q-135 0 -232.5 38t-161 109t-94.5 170t-31 220z" />
<glyph unicode="d" horiz-adv-x="1226" d="M63 496q0 135 37 236.5t103.5 171t161 104t208.5 34.5q37 0 63 -2t47.5 -5t40.5 -10t44 -15v360l-156 16v80q29 12 79 22.5t105.5 20t108.5 17.5t88 14h70v-1395l135 -17v-71q-29 -14 -74 -26.5t-94 -22.5t-95 -17t-77 -11h-70l-18 223h-8q-10 -45 -37 -86t-63.5 -73 t-84 -50.5t-100.5 -18.5q-203 0 -308.5 128t-105.5 393zM381 506q0 -166 45 -266.5t149 -100.5q72 0 121 45t72 154v551q-27 16 -66.5 26.5t-99.5 10.5q-119 0 -170 -107.5t-51 -312.5z" />
<glyph unicode="e" horiz-adv-x="1099" d="M63 512q0 262 137.5 399.5t381.5 137.5q104 0 195 -29t151 -94q60 -66 84 -172q11 -51 11 -112q0 -68 -13 -148h-629q2 -162 83 -258.5t238 -96.5q68 0 140.5 20.5t113.5 53.5l39 -41q-16 -35 -52 -70.5t-88 -63.5t-120.5 -45.5t-148.5 -17.5q-127 0 -225.5 38t-164 109 t-99.5 169t-34 221zM387 600h330q4 48 4 89q0 97 -23 157q-33 86 -125 86q-41 0 -72.5 -14.5t-55 -52.5t-38 -102.5t-20.5 -162.5z" />
<glyph unicode="f" horiz-adv-x="761" d="M47 895v80q72 45 156 67v72q0 127 35.5 210t97 131t144.5 66.5t177 18.5q84 0 150.5 -15.5t101.5 -29.5q-6 -68 -26.5 -139.5t-36.5 -118.5h-70l-90 195q-53 0 -89 -11.5t-57.5 -44.5t-31.5 -93t-10 -157v-102h217v-129h-217v-766q106 -12 196 -49v-80h-626v80 q63 37 135 49v766h-156z" />
<glyph unicode="g" horiz-adv-x="1155" d="M33 -172q0 57 22.5 98t63.5 72t95 51.5t120 36.5q-31 8 -59.5 20.5t-51 30t-37 41t-14.5 53.5q0 27 16.5 52.5t43 47t57 39t61.5 29.5q-129 29 -204.5 112t-75.5 212q0 154 127 240t344 86q133 0 221 -28t133 -69q96 104 221 146q14 -10 28.5 -29.5t25 -42t16.5 -45.5 t6 -37l-27 -49h-215q23 -29 42.5 -75t19.5 -109q0 -68 -29 -127.5t-87 -105.5t-147.5 -72.5t-207.5 -26.5q-35 0 -62.5 1t-48.5 5q-8 -12 -17.5 -29.5t-9.5 -33.5q0 -35 49.5 -55.5t125 -37t162.5 -37t163 -54.5t127 -88t53 -140v-7q0 -78 -41 -139q-43 -63 -117.5 -107 t-176 -67.5t-216.5 -23.5q-135 0 -230 21.5t-154.5 58.5t-87 84t-27.5 98zM328 -119q0 -94 64.5 -146t180.5 -52q115 0 170.5 47.5t55.5 113.5q0 55 -34 89t-87 55.5t-119.5 37t-132.5 35.5q-53 -41 -75.5 -81.5t-22.5 -98.5zM365 713q0 -106 35.5 -161.5t140.5 -55.5 q100 0 138 56t38 161q0 111 -39 165t-137 54q-102 0 -139 -53t-37 -166z" />
<glyph unicode="h" horiz-adv-x="1310" d="M18 1386v80q31 12 79 24.5t101.5 22t106.5 16.5t94 11h70v-723h2q20 47 55 89t79 74t95.5 50.5t108.5 18.5q82 0 146.5 -19.5t107.5 -69t65.5 -132.5t22.5 -210v-489q35 -8 69.5 -18.5t65.5 -30.5v-80h-543v80q25 14 51.5 26.5t61.5 22.5v414q0 176 -34 259t-132 83 q-82 0 -139 -56.5t-82 -130.5v-569q33 -8 58.5 -18.5t54.5 -30.5v-80h-543v80q63 33 135 49v1241z" />
<glyph unicode="i" horiz-adv-x="679" d="M63 0v80q31 16 64 28t72 21v750l-136 16v80q31 12 77 24.5t97.5 21.5t100.5 16t86 12h70v-920q41 -10 73.5 -21.5t61.5 -27.5v-80h-566zM164 1360q0 72 49 112.5t127 40.5t127 -40.5t49 -112.5q0 -70 -49 -111t-127 -41t-127 41t-49 111z" />
<glyph unicode="j" horiz-adv-x="655" d="M55 -373q25 12 49.5 40t46 77t35 124t13.5 181v830l-136 16v80q31 14 76 26.5t96.5 21.5t101.5 15t87 11h70v-961q0 -96 -24 -172t-61.5 -131t-83.5 -94t-90.5 -64.5t-81 -40t-57.5 -20.5zM164 1360q0 72 49 112.5t127 40.5t127 -40.5t49 -112.5q0 -70 -49 -111t-127 -41 t-127 41t-49 111z" />
<glyph unicode="k" horiz-adv-x="1193" d="M18 1386v80q29 12 78 24.5t104.5 22t108.5 16.5t90 11h70v-960h53q68 72 126.5 157.5t103.5 157.5q-27 8 -48.5 20.5t-44.5 28.5v80h480v-80q-39 -16 -73 -28.5t-75 -20.5q-31 -41 -66.5 -81t-71.5 -77t-68.5 -70.5t-59.5 -60.5q31 -41 72 -98t88 -121.5t99 -131.5 t106 -126l104 -49v-80h-346l-55 49q-47 63 -83 118.5t-65 107t-55.5 99.5t-52.5 95l-68 20v-360q35 -6 63.5 -18.5t61.5 -30.5v-80h-555v80q68 33 135 49v1241z" />
<glyph unicode="l" horiz-adv-x="679" d="M43 1386v80q27 12 74 24.5t101 22t108.5 16.5t97.5 11h70v-1411q68 -16 135 -49v-80h-566v80q68 33 136 49v1241z" />
<glyph unicode="m" horiz-adv-x="1892" d="M47 0v80q29 14 63.5 26.5t71.5 22.5v750l-135 16v80q33 14 81 26.5t99.5 21.5t99.5 15t81 11h69v-232h2q33 96 116 164t200 68q49 0 96 -10.5t87 -38t68.5 -77t40.5 -126.5q37 113 123 182.5t209 69.5q76 0 134.5 -19.5t98.5 -69t60.5 -133.5t20.5 -213v-485 q70 -12 135 -49v-80h-533v80q47 31 103 49v444q0 160 -30 236t-128 76q-74 0 -116 -55.5t-62 -147.5v-553q35 -10 62.5 -22.5t52.5 -26.5v-80h-512v80q20 12 45.5 25.5t56.5 23.5v408q0 94 -5 159.5t-21.5 107.5t-45 61.5t-73.5 19.5q-66 0 -114 -50.5t-71 -132.5v-573 q55 -16 103 -49v-80h-533z" />
<glyph unicode="n" horiz-adv-x="1318" d="M47 0v80q51 27 135 49v750l-135 16v80q27 12 70 23.5t93 21.5t102.5 17t95.5 12h69v-211h2q43 86 129 148.5t209 62.5q80 0 143.5 -19.5t107.5 -69t67.5 -132.5t23.5 -210v-489q82 -14 135 -49v-80h-542v80q27 14 52 25.5t60 23.5v481q0 129 -36.5 202t-131.5 73 q-78 0 -134 -50.5t-85 -136.5v-569q33 -8 58.5 -19.5t54.5 -29.5v-80h-543z" />
<glyph unicode="o" horiz-adv-x="1216" d="M63 512q0 125 38 224.5t109 169t171 106.5t227 37q143 0 246.5 -40t170.5 -111t97.5 -170t30.5 -216q0 -125 -37 -224.5t-107.5 -169t-172 -106.5t-228.5 -37q-139 0 -241.5 40t-170 111t-100.5 170t-33 216zM381 512q0 -92 11 -169t40 -130t78 -83t127 -30q45 0 82 21.5 t63.5 70t40 127t13.5 193.5q0 94 -11.5 170t-39 129t-74.5 83t-119 30q-53 0 -92 -21.5t-65.5 -70t-40 -127t-13.5 -193.5z" />
<glyph unicode="p" horiz-adv-x="1247" d="M43 -330q70 33 135 49v1160l-135 16v80q33 14 81 26.5t99 21.5t99.5 15t80.5 11h70v-230h2q35 98 109.5 164t208.5 66q90 0 162.5 -30t122.5 -92.5t78 -159.5t28 -232q0 -129 -36 -233.5t-102.5 -176.5t-162 -111t-215.5 -39q-70 0 -110 9.5t-85 31.5v-297 q33 -4 65.5 -15t69.5 -34v-80h-565v80zM473 139q33 -25 70 -36t96 -11q117 0 172 112.5t55 330.5q0 168 -41.5 259t-150.5 91q-70 0 -124 -49.5t-77 -151.5v-545z" />
<glyph unicode="q" horiz-adv-x="1206" d="M63 485q0 281 151 419t427 138q57 0 120.5 -6t121 -15t103.5 -20.5t69 -21.5v-1260q68 -12 135 -49v-80h-565v80q63 33 135 49v463h-8q-14 -41 -41 -77.5t-64 -65.5t-85 -46.5t-107 -17.5q-186 0 -289 127t-103 383zM381 510q0 -178 37 -274.5t139 -96.5q154 0 203 197 v561q-35 10 -74 19.5t-86 9.5q-119 0 -169 -94.5t-50 -321.5z" />
<glyph unicode="r" horiz-adv-x="882" d="M47 0v80q37 20 70 30t65 19v750l-135 16v80q33 14 81 26.5t99.5 21.5t99.5 15t81 11h69v-273h8q16 45 48 94.5t75 89.5q42 41 94 66q48 23 99 23h8q23 -29 39 -81.5t26 -99.5v-80h-280q-25 -12 -57.5 -40.5t-59.5 -94.5v-524q41 -4 82 -15.5t82 -33.5v-80h-594z" />
<glyph unicode="s" horiz-adv-x="925" d="M59 53q4 74 35 150t66 135h69l101 -223q23 -16 50.5 -19.5t51.5 -3.5q59 0 108.5 35t49.5 96q0 53 -38 92t-94.5 72t-123 65.5t-122.5 76.5t-94 103.5t-38 145.5q0 61 28.5 111.5t78 85.5t118 54.5t148.5 19.5q111 0 206 -17.5t166 -48.5q-8 -66 -32.5 -140.5 t-47.5 -135.5h-69l-86 208q-25 10 -51.5 13.5t-59.5 3.5q-61 0 -93 -36t-32 -81q0 -51 38 -89t94.5 -70.5t123 -65.5t122.5 -75t94 -99.5t38 -136.5q0 -141 -114.5 -222.5t-307.5 -81.5q-98 0 -202.5 20.5t-180.5 57.5z" />
<glyph unicode="t" horiz-adv-x="817" d="M16 895v80q78 49 164 69v166q12 12 42 23.5t63.5 21t66.5 17.5t54 12h69v-260h270v-129h-270v-530q0 -127 32 -176.5t105 -49.5q37 0 83 5.5t85 19.5l15 -68q-18 -18 -54 -38.5t-82.5 -39t-100.5 -31t-114 -12.5q-133 0 -198.5 70t-65.5 225v625h-164z" />
<glyph unicode="u" horiz-adv-x="1273" d="M23 895v80q33 12 81 24.5t99 21.5t99 16t81 12h70q0 -154 -6.5 -302.5t-6.5 -291.5q0 -168 34 -242t126 -74q63 0 117.5 48.5t89.5 154.5v537l-133 16v80q31 12 77 24.5t96 21.5t99 16t86 12h70v-904l135 -17v-71q-29 -12 -72 -24.5t-90 -23.5t-93 -18t-83 -11h-70 l-14 243h-8q-10 -43 -37 -87t-69 -80t-99 -58.5t-127 -22.5q-78 0 -138.5 19.5t-103.5 69t-65.5 132.5t-22.5 210q0 129 6.5 239.5t6.5 233.5z" />
<glyph unicode="v" horiz-adv-x="1103" d="M-20 944v80h538v-78q-27 -14 -54.5 -27.5t-62.5 -23.5l191 -524l39 -138h4l33 140l174 522q-33 8 -60.5 20.5t-52.5 28.5v80h395v-80q-20 -14 -50 -26.5t-66 -22.5l-359 -895l-151 -25l-410 920q-59 20 -108 49z" />
<glyph unicode="w" horiz-adv-x="1605" d="M-20 944v80h518v-78q-29 -16 -57.5 -29.5t-59.5 -21.5l141 -524l27 -158h4l37 164l217 635l100 12l234 -649l43 -162h4l33 160l122 522q-23 4 -52 16.5t-60 32.5v80h395v-80q-43 -29 -117 -49l-284 -895l-193 -25l-176 506l-39 170h-6l-47 -170l-164 -481l-190 -25 l-322 920q-29 10 -56.5 21.5t-51.5 27.5z" />
<glyph unicode="x" horiz-adv-x="1146" d="M20 0v80q29 16 52.5 28.5t54.5 20.5l303 377l-305 389q-29 10 -51.5 21.5t-40.5 27.5v80h514v-78q-25 -16 -44.5 -29.5t-47.5 -21.5l178 -254l170 254q-35 10 -55.5 22.5t-36.5 26.5v80h379v-80q-20 -14 -45 -26.5t-62 -22.5l-281 -346l324 -420q53 -16 100 -49v-80h-522 v78q23 16 46.5 29.5t47.5 21.5l-194 279l-189 -279q29 -10 50.5 -22.5t42.5 -26.5v-80h-388z" />
<glyph unicode="y" horiz-adv-x="1081" d="M-31 944v80h539v-78q-43 -29 -117 -51l207 -514l35 -131h4l33 133l159 512q-61 12 -112 49v80h395v-80q-43 -29 -117 -49l-333 -895q-49 -131 -98.5 -214t-98.5 -132t-98.5 -68.5t-98.5 -25.5q-20 18 -36.5 45.5t-29 59.5t-20.5 64.5t-10 61.5l27 49h250q18 29 31.5 61.5 t31.5 98.5l-434 895q-31 8 -56.5 20.5t-52.5 28.5z" />
<glyph unicode="z" horiz-adv-x="1056" d="M66 0v80l583 827h-340l-90 -241h-69q-23 88 -37.5 186t-14.5 172h881v-80l-586 -827h355l110 262h70q23 -85 39 -187q13 -82 13 -156q0 -18 -1 -36h-913z" />
<glyph unicode="{" horiz-adv-x="724" d="M88 432v98q78 0 121 62.5t43 152.5v472q0 98 49 157.5t148 59.5h247v-113h-71q-55 0 -81 -28.5t-26 -94.5v-450q0 -68 -21.5 -115t-55 -77t-72.5 -45t-76 -19v-13q35 -4 75 -20.5t73.5 -49t55 -80.5t21.5 -114v-451q0 -63 24.5 -92.5t84.5 -29.5h69v-113h-247 q-92 0 -144.5 54.5t-52.5 160.5v465q0 104 -43 163.5t-121 59.5z" />
<glyph unicode="|" horiz-adv-x="481" d="M170 -266v1700h143v-1700h-143z" />
<glyph unicode="}" horiz-adv-x="724" d="M55 -358h72q55 0 80.5 28.5t25.5 93.5v453q0 68 18.5 115t48.5 76.5t65.5 45t72.5 19.5v12q-35 4 -71.5 20.5t-66.5 49.5t-48.5 81t-18.5 114v448q0 63 -24.5 93t-83.5 30h-70v113h250q92 0 143.5 -54.5t51.5 -160.5v-463q0 -104 43 -164t121 -60v-98q-78 0 -121 -62.5 t-43 -152.5v-473q0 -98 -49.5 -157.5t-147.5 -59.5h-248v113z" />
<glyph unicode="~" horiz-adv-x="1085" d="M94 639q55 119 137 181.5t158 62.5q51 0 100.5 -21.5t96.5 -48.5t95 -48.5t99 -21.5q37 0 77 15.5t81 54.5l47 -61q-47 -98 -114.5 -146.5t-137.5 -48.5q-53 0 -103 21.5t-99.5 48t-98.5 48t-98 21.5q-45 0 -91 -24.5t-93 -87.5z" />
<glyph unicode="&#xa1;" horiz-adv-x="704" d="M129 887q0 74 49 118t127 44t125 -44t47 -118q0 -76 -47 -120t-125 -44t-127 44t-49 120zM160 188l102 398h90l103 -398v-569q-23 -12 -63 -17t-85 -5t-86 5t-61 17v569z" />
<glyph unicode="&#xa2;" d="M115 512q0 229 128 363.5t369 164.5v312h158v-305q92 -4 168 -23.5t129 -46.5q-4 -35 -11 -77t-16.5 -84t-21.5 -82t-25 -66h-69l-74 243q-10 4 -21.5 9.5t-40.5 7.5l-32 2v-787q16 -4 31.5 -4h31.5q72 0 125 20.5t90 49.5l33 -43q-27 -72 -106.5 -123t-190.5 -61v-330 h-158v330q-248 27 -372.5 167t-124.5 363zM432 528q0 -121 46 -214t149 -140v739q-84 -31 -139.5 -121t-55.5 -264z" />
<glyph unicode="&#xa3;" d="M82 643v125h158q-41 63 -74 140t-33 186q0 86 35 153.5t96.5 114.5t146.5 71.5t187 24.5q61 0 127 -7t124 -17.5t107.5 -24.5t77.5 -29q-2 -33 -9 -82t-16.5 -101t-21.5 -101t-22 -84h-70l-82 280q-74 33 -182 33q-78 0 -127 -38t-62 -111q-8 -39 -2 -86q6 -45 18.5 -86 t30 -80l35 -78t33.5 -78h256v-125h-221q8 -63 -7.5 -112.5t-39.5 -96.5q-8 -41 -29.5 -80t-58.5 -67l-68 -49v-9l105 13h362l100 229h70q6 -47 13.5 -112.5t13.5 -133t10 -128t4 -97.5h-979v111q119 51 182.5 121.5t73.5 177.5q4 23 4 44v44q-4 41 -13 76.5t-22 68.5h-231z " />
<glyph unicode="&#xa4;" d="M74 365l153 151l82 29q-27 35 -38 72.5t-11 91.5q0 94 49 161l-82 31l-151 152l160 159l149 -151l33 -82q33 23 69.5 35t90.5 12q106 -2 163 -45l33 80l148 147l159 -157l-151 -150l-78 -29q20 -35 30.5 -73.5t12.5 -91.5q0 -92 -43 -162l78 -29l149 -151l-159 -160 l-150 149l-29 80q-31 -18 -72.5 -30.5t-88.5 -12.5q-53 2 -93.5 13.5t-72.5 29.5l-29 -78l-152 -151zM403 709q0 -74 50.5 -121t124.5 -47t124 47t50 121t-50.5 122t-123.5 48q-74 2 -124.5 -47.5t-50.5 -122.5z" />
<glyph unicode="&#xa5;" d="M-113 1356v78h672v-78q-27 -16 -64.5 -32.5t-86.5 -27.5l270 -577l262 577q-47 10 -89 26.5t-75 33.5v78h492v-78q-29 -18 -73 -35.5t-83 -24.5l-309 -596h239v-133h-290v-116h290v-134h-290v-180q39 -4 79.5 -21.5t75.5 -37.5v-78h-631v78q35 18 78 34.5t90 24.5v180 h-292v134h292v116h-292v133h235l-334 596q-47 8 -89 24.5t-77 35.5z" />
<glyph unicode="&#xa6;" horiz-adv-x="481" d="M170 -266v655h143v-655h-143zM170 778v656h143v-656h-143z" />
<glyph unicode="&#xa7;" horiz-adv-x="1159" d="M111 610q0 102 78.5 174t197.5 119q-43 23 -80 49.5t-64.5 60.5t-44 77t-16.5 98q0 123 105.5 196.5t277.5 73.5q111 0 200 -16.5t163 -38.5q-8 -66 -22.5 -120t-37.5 -116h-69l-107 158q-25 10 -46 13t-54 3q-70 0 -102.5 -35.5t-32.5 -80.5q0 -55 44 -93t109.5 -70 t142 -63.5t142.5 -73.5t110 -100.5t44 -142.5q0 -53 -24 -98t-60.5 -83t-83.5 -68t-93 -52q74 -41 126.5 -96.5t52.5 -145.5q0 -143 -113 -225t-319 -82q-98 0 -197.5 20.5t-175.5 57.5q4 74 24.5 124t55.5 109h69l121 -172q23 -16 45.5 -19t46.5 -3q66 0 117 35t51 96 q0 55 -43 92t-107.5 64.5t-140 56.5t-140 68.5t-107.5 98t-43 150.5zM385 672q0 -45 24.5 -79t64.5 -60.5t91 -48t105 -44.5q41 35 72.5 83t31.5 93t-23.5 80t-61.5 61.5t-88 48t-103 44.5q-45 -33 -79 -80t-34 -98z" />
<glyph unicode="&#xa8;" horiz-adv-x="1034" d="M123 1350q0 66 41 104.5t108 38.5q66 0 108 -39t42 -104q0 -61 -42 -100.5t-108 -39.5q-68 0 -108.5 39.5t-40.5 100.5zM612 1350q0 66 41 104.5t107 38.5q68 0 109.5 -39t41.5 -104q0 -61 -42 -100.5t-109 -39.5q-66 0 -107 39.5t-41 100.5z" />
<glyph unicode="&#xa9;" horiz-adv-x="1677" d="M113 594q0 170 60 304t161.5 226.5t231.5 141.5t272 49q141 0 271 -49t231.5 -141.5t162 -226.5t60.5 -304t-60.5 -304t-162 -226.5t-231.5 -141.5t-271 -49q-147 0 -279.5 49t-232 141.5t-156.5 226.5t-57 304zM250 594q0 -137 47 -247.5t127 -187.5t186.5 -119 t227.5 -42q125 0 232.5 42t186 119t123.5 187.5t45 247.5q0 141 -49 251.5t-130 187.5t-187.5 117t-220.5 40q-129 0 -236.5 -42t-185.5 -119t-122 -187.5t-44 -247.5zM426 596q0 106 38 186t98.5 133.5t137 81t154.5 27.5q98 0 170 -17.5t115 -43.5q2 -18 0 -49t-6.5 -65 t-9.5 -66.5t-11 -53.5h-70l-61 170q-14 10 -38.5 11t-49.5 1q-92 0 -141.5 -77.5t-49.5 -237.5q0 -68 11.5 -126t36 -100t63.5 -65.5t94 -23.5q33 0 57.5 5t32.5 13l58 152h69q4 -16 9.5 -42t8.5 -56.5t4 -61.5t-1 -55q-35 -29 -107.5 -48.5t-156.5 -19.5 q-100 0 -183.5 27.5t-143.5 82t-94 134.5t-34 184z" />
<glyph unicode="&#xaa;" horiz-adv-x="942" d="M92 965q0 63 34 103t90 62.5t130 31.5t156 9q14 0 27.5 -1t27.5 -1q2 12 2 34v32q0 47 -24.5 79t-94.5 32q-23 0 -50.5 -4.5t-55.5 -14.5l-58 -106h-73q-20 23 -39 67.5t-21 87.5q51 27 139.5 50.5t243.5 23.5q80 0 131.5 -13.5t82 -40t43 -65.5t12.5 -88 q0 -78 -3.5 -166t-3.5 -153l103 -21v-72q-18 -10 -50 -19t-68 -17.5t-69.5 -13.5t-56.5 -7h-53q-14 35 -19.5 64.5t-7.5 64.5h-8q-10 -18 -28.5 -41.5t-48 -44t-70.5 -34t-97 -13.5q-102 0 -162.5 52t-60.5 143zM332 983q0 -39 22.5 -69.5t65.5 -30.5q57 0 90 35.5t47 68.5 v105q-18 2 -35.5 3t-34.5 1q-66 0 -110.5 -24.5t-44.5 -88.5z" />
<glyph unicode="&#xab;" horiz-adv-x="1034" d="M41 530l491 457l80 -74l-295 -370l308 -387l-80 -76zM483 530l365 455l88 -74l-217 -366l229 -387l-86 -74z" />
<glyph unicode="&#xac;" horiz-adv-x="1130" d="M121 637v184h889v-442h-164v258h-725z" />
<glyph unicode="&#xad;" horiz-adv-x="847" d="M135 485v185h578v-185h-578z" />
<glyph unicode="&#xae;" horiz-adv-x="1439" d="M141 924q0 135 47.5 241.5t127 180t184 112.5t219.5 39q117 0 222.5 -39t184 -112.5t124.5 -180t46 -241.5t-47 -242t-127 -180.5t-184 -112.5t-219 -39q-117 0 -222.5 39t-184.5 112.5t-125 180.5t-46 242zM268 924q0 -106 36 -191.5t97.5 -146t143.5 -92t174 -31.5 q96 0 179 31.5t143.5 91t94 144.5t33.5 194q0 106 -35.5 191t-97 144.5t-143.5 92t-174 32.5q-98 0 -180 -32.5t-142.5 -92t-94.5 -144.5t-34 -191zM442 633v67q35 12 72 19v440q-23 2 -39 7t-33 16v63h107q37 0 88 4t84 4q111 0 180.5 -39.5t69.5 -132.5q0 -63 -39 -103 t-96 -58q18 -31 33.5 -55.5t32 -48t38 -47.5t49.5 -50l47 -25v-61h-131l-57 22q-51 61 -77 123t-48 121h-68v-180q27 -2 41.5 -7t28.5 -12v-67h-283zM655 977h60q49 0 75.5 24.5t24.5 79.5q-2 47 -29.5 67.5t-74.5 20.5q-23 0 -33 -1t-23 -5v-186z" />
<glyph unicode="&#xaf;" horiz-adv-x="847" d="M123 1268v143h602v-143h-602z" />
<glyph unicode="&#xb0;" horiz-adv-x="845" d="M141 1169q0 63 23.5 116.5t63.5 91.5t94.5 59.5t113.5 21.5t113.5 -18.5t94.5 -54t63.5 -90t23.5 -126.5q0 -68 -23.5 -121t-63.5 -90.5t-94 -57t-114 -19.5q-59 0 -113.5 19.5t-94.5 57t-63.5 90.5t-23.5 121zM283 1169q0 -78 47 -120.5t106 -42.5q66 0 110 39.5 t44 123.5q0 80 -44 122t-110 42q-68 0 -110.5 -43t-42.5 -121z" />
<glyph unicode="&#xb1;" d="M117 336v164h921v-164h-921zM117 868v164h379v402h163v-402h379v-164h-379v-270h-163v270h-379z" />
<glyph unicode="&#xb2;" horiz-adv-x="901" d="M84 1567q66 37 161 67.5t208 30.5q170 0 246.5 -66.5t76.5 -171.5q0 -68 -32.5 -133t-91 -124.5t-140.5 -114t-180 -101.5v-12l63 14h244l90 138h64q6 -35 12 -80t10 -88t5 -79t1 -56h-731v104q84 47 163 105.5t140.5 122t99 130t37.5 129.5q0 61 -29.5 95t-101.5 34 q-61 0 -106 -24l-60 -215h-55q-12 25 -28.5 66.5t-30 85.5t-23.5 83t-12 60z" />
<glyph unicode="&#xb3;" horiz-adv-x="901" d="M80 866l70 217h55q10 -10 22.5 -30.5t26.5 -44t27.5 -48t23.5 -45.5q18 -6 48 -13t71 -7q78 0 113.5 46t35.5 99q0 63 -38.5 99.5t-126.5 36.5h-78v71l157 176l91 86v4l-127 -8h-146l-82 -170h-63q-12 27 -22.5 70t-17.5 89t-12.5 88t-5.5 65h684v-93l-208 -206l-76 -64 v-2l63 8q49 0 94.5 -15t81 -45t57 -75t21.5 -104q0 -133 -101.5 -206t-307.5 -73q-41 0 -88.5 7t-92.5 20.5t-84 31t-65 35.5z" />
<glyph unicode="&#xb4;" horiz-adv-x="718" d="M123 1196l221 367q16 4 54 3t79 -7.5t75 -17.5t44 -23v-50l-391 -317z" />
<glyph unicode="&#xb5;" horiz-adv-x="1273" d="M23 895v80q33 12 81 24.5t99 21.5t99 16t81 12h70q0 -154 -6.5 -302.5t-6.5 -291.5q0 -168 34 -242t126 -74q63 0 118.5 48.5t90.5 154.5v537l-135 16v80q31 12 77 24.5t97 21.5t100 16t86 12h70v-904l135 -16v-72q-29 -12 -72 -24.5t-91 -23.5t-94 -18t-83 -11h-70 l-14 243h-8q-10 -43 -36 -87t-66.5 -80t-94 -58.5t-114.5 -22.5q-57 0 -103.5 14.5t-75.5 37.5h-10l101 -357v-80q-74 -16 -138.5 -16t-124.5 16v1289z" />
<glyph unicode="&#xb6;" horiz-adv-x="1120" d="M123 1024q0 86 25.5 161t75.5 130t128 87t183 32h462v-88q-35 -16 -71.5 -28.5t-83.5 -21.5v-1103q0 -137 -20.5 -226.5t-60.5 -143.5t-98.5 -82t-134.5 -44q-41 -59 -101 -89t-124 -42l-33 67q45 18 85 46t69 74t46 118t17 178v586q-66 0 -130 20.5t-116.5 66.5t-85 121 t-32.5 181zM569 -227q84 27 113 132t29 288v1114h-90v-1258q0 -82 -11.5 -152.5t-40.5 -123.5z" />
<glyph unicode="&#xb7;" horiz-adv-x="606" d="M129 657q0 74 47 119t125 45t127 -45t49 -119t-49 -117.5t-127 -43.5t-125 43.5t-47 117.5z" />
<glyph unicode="&#x2219;" horiz-adv-x="606" d="M129 657q0 74 47 119t125 45t127 -45t49 -119t-49 -117.5t-127 -43.5t-125 43.5t-47 117.5z" />
<glyph unicode="&#xb8;" horiz-adv-x="651" d="M123 -233l84 235h121l-54 -141q123 -6 187.5 -44t66.5 -112q0 -59 -34.5 -102t-92 -72t-129 -43t-143.5 -14v80q143 23 143 116q-2 47 -39.5 67.5t-109.5 29.5z" />
<glyph unicode="&#xb9;" horiz-adv-x="901" d="M133 1452v86q94 12 194.5 49t174.5 78h82v-733q113 -27 204 -80v-61h-641v61q55 29 105.5 49.5t101.5 30.5v440l8 92q-49 -14 -115.5 -15t-113.5 3z" />
<glyph unicode="&#xba;" horiz-adv-x="937" d="M76 1110q0 80 28.5 143.5t81 109.5t124 70.5t159.5 24.5t160.5 -21.5t124 -64.5t80 -108.5t28.5 -153.5q0 -80 -28.5 -144.5t-80 -109.5t-124 -69.5t-160.5 -24.5t-159.5 21.5t-124 64.5t-81 108.5t-28.5 153.5zM322 1110q0 -244 147 -244q72 0 109.5 54.5t37.5 189.5 t-37.5 189.5t-109.5 54.5q-76 0 -111.5 -54.5t-35.5 -189.5z" />
<glyph unicode="&#xbb;" horiz-adv-x="1034" d="M92 158l223 372l-223 381l86 74l373 -450l-373 -451zM416 158l301 372l-301 383l80 74l497 -452l-497 -453z" />
<glyph unicode="&#xbc;" horiz-adv-x="1961" d="M104 1239v86q94 12 194.5 49t174.5 78h82v-733q113 -27 204 -80v-62h-641v62q55 29 105.5 49t101.5 31v440l8 92q-49 -14 -115.5 -15t-113.5 3zM385 61l1196 1403l99 -86l-1198 -1405zM973 232v75l561 568h142v-520h174v-123h-174v-111q61 -12 120 -59v-62h-499v62 q31 16 69.5 33.5t79.5 25.5v111h-473zM1143 340l111 15h192v210l17 89h-7l-67 -89l-172 -178z" />
<glyph unicode="&#xbd;" horiz-adv-x="2111" d="M104 1239v86q94 12 194.5 49t174.5 78h82v-733q113 -27 204 -80v-62h-641v62q55 29 105.5 49t101.5 31v440l8 92q-49 -14 -115.5 -15t-113.5 3zM385 61l1196 1403l99 -86l-1198 -1405zM1260 776q66 37 161 68t208 31q170 0 246.5 -66.5t76.5 -171.5q0 -68 -32.5 -133.5 t-91 -124.5t-140.5 -113.5t-180 -101.5v-12l63 14h244l90 137h64q6 -35 12 -80t10 -88t5 -78.5t1 -56.5h-731v105q84 47 163 105t140.5 121.5t99 130.5t37.5 130q0 61 -29.5 95t-101.5 34q-61 0 -106 -24l-60 -216h-55q-12 25 -28.5 67t-30 86t-23.5 83t-12 59z" />
<glyph unicode="&#xbe;" horiz-adv-x="2007" d="M113 653l70 217h55q10 -10 22.5 -30.5t26.5 -44t27.5 -48t23.5 -45.5q18 -6 48 -13t71 -7q78 0 113.5 46t35.5 99q0 63 -38.5 99t-126.5 36h-78v72l157 176l91 86v4l-127 -8h-146l-82 -170h-63q-12 27 -22.5 70t-17.5 89t-12.5 88t-5.5 64h684v-92l-208 -207l-76 -63v-2 l63 8q49 0 94.5 -15.5t81 -45t57 -74.5t21.5 -105q0 -133 -101.5 -205.5t-307.5 -72.5q-41 0 -88.5 7t-92.5 20.5t-84 31t-65 35.5zM430 61l1196 1403l99 -86l-1198 -1405zM1018 232v75l561 568h142v-520h174v-123h-174v-111q61 -12 120 -59v-62h-499v62q31 16 69.5 33.5 t79.5 25.5v111h-473zM1188 340l111 15h192v210l17 89h-7l-67 -89l-172 -178z" />
<glyph unicode="&#xbf;" horiz-adv-x="995" d="M53 -92q0 92 35 157.5t86 115.5t111.5 92t113 90.5t87 107.5t34.5 145h68q29 -94 21.5 -163.5t-34 -124t-64.5 -100.5t-74 -92t-61.5 -99t-25.5 -123q0 -41 9.5 -78t30 -65.5t54 -46t82.5 -17.5q90 0 125 29l68 270h69q10 -27 24.5 -66.5t29 -83.5t25 -91.5t14.5 -86.5 q-78 -47 -177.5 -75.5t-252.5 -28.5q-92 0 -165 25.5t-125 69.5t-80 105.5t-28 133.5zM354 887q0 74 49.5 118t126.5 44q78 0 126.5 -44t48.5 -118q0 -76 -48.5 -120t-126.5 -44t-127 44t-49 120z" />
<glyph unicode="&#xc0;" horiz-adv-x="1492" d="M0 0v78q33 20 71 35.5t74 23.5l529 1321h151l514 -1321q41 -8 82 -23.5t72 -35.5v-78h-641v78q39 18 84 34.5t86 24.5l-119 326h-454l-121 -326q94 -12 178 -59v-78h-506zM299 1722v41q6 18 44 33.5t86 27t94 16.5t69 -1l260 -274l-70 -39zM498 596h362l-133 391l-39 176 h-4l-45 -180z" />
<glyph unicode="&#xc1;" horiz-adv-x="1492" d="M0 0v78q33 20 71 35.5t74 23.5l529 1321h151l514 -1321q41 -8 82 -23.5t72 -35.5v-78h-641v78q39 18 84 34.5t86 24.5l-119 326h-454l-121 -326q94 -12 178 -59v-78h-506zM498 596h362l-133 391l-39 176h-4l-45 -180zM635 1575l291 264q33 2 74.5 -4t81.5 -17.5t72 -25.5 t44 -29v-41l-506 -196z" />
<glyph unicode="&#xc2;" horiz-adv-x="1492" d="M0 0v78q33 20 71 35.5t74 23.5l529 1321h151l514 -1321q41 -8 82 -23.5t72 -35.5v-78h-641v78q39 18 84 34.5t86 24.5l-119 326h-454l-121 -326q94 -12 178 -59v-78h-506zM434 1579l260 240q20 10 63 10t64 -10l256 -234l-57 -61l-271 114l-258 -116zM498 596h362 l-133 391l-39 176h-4l-45 -180z" />
<glyph unicode="&#xc3;" horiz-adv-x="1492" d="M0 0v78q33 20 71 35.5t74 23.5l529 1321h151l514 -1321q41 -8 82 -23.5t72 -35.5v-78h-641v78q39 18 84 34.5t86 24.5l-119 326h-454l-121 -326q94 -12 178 -59v-78h-506zM399 1655q156 139 276 139q37 0 71 -10t64.5 -22.5t61.5 -22.5t63 -10q27 0 60 9t65 31l45 -96 q-66 -66 -123 -99.5t-131 -33.5q-39 0 -72.5 11.5t-66.5 23.5t-63.5 23.5t-63.5 11.5q-29 0 -62.5 -11.5t-66.5 -39.5zM498 596h362l-133 391l-39 176h-4l-45 -180z" />
<glyph unicode="&#xc4;" horiz-adv-x="1492" d="M0 0v78q33 20 71 35.5t74 23.5l529 1321h151l514 -1321q41 -8 82 -23.5t72 -35.5v-78h-641v78q39 18 84 34.5t86 24.5l-119 326h-454l-121 -326q94 -12 178 -59v-78h-506zM334 1624q0 66 47 98.5t119 32.5t119 -32.5t47 -98.5q0 -57 -47.5 -89t-118.5 -32q-72 0 -119 32 t-47 89zM498 596h362l-133 391l-39 176h-4l-45 -180zM836 1624q0 66 48 98.5t120 32.5t118.5 -32.5t46.5 -98.5q0 -57 -47 -89t-118 -32q-72 0 -120 32t-48 89z" />
<glyph unicode="&#xc5;" horiz-adv-x="1492" d="M0 0v78q33 20 71 35.5t74 23.5l525 1311q-70 10 -113 41q-70 47 -70 125q0 84 74 134t199 50q53 0 100 -11t83 -33.5t56.5 -55.5t20.5 -78q0 -80 -74 -129q-49 -33 -117 -45l510 -1309q41 -8 82 -23.5t72 -35.5v-78h-641v78q39 18 84 34.5t86 24.5l-119 326h-454 l-121 -326q94 -12 178 -59v-78h-506zM498 596h362l-133 391l-39 176h-4l-45 -180zM657 1614q0 -35 31 -52.5t62 -17.5q47 0 73.5 17.5t26.5 50.5q0 47 -27.5 65.5t-66.5 18.5q-43 0 -71 -18.5t-28 -63.5z" />
<glyph unicode="&#xc6;" horiz-adv-x="1964" d="M10 0v78q33 20 70 35.5t74 23.5l712 1170q-31 10 -61.5 21t-56.5 28v78h1097q-4 -92 -14 -190.5t-27 -184.5h-86l-94 241h-383v-501h252l90 157h64q10 -100 10 -223t-10 -229h-64l-90 162h-252v-533h399l109 260h86q8 -39 15.5 -88t13.5 -101t9 -105.5t3 -98.5h-1100v78 q33 16 74 32.5t84 26.5l4 363h-379l-211 -363q84 -16 158 -59v-78h-496zM635 633h303l6 584h-4l-74 -185z" />
<glyph unicode="&#xc7;" horiz-adv-x="1335" d="M80 719q0 195 58.5 335t156.5 230t228 132t274 42q135 0 244.5 -19.5t179.5 -52.5q0 -33 -3.5 -84t-10.5 -107t-16 -110.5t-17 -91.5h-87l-112 310q-18 10 -59.5 16t-84.5 6q-84 0 -157.5 -34t-131 -107.5t-90 -189t-32.5 -277.5q0 -293 116.5 -450.5t317.5 -157.5 q57 0 97 9t55 25l100 287h84q8 -33 15 -79t12.5 -98t7.5 -103.5t2 -92.5q-37 -25 -85 -40t-101.5 -24t-110 -13.5t-111.5 -4.5l-49 -118q123 -4 200 -48.5t77 -134.5q0 -68 -46.5 -117t-113 -80.5t-141 -46t-134.5 -14.5v95q72 10 118 40.5t44 88.5q-2 47 -35.5 73.5 t-120.5 30.5l74 240q-141 14 -253.5 64t-192.5 140.5t-123 222.5t-43 308z" />
<glyph unicode="&#xc8;" horiz-adv-x="1236" d="M41 0v78q35 18 78 34.5t90 24.5v1159q-41 8 -87 23.5t-81 36.5v78h1077q-4 -92 -14 -190.5t-27 -184.5h-84l-94 241h-383v-501h250l90 157h66q10 -100 10 -223t-10 -229h-66l-90 162h-250v-533h399l109 260h84q8 -39 16.5 -88t13.5 -101t8 -105.5t3 -98.5h-1108z M205 1722v41q6 18 44 33.5t86 27t94 16.5t69 -1l260 -274l-70 -39z" />
<glyph unicode="&#xc9;" horiz-adv-x="1236" d="M41 0v78q35 18 78 34.5t90 24.5v1159q-41 8 -87 23.5t-81 36.5v78h1077q-4 -92 -14 -190.5t-27 -184.5h-84l-94 241h-383v-501h250l90 157h66q10 -100 10 -223t-10 -229h-66l-90 162h-250v-533h399l109 260h84q8 -39 16.5 -88t13.5 -101t8 -105.5t3 -98.5h-1108z M451 1575l291 264q33 2 74.5 -4t81.5 -17.5t72 -25.5t44 -29v-41l-506 -196z" />
<glyph unicode="&#xca;" horiz-adv-x="1236" d="M41 0v78q35 18 78 34.5t90 24.5v1159q-41 8 -87 23.5t-81 36.5v78h1077q-4 -92 -14 -190.5t-27 -184.5h-84l-94 241h-383v-501h250l90 157h66q10 -100 10 -223t-10 -229h-66l-90 162h-250v-533h399l109 260h84q8 -39 16.5 -88t13.5 -101t8 -105.5t3 -98.5h-1108z M316 1579l260 240q20 10 63 10t64 -10l256 -234l-57 -61l-271 114l-258 -116z" />
<glyph unicode="&#xcb;" horiz-adv-x="1236" d="M41 0v78q35 18 78 34.5t90 24.5v1159q-41 8 -87 23.5t-81 36.5v78h1077q-4 -92 -14 -190.5t-27 -184.5h-84l-94 241h-383v-501h250l90 157h66q10 -100 10 -223t-10 -229h-66l-90 162h-250v-533h399l109 260h84q8 -39 16.5 -88t13.5 -101t8 -105.5t3 -98.5h-1108z M191 1624q0 66 47 98.5t119 32.5t119 -32.5t47 -98.5q0 -57 -47.5 -89t-118.5 -32q-72 0 -119 32t-47 89zM693 1624q0 66 48 98.5t120 32.5t118.5 -32.5t46.5 -98.5q0 -57 -47 -89t-118 -32q-72 0 -120 32t-48 89z" />
<glyph unicode="&#xcc;" horiz-adv-x="761" d="M61 0v78q82 45 166 59v1159q-41 6 -86 22.5t-80 37.5v78h639v-78q-37 -23 -81 -38t-84 -22v-1159q41 -8 85 -22.5t80 -36.5v-78h-639zM66 1722v41q6 18 44 33.5t86 27t94 16.5t69 -1l260 -274l-70 -39z" />
<glyph unicode="&#xcd;" horiz-adv-x="761" d="M61 0v78q82 45 166 59v1159q-41 6 -86 22.5t-80 37.5v78h639v-78q-37 -23 -81 -38t-84 -22v-1159q41 -8 85 -22.5t80 -36.5v-78h-639zM158 1575l291 264q33 2 74.5 -4t81.5 -17.5t72 -25.5t44 -29v-41l-506 -196z" />
<glyph unicode="&#xce;" horiz-adv-x="761" d="M61 0v78q82 45 166 59v1159q-41 6 -86 22.5t-80 37.5v78h639v-78q-37 -23 -81 -38t-84 -22v-1159q41 -8 85 -22.5t80 -36.5v-78h-639zM62 1579l260 240q20 10 63 10t64 -10l256 -234l-57 -61l-271 114l-258 -116z" />
<glyph unicode="&#xcf;" horiz-adv-x="761" d="M-35 1624q0 66 47 98.5t119 32.5t119 -32.5t47 -98.5q0 -57 -47.5 -89t-118.5 -32q-72 0 -119 32t-47 89zM61 0v78q82 45 166 59v1159q-41 6 -86 22.5t-80 37.5v78h639v-78q-37 -23 -81 -38t-84 -22v-1159q41 -8 85 -22.5t80 -36.5v-78h-639zM467 1624q0 66 48 98.5 t120 32.5t118.5 -32.5t46.5 -98.5q0 -57 -47 -89t-118 -32q-72 0 -120 32t-48 89z" />
<glyph unicode="&#xd0;" horiz-adv-x="1517" d="M45 674v123h174v499q-47 10 -91 25.5t-77 34.5v78h238q35 0 86 2t106.5 5t107.5 6t89 3q178 0 318.5 -47t237.5 -137t149.5 -223.5t52.5 -307.5q0 -170 -49.5 -309t-147.5 -237.5t-248.5 -152.5t-353.5 -54q-27 0 -72 3t-96 6t-102.5 6t-90.5 3h-225v78q35 20 78 35.5 t90 23.5v537h-174zM514 123q8 -2 28.5 -3t42 -2t42 -2t30.5 -1q119 0 202 49t136.5 133t78 196.5t24.5 239.5q0 113 -25.5 217.5t-79 186.5t-138.5 131t-204 49q-37 0 -73.5 -2t-63.5 -6v-512h313v-123h-313v-551z" />
<glyph unicode="&#xd1;" horiz-adv-x="1552" d="M41 0v78q37 25 81 46t91 36v1118q-41 16 -82 36.5t-74 43.5v76h443l587 -852l95 -176h8l-10 176v684q-49 16 -95.5 39.5t-80.5 50.5v78h507v-78q-39 -31 -86 -54.5t-88 -35.5v-1291h-174l-723 1045l-82 158h-6l19 -164v-854q41 -10 91 -34t85 -48v-78h-506zM432 1655 q156 139 276 139q37 0 71 -10t64.5 -22.5t61.5 -22.5t63 -10q27 0 60 9t65 31l45 -96q-66 -66 -123 -99.5t-131 -33.5q-39 0 -72.5 11.5t-66.5 23.5t-63.5 23.5t-63.5 11.5q-29 0 -62.5 -11.5t-66.5 -39.5z" />
<glyph unicode="&#xd2;" horiz-adv-x="1544" d="M80 717q0 160 45 296t133 235.5t217 154.5t297 55t297 -55t216 -154.5t132 -235.5t45 -296t-45 -296t-132 -235.5t-216 -155t-297 -55.5t-297 55.5t-217 155t-133 235.5t-45 296zM395 1722v41q6 18 44 33.5t86 27t94 16.5t69 -1l260 -274l-70 -39zM428 717 q0 -131 20.5 -243t64.5 -192.5t112.5 -126.5t165.5 -46q88 0 149 46t100 126.5t56.5 192.5t17.5 243t-19.5 242.5t-61.5 192.5t-110.5 127t-166.5 46q-94 0 -157.5 -46t-101.5 -127t-53.5 -192.5t-15.5 -242.5z" />
<glyph unicode="&#xd3;" horiz-adv-x="1544" d="M80 717q0 160 45 296t133 235.5t217 154.5t297 55t297 -55t216 -154.5t132 -235.5t45 -296t-45 -296t-132 -235.5t-216 -155t-297 -55.5t-297 55.5t-217 155t-133 235.5t-45 296zM428 717q0 -131 20.5 -243t64.5 -192.5t112.5 -126.5t165.5 -46q88 0 149 46t100 126.5 t56.5 192.5t17.5 243t-19.5 242.5t-61.5 192.5t-110.5 127t-166.5 46q-94 0 -157.5 -46t-101.5 -127t-53.5 -192.5t-15.5 -242.5zM580 1575l291 264q33 2 74.5 -4t81.5 -17.5t72 -25.5t44 -29v-41l-506 -196z" />
<glyph unicode="&#xd4;" horiz-adv-x="1544" d="M80 717q0 160 45 296t133 235.5t217 154.5t297 55t297 -55t216 -154.5t132 -235.5t45 -296t-45 -296t-132 -235.5t-216 -155t-297 -55.5t-297 55.5t-217 155t-133 235.5t-45 296zM428 717q0 -131 20.5 -243t64.5 -192.5t112.5 -126.5t165.5 -46q88 0 149 46t100 126.5 t56.5 192.5t17.5 243t-19.5 242.5t-61.5 192.5t-110.5 127t-166.5 46q-94 0 -157.5 -46t-101.5 -127t-53.5 -192.5t-15.5 -242.5zM451 1579l260 240q20 10 63 10t64 -10l256 -234l-57 -61l-271 114l-258 -116z" />
<glyph unicode="&#xd5;" horiz-adv-x="1544" d="M80 717q0 160 45 296t133 235.5t217 154.5t297 55t297 -55t216 -154.5t132 -235.5t45 -296t-45 -296t-132 -235.5t-216 -155t-297 -55.5t-297 55.5t-217 155t-133 235.5t-45 296zM420 1655q156 139 276 139q37 0 71 -10t64.5 -22.5t61.5 -22.5t63 -10q27 0 60 9t65 31 l45 -96q-66 -66 -123 -99.5t-131 -33.5q-39 0 -72.5 11.5t-66.5 23.5t-63.5 23.5t-63.5 11.5q-29 0 -62.5 -11.5t-66.5 -39.5zM428 717q0 -131 20.5 -243t64.5 -192.5t112.5 -126.5t165.5 -46q88 0 149 46t100 126.5t56.5 192.5t17.5 243t-19.5 242.5t-61.5 192.5 t-110.5 127t-166.5 46q-94 0 -157.5 -46t-101.5 -127t-53.5 -192.5t-15.5 -242.5z" />
<glyph unicode="&#xd6;" horiz-adv-x="1544" d="M80 717q0 160 45 296t133 235.5t217 154.5t297 55t297 -55t216 -154.5t132 -235.5t45 -296t-45 -296t-132 -235.5t-216 -155t-297 -55.5t-297 55.5t-217 155t-133 235.5t-45 296zM354 1624q0 66 47 98.5t119 32.5t119 -32.5t47 -98.5q0 -57 -47.5 -89t-118.5 -32 q-72 0 -119 32t-47 89zM428 717q0 -131 20.5 -243t64.5 -192.5t112.5 -126.5t165.5 -46q88 0 149 46t100 126.5t56.5 192.5t17.5 243t-19.5 242.5t-61.5 192.5t-110.5 127t-166.5 46q-94 0 -157.5 -46t-101.5 -127t-53.5 -192.5t-15.5 -242.5zM856 1624q0 66 48 98.5 t120 32.5t118.5 -32.5t46.5 -98.5q0 -57 -47 -89t-118 -32q-72 0 -120 32t-48 89z" />
<glyph unicode="&#xd7;" d="M193 436l266 269l-262 264l114 114l264 -262l269 266l114 -114l-266 -268l273 -273l-117 -117l-273 273l-268 -266z" />
<glyph unicode="&#xd8;" horiz-adv-x="1544" d="M80 717q0 160 45 296t133 235.5t217 154.5t297 55q98 0 182 -20.5t156 -57.5l55 90l129 -79l-59 -95q113 -100 170 -248.5t57 -330.5q0 -160 -45 -296t-132 -235.5t-216 -155t-297 -55.5q-98 0 -180 19.5t-154 54.5l-53 -86l-125 80l53 86q-117 100 -175 251t-58 337z M428 717q0 -92 14.5 -173t42.5 -147l510 807q-41 57 -100 89t-139 32q-94 0 -157.5 -46t-101.5 -127t-53.5 -192.5t-15.5 -242.5zM553 225q86 -117 238 -116q88 0 149 46t100 126.5t56.5 192.5t17.5 243q0 88 -12 166t-41 143z" />
<glyph unicode="&#xd9;" horiz-adv-x="1464" d="M14 1356v78h631v-78q-68 -43 -156 -60v-788q0 -100 23 -168t66 -110t103 -60t136 -18q68 0 124 19t98 62t64.5 113t22.5 172v768q-47 10 -97 28.5t-83 41.5v78h508v-78q-37 -27 -82 -43.5t-88 -26.5v-770q0 -262 -138 -398t-390 -136q-274 0 -424 122.5t-150 393.5v798 q-41 6 -86 21.5t-82 38.5zM373 1722v41q6 18 44 33.5t86 27t94 16.5t69 -1l260 -274l-70 -39z" />
<glyph unicode="&#xda;" horiz-adv-x="1464" d="M14 1356v78h631v-78q-68 -43 -156 -60v-788q0 -100 23 -168t66 -110t103 -60t136 -18q68 0 124 19t98 62t64.5 113t22.5 172v768q-47 10 -97 28.5t-83 41.5v78h508v-78q-37 -27 -82 -43.5t-88 -26.5v-770q0 -262 -138 -398t-390 -136q-274 0 -424 122.5t-150 393.5v798 q-41 6 -86 21.5t-82 38.5zM731 1575l291 264q33 2 74.5 -4t81.5 -17.5t72 -25.5t44 -29v-41l-506 -196z" />
<glyph unicode="&#xdb;" horiz-adv-x="1464" d="M14 1356v78h631v-78q-68 -43 -156 -60v-788q0 -100 23 -168t66 -110t103 -60t136 -18q68 0 124 19t98 62t64.5 113t22.5 172v768q-47 10 -97 28.5t-83 41.5v78h508v-78q-37 -27 -82 -43.5t-88 -26.5v-770q0 -262 -138 -398t-390 -136q-274 0 -424 122.5t-150 393.5v798 q-41 6 -86 21.5t-82 38.5zM481 1579l260 240q20 10 63 10t64 -10l256 -234l-57 -61l-271 114l-258 -116z" />
<glyph unicode="&#xdc;" horiz-adv-x="1464" d="M14 1356v78h631v-78q-68 -43 -156 -60v-788q0 -100 23 -168t66 -110t103 -60t136 -18q68 0 124 19t98 62t64.5 113t22.5 172v768q-47 10 -97 28.5t-83 41.5v78h508v-78q-37 -27 -82 -43.5t-88 -26.5v-770q0 -262 -138 -398t-390 -136q-274 0 -424 122.5t-150 393.5v798 q-41 6 -86 21.5t-82 38.5zM381 1624q0 66 47 98.5t119 32.5t119 -32.5t47 -98.5q0 -57 -47.5 -89t-118.5 -32q-72 0 -119 32t-47 89zM883 1624q0 66 48 98.5t120 32.5t118.5 -32.5t46.5 -98.5q0 -57 -47 -89t-118 -32q-72 0 -120 32t-48 89z" />
<glyph unicode="&#xdd;" horiz-adv-x="1429" d="M0 1356v78h672v-78q-29 -16 -66 -32.5t-86 -27.5l293 -548l279 548q-47 10 -90.5 26.5t-73.5 33.5v78h502v-78q-31 -18 -69 -35.5t-77 -24.5l-397 -696v-463q41 -4 81 -21.5t74 -37.5v-78h-630v78q35 18 77.5 34.5t90.5 24.5v461l-414 698q-47 8 -89 24.5t-77 35.5z M721 1575l291 264q33 2 74.5 -4t81.5 -17.5t72 -25.5t44 -29v-41l-506 -196z" />
<glyph unicode="&#xde;" horiz-adv-x="1302" d="M41 0v68q39 23 83 37t85 22v1180q-41 6 -86 22.5t-80 36.5v68h639v-68q-37 -23 -81 -38t-85 -21v-93q41 4 90 7.5t88 3.5q109 0 208 -21.5t176 -71t122 -130t45 -201.5q0 -115 -46 -199t-125 -139t-181 -83t-213 -28h-32.5t-48.5 1t-49.5 2t-33.5 3v-229 q55 -6 109.5 -23.5t97.5 -37.5v-68h-682zM516 494q18 -6 55 -7.5t60 -1.5q55 0 104 17.5t88 54.5t61.5 94.5t22.5 139.5q0 154 -74.5 227.5t-205.5 73.5q-41 0 -64.5 -3.5t-46.5 -9.5v-585z" />
<glyph unicode="&#xdf;" horiz-adv-x="1435" d="M47 895v80q72 45 156 67v72q0 127 52 210t131 131t172 66.5t177 18.5q236 0 354.5 -99.5t122.5 -262.5q-61 -10 -118.5 -27.5t-101.5 -47.5t-70.5 -73t-26.5 -104q0 -63 36 -111.5t91 -91.5t117.5 -85t118 -93t91 -114.5t35.5 -147.5q0 -143 -107.5 -225.5t-313.5 -82.5 q-98 0 -197.5 20.5t-175.5 57.5q4 61 20.5 109.5t38.5 83.5h70l141 -135q23 -12 45.5 -15.5t46.5 -3.5q66 0 112 35t46 96q0 59 -36 103.5t-91 85.5t-117.5 82t-118 92t-91 116.5t-35.5 157.5q0 123 88 208t229 128q0 104 -57.5 165.5t-145.5 61.5q-45 0 -88 -10t-75.5 -44 t-53 -98.5t-20.5 -170.5v-1100h-430v80q63 37 135 49v766h-156z" />
<glyph unicode="&#xe0;" horiz-adv-x="1140" d="M55 260q0 92 35 151.5t109.5 97.5t192.5 56.5t286 26.5q16 176 -14.5 258t-133.5 82q-63 0 -116 -21l-97 -245h-90q-16 25 -31.5 56.5t-28.5 67t-22.5 72.5t-13.5 72q78 53 201 84t260 31q117 0 190.5 -26t115.5 -70t58.5 -103t16.5 -127q0 -123 -5 -222.5t-5 -203.5 q0 -45 1 -78t5 -69l141 -21v-72q-25 -12 -67 -24.5t-88 -23.5t-91 -18t-80 -11h-69q-20 47 -24.5 94t-6.5 114h-10q-10 -41 -35 -78.5t-62.5 -67.5t-89 -48.5t-114.5 -18.5q-68 0 -125.5 20.5t-100.5 57.5t-67.5 89.5t-24.5 117.5zM252 1458v60q12 12 53 23t87 17.5t87 7.5 t56 -3l190 -357l-92 -45zM362 303q0 -78 37 -121t103 -43q43 0 73.5 16.5t52 39t33 49t17.5 47.5v205q-96 -2 -157.5 -12.5t-96.5 -34t-48.5 -59.5t-13.5 -87z" />
<glyph unicode="&#xe1;" horiz-adv-x="1140" d="M55 260q0 92 35 151.5t109.5 97.5t192.5 56.5t286 26.5q16 176 -14.5 258t-133.5 82q-63 0 -116 -21l-97 -245h-90q-16 25 -31.5 56.5t-28.5 67t-22.5 72.5t-13.5 72q78 53 201 84t260 31q117 0 190.5 -26t115.5 -70t58.5 -103t16.5 -127q0 -123 -5 -222.5t-5 -203.5 q0 -45 1 -78t5 -69l141 -21v-72q-25 -12 -67 -24.5t-88 -23.5t-91 -18t-80 -11h-69q-20 47 -24.5 94t-6.5 114h-10q-10 -41 -35 -78.5t-62.5 -67.5t-89 -48.5t-114.5 -18.5q-68 0 -125.5 20.5t-100.5 57.5t-67.5 89.5t-24.5 117.5zM362 303q0 -78 37 -121t103 -43 q43 0 73.5 16.5t52 39t33 49t17.5 47.5v205q-96 -2 -157.5 -12.5t-96.5 -34t-48.5 -59.5t-13.5 -87zM426 1196l221 367q16 4 54 3t79 -7.5t75 -17.5t44 -23v-50l-391 -317z" />
<glyph unicode="&#xe2;" horiz-adv-x="1140" d="M55 260q0 92 35 151.5t109.5 97.5t192.5 56.5t286 26.5q16 176 -14.5 258t-133.5 82q-63 0 -116 -21l-97 -245h-90q-16 25 -31.5 56.5t-28.5 67t-22.5 72.5t-13.5 72q78 53 201 84t260 31q117 0 190.5 -26t115.5 -70t58.5 -103t16.5 -127q0 -123 -5 -222.5t-5 -203.5 q0 -45 1 -78t5 -69l141 -21v-72q-25 -12 -67 -24.5t-88 -23.5t-91 -18t-80 -11h-69q-20 47 -24.5 94t-6.5 114h-10q-10 -41 -35 -78.5t-62.5 -67.5t-89 -48.5t-114.5 -18.5q-68 0 -125.5 20.5t-100.5 57.5t-67.5 89.5t-24.5 117.5zM295 1233l225 381q12 10 50 11t57 -11 l233 -379l-84 -53l-211 200l-184 -200zM362 303q0 -78 37 -121t103 -43q43 0 73.5 16.5t52 39t33 49t17.5 47.5v205q-96 -2 -157.5 -12.5t-96.5 -34t-48.5 -59.5t-13.5 -87z" />
<glyph unicode="&#xe3;" horiz-adv-x="1140" d="M55 260q0 92 35 151.5t109.5 97.5t192.5 56.5t286 26.5q16 176 -14.5 258t-133.5 82q-63 0 -116 -21l-97 -245h-90q-16 25 -31.5 56.5t-28.5 67t-22.5 72.5t-13.5 72q78 53 201 84t260 31q117 0 190.5 -26t115.5 -70t58.5 -103t16.5 -127q0 -123 -5 -222.5t-5 -203.5 q0 -45 1 -78t5 -69l141 -21v-72q-25 -12 -67 -24.5t-88 -23.5t-91 -18t-80 -11h-69q-20 47 -24.5 94t-6.5 114h-10q-10 -41 -35 -78.5t-62.5 -67.5t-89 -48.5t-114.5 -18.5q-68 0 -125.5 20.5t-100.5 57.5t-67.5 89.5t-24.5 117.5zM213 1348q76 78 144.5 108.5t115.5 30.5 q37 0 68.5 -10.5t60.5 -22.5t58.5 -22.5t60.5 -10.5q27 0 53.5 5.5t58.5 25.5l45 -86q-61 -70 -126.5 -101.5t-112.5 -31.5q-37 0 -70 11t-63.5 23.5t-60 24t-60.5 11.5q-27 0 -54.5 -9.5t-60.5 -31.5zM362 303q0 -78 37 -121t103 -43q43 0 73.5 16.5t52 39t33 49t17.5 47.5 v205q-96 -2 -157.5 -12.5t-96.5 -34t-48.5 -59.5t-13.5 -87z" />
<glyph unicode="&#xe4;" horiz-adv-x="1140" d="M55 260q0 92 35 151.5t109.5 97.5t192.5 56.5t286 26.5q16 176 -14.5 258t-133.5 82q-63 0 -116 -21l-97 -245h-90q-16 25 -31.5 56.5t-28.5 67t-22.5 72.5t-13.5 72q78 53 201 84t260 31q117 0 190.5 -26t115.5 -70t58.5 -103t16.5 -127q0 -123 -5 -222.5t-5 -203.5 q0 -45 1 -78t5 -69l141 -21v-72q-25 -12 -67 -24.5t-88 -23.5t-91 -18t-80 -11h-69q-20 47 -24.5 94t-6.5 114h-10q-10 -41 -35 -78.5t-62.5 -67.5t-89 -48.5t-114.5 -18.5q-68 0 -125.5 20.5t-100.5 57.5t-67.5 89.5t-24.5 117.5zM152 1350q0 66 41 104.5t108 38.5 q66 0 108 -39t42 -104q0 -61 -42 -100.5t-108 -39.5q-68 0 -108.5 39.5t-40.5 100.5zM362 303q0 -78 37 -121t103 -43q43 0 73.5 16.5t52 39t33 49t17.5 47.5v205q-96 -2 -157.5 -12.5t-96.5 -34t-48.5 -59.5t-13.5 -87zM641 1350q0 66 41 104.5t107 38.5q68 0 109.5 -39 t41.5 -104q0 -61 -42 -100.5t-109 -39.5q-66 0 -107 39.5t-41 100.5z" />
<glyph unicode="&#xe5;" horiz-adv-x="1140" d="M55 260q0 92 35 151.5t109.5 97.5t192.5 56.5t286 26.5q16 176 -14.5 258t-133.5 82q-63 0 -116 -21l-97 -245h-90q-16 25 -31.5 56.5t-28.5 67t-22.5 72.5t-13.5 72q78 53 201 84t260 31q117 0 190.5 -26t115.5 -70t58.5 -103t16.5 -127q0 -123 -5 -222.5t-5 -203.5 q0 -45 1 -78t5 -69l141 -21v-72q-25 -12 -67 -24.5t-88 -23.5t-91 -18t-80 -11h-69q-20 47 -24.5 94t-6.5 114h-10q-10 -41 -35 -78.5t-62.5 -67.5t-89 -48.5t-114.5 -18.5q-68 0 -125.5 20.5t-100.5 57.5t-67.5 89.5t-24.5 117.5zM316 1391q0 84 62.5 145t179.5 61 q109 0 169 -55t60 -145q0 -86 -63.5 -143.5t-168.5 -57.5q-119 0 -179 54.5t-60 140.5zM362 303q0 -78 37 -121t103 -43q43 0 73.5 16.5t52 39t33 49t17.5 47.5v205q-96 -2 -157.5 -12.5t-96.5 -34t-48.5 -59.5t-13.5 -87zM469 1395q0 -47 23 -72t57 -25q84 0 84 91 q0 55 -23.5 80.5t-58.5 25.5q-82 0 -82 -100z" />
<glyph unicode="&#xe6;" horiz-adv-x="1685" d="M55 260q0 92 34 151.5t108.5 97.5t192.5 56.5t286 26.5q16 176 -13.5 258t-132.5 82q-63 0 -116 -21l-97 -245h-90q-16 25 -31.5 56.5t-28.5 67t-22.5 72.5t-13.5 72q78 53 201 84t260 31q125 0 186 -27t90 -70q35 37 102.5 67t196.5 30q104 0 195.5 -29t152 -94.5 t84 -172t-3.5 -259.5h-628q2 -162 84 -258.5t237 -96.5q70 0 141.5 20.5t112.5 53.5l39 -41q-16 -35 -52 -70.5t-88 -63.5t-121 -45.5t-149 -17.5q-135 0 -251.5 50.5t-188.5 167.5q-14 -43 -48 -83t-82 -70t-106.5 -47.5t-121.5 -17.5q-68 0 -125.5 20.5t-100.5 57.5 t-67.5 89.5t-24.5 117.5zM362 303q0 -78 37 -121t103 -43q43 0 73.5 15.5t51 38t32 48t17.5 46.5v209q-96 -2 -156.5 -12.5t-95.5 -34t-48.5 -59.5t-13.5 -87zM973 600h330q14 160 -19 246t-125 86q-41 0 -72.5 -14.5t-55 -52.5t-38 -102.5t-20.5 -162.5z" />
<glyph unicode="&#xe7;" horiz-adv-x="991" d="M63 512q0 260 142.5 398.5t404.5 138.5q100 0 184.5 -21.5t139.5 -50.5q-4 -35 -11.5 -77t-16.5 -84t-21.5 -82t-24.5 -66h-100l-86 243q-14 10 -30.5 15.5t-49.5 5.5q-53 0 -92 -19.5t-66.5 -66.5t-41 -125t-13.5 -193q0 -84 18.5 -154.5t56.5 -122.5t95 -82t135 -30 q72 0 125 20.5t90 49.5l33 -43q-14 -41 -48 -75t-81 -60.5t-105.5 -41t-121.5 -14.5l-43 -114q123 -6 187 -44t66 -112q0 -59 -34.5 -102t-92 -72t-129 -43t-143.5 -14v80q143 23 143 116q-2 47 -39.5 67.5t-109.5 29.5l78 219q-207 31 -302.5 171t-95.5 355z" />
<glyph unicode="&#xe8;" horiz-adv-x="1099" d="M63 512q0 262 137.5 399.5t381.5 137.5q104 0 195 -29t151.5 -94.5t84 -172t-2.5 -259.5h-629q2 -162 83 -258.5t238 -96.5q68 0 140.5 20.5t113.5 53.5l39 -41q-16 -35 -52 -70.5t-88 -63.5t-120.5 -45.5t-148.5 -17.5q-127 0 -225.5 38t-164 109t-99.5 169t-34 221z M256 1458v60q12 12 53 23t87 17.5t87 7.5t56 -3l190 -357l-92 -45zM387 600h330q14 160 -19 246t-125 86q-41 0 -72.5 -14.5t-55 -52.5t-38 -102.5t-20.5 -162.5z" />
<glyph unicode="&#xe9;" horiz-adv-x="1099" d="M63 512q0 262 137.5 399.5t381.5 137.5q104 0 195 -29t151.5 -94.5t84 -172t-2.5 -259.5h-629q2 -162 83 -258.5t238 -96.5q68 0 140.5 20.5t113.5 53.5l39 -41q-16 -35 -52 -70.5t-88 -63.5t-120.5 -45.5t-148.5 -17.5q-127 0 -225.5 38t-164 109t-99.5 169t-34 221z M387 600h330q14 160 -19 246t-125 86q-41 0 -72.5 -14.5t-55 -52.5t-38 -102.5t-20.5 -162.5zM410 1196l221 367q16 4 54 3t79 -7.5t75 -17.5t44 -23v-50l-391 -317z" />
<glyph unicode="&#xea;" horiz-adv-x="1099" d="M63 512q0 262 137.5 399.5t381.5 137.5q104 0 195 -29t151.5 -94.5t84 -172t-2.5 -259.5h-629q2 -162 83 -258.5t238 -96.5q68 0 140.5 20.5t113.5 53.5l39 -41q-16 -35 -52 -70.5t-88 -63.5t-120.5 -45.5t-148.5 -17.5q-127 0 -225.5 38t-164 109t-99.5 169t-34 221z M289 1233l225 381q12 10 50 11t57 -11l233 -379l-84 -53l-211 200l-184 -200zM387 600h330q14 160 -19 246t-125 86q-41 0 -72.5 -14.5t-55 -52.5t-38 -102.5t-20.5 -162.5z" />
<glyph unicode="&#xeb;" horiz-adv-x="1099" d="M63 512q0 262 137.5 399.5t381.5 137.5q104 0 195 -29t151.5 -94.5t84 -172t-2.5 -259.5h-629q2 -162 83 -258.5t238 -96.5q68 0 140.5 20.5t113.5 53.5l39 -41q-16 -35 -52 -70.5t-88 -63.5t-120.5 -45.5t-148.5 -17.5q-127 0 -225.5 38t-164 109t-99.5 169t-34 221z M170 1350q0 66 41 104.5t108 38.5q66 0 108 -39t42 -104q0 -61 -42 -100.5t-108 -39.5q-68 0 -108.5 39.5t-40.5 100.5zM387 600h330q14 160 -19 246t-125 86q-41 0 -72.5 -14.5t-55 -52.5t-38 -102.5t-20.5 -162.5zM659 1350q0 66 41 104.5t107 38.5q68 0 109.5 -39 t41.5 -104q0 -61 -42 -100.5t-109 -39.5q-66 0 -107 39.5t-41 100.5z" />
<glyph unicode="&#xec;" horiz-adv-x="679" d="M4 1458v60q12 12 53 23t87 17.5t87 7.5t56 -3l190 -357l-92 -45zM63 0v80q31 16 64 27.5t72 21.5v750l-136 16v80q31 12 77 24.5t97.5 21.5t100.5 16t86 12h70v-920q41 -10 73.5 -21.5t61.5 -27.5v-80h-566z" />
<glyph unicode="&#xed;" horiz-adv-x="679" d="M63 0v80q31 16 64 27.5t72 21.5v750l-136 16v80q31 12 77 24.5t97.5 21.5t100.5 16t86 12h70v-920q41 -10 73.5 -21.5t61.5 -27.5v-80h-566zM166 1196l221 367q16 4 54 3t79 -7.5t75 -17.5t44 -23v-50l-391 -317z" />
<glyph unicode="&#xee;" horiz-adv-x="679" d="M53 1233l225 381q12 10 50 11t57 -11l233 -379l-84 -53l-211 200l-184 -200zM63 0v80q31 16 64 27.5t72 21.5v750l-136 16v80q31 12 77 24.5t97.5 21.5t100.5 16t86 12h70v-920q41 -10 73.5 -21.5t61.5 -27.5v-80h-566z" />
<glyph unicode="&#xef;" horiz-adv-x="679" d="M-49 1350q0 66 41 104.5t108 38.5q66 0 108 -39t42 -104q0 -61 -42 -100.5t-108 -39.5q-68 0 -108.5 39.5t-40.5 100.5zM63 0v80q31 16 64 27.5t72 21.5v750l-136 16v80q31 12 77 24.5t97.5 21.5t100.5 16t86 12h70v-920q41 -10 73.5 -21.5t61.5 -27.5v-80h-566z M440 1350q0 66 41 104.5t107 38.5q68 0 109.5 -39t41.5 -104q0 -61 -42 -100.5t-109 -39.5q-66 0 -107 39.5t-41 100.5z" />
<glyph unicode="&#xf0;" horiz-adv-x="1181" d="M49 496q0 137 40 241.5t106.5 173t150.5 103.5t172 35q104 0 164.5 -35t105.5 -84q-23 74 -58.5 150.5t-86.5 148.5l-227 -94l-58 114l197 80q-51 49 -110.5 89t-125.5 65v53h199q113 -35 227 -127l201 82l55 -115l-151 -63q57 -63 106.5 -141t86 -169.5t58 -194.5 t21.5 -216q0 -133 -33.5 -247t-101 -195.5t-169 -128t-234.5 -46.5q-125 0 -224.5 38t-168 107.5t-105.5 165t-37 210.5zM367 496q0 -84 13 -156t42 -125t72 -84t104 -31q113 0 160 118t47 343q0 109 -6 170.5t-17 87.5q-59 76 -190 76q-51 0 -92 -20.5t-71 -67.5 t-46 -123.5t-16 -187.5z" />
<glyph unicode="&#xf1;" horiz-adv-x="1318" d="M47 0v80q51 27 135 49v750l-135 16v80q27 12 70 23.5t93 21.5t102.5 17t95.5 12h69v-211h2q43 86 129 148.5t209 62.5q80 0 143.5 -19.5t107.5 -69t67.5 -132.5t23.5 -210v-489q82 -14 135 -49v-80h-542v80q27 14 52 25.5t60 23.5v481q0 129 -36.5 202t-131.5 73 q-78 0 -134 -50.5t-85 -136.5v-569q33 -8 58.5 -19.5t54.5 -29.5v-80h-543zM332 1348q76 78 144.5 108.5t115.5 30.5q37 0 68.5 -10.5t60.5 -22.5t58.5 -22.5t60.5 -10.5q27 0 53.5 5.5t58.5 25.5l45 -86q-61 -70 -126.5 -101.5t-112.5 -31.5q-37 0 -70 11t-63.5 23.5 t-60 24t-60.5 11.5q-27 0 -54.5 -9.5t-60.5 -31.5z" />
<glyph unicode="&#xf2;" horiz-adv-x="1216" d="M63 512q0 125 38 224.5t109 169t171 106.5t227 37q143 0 246.5 -40t170.5 -111t97.5 -170t30.5 -216q0 -125 -37 -224.5t-107.5 -169t-172 -106.5t-228.5 -37q-139 0 -241.5 40t-170 111t-100.5 170t-33 216zM295 1458v60q12 12 53 23t87 17.5t87 7.5t56 -3l190 -357 l-92 -45zM381 512q0 -92 11 -169t40 -130t78 -83t127 -30q45 0 82 21.5t63.5 70t40 127t13.5 193.5q0 94 -11.5 170t-39 129t-74.5 83t-119 30q-53 0 -92 -21.5t-65.5 -70t-40 -127t-13.5 -193.5z" />
<glyph unicode="&#xf3;" horiz-adv-x="1216" d="M63 512q0 125 38 224.5t109 169t171 106.5t227 37q143 0 246.5 -40t170.5 -111t97.5 -170t30.5 -216q0 -125 -37 -224.5t-107.5 -169t-172 -106.5t-228.5 -37q-139 0 -241.5 40t-170 111t-100.5 170t-33 216zM381 512q0 -92 11 -169t40 -130t78 -83t127 -30q45 0 82 21.5 t63.5 70t40 127t13.5 193.5q0 94 -11.5 170t-39 129t-74.5 83t-119 30q-53 0 -92 -21.5t-65.5 -70t-40 -127t-13.5 -193.5zM469 1196l221 367q16 4 54 3t79 -7.5t75 -17.5t44 -23v-50l-391 -317z" />
<glyph unicode="&#xf4;" horiz-adv-x="1216" d="M63 512q0 125 38 224.5t109 169t171 106.5t227 37q143 0 246.5 -40t170.5 -111t97.5 -170t30.5 -216q0 -125 -37 -224.5t-107.5 -169t-172 -106.5t-228.5 -37q-139 0 -241.5 40t-170 111t-100.5 170t-33 216zM324 1233l225 381q12 10 50 11t57 -11l233 -379l-84 -53 l-211 200l-184 -200zM381 512q0 -92 11 -169t40 -130t78 -83t127 -30q45 0 82 21.5t63.5 70t40 127t13.5 193.5q0 94 -11.5 170t-39 129t-74.5 83t-119 30q-53 0 -92 -21.5t-65.5 -70t-40 -127t-13.5 -193.5z" />
<glyph unicode="&#xf5;" horiz-adv-x="1216" d="M63 512q0 125 38 224.5t109 169t171 106.5t227 37q143 0 246.5 -40t170.5 -111t97.5 -170t30.5 -216q0 -125 -37 -224.5t-107.5 -169t-172 -106.5t-228.5 -37q-139 0 -241.5 40t-170 111t-100.5 170t-33 216zM275 1348q76 78 144.5 108.5t115.5 30.5q37 0 68.5 -10.5 t60.5 -22.5t58.5 -22.5t60.5 -10.5q27 0 53.5 5.5t58.5 25.5l45 -86q-61 -70 -126.5 -101.5t-112.5 -31.5q-37 0 -70 11t-63.5 23.5t-60 24t-60.5 11.5q-27 0 -54.5 -9.5t-60.5 -31.5zM381 512q0 -92 11 -169t40 -130t78 -83t127 -30q45 0 82 21.5t63.5 70t40 127 t13.5 193.5q0 94 -11.5 170t-39 129t-74.5 83t-119 30q-53 0 -92 -21.5t-65.5 -70t-40 -127t-13.5 -193.5z" />
<glyph unicode="&#xf6;" horiz-adv-x="1216" d="M63 512q0 125 38 224.5t109 169t171 106.5t227 37q143 0 246.5 -40t170.5 -111t97.5 -170t30.5 -216q0 -125 -37 -224.5t-107.5 -169t-172 -106.5t-228.5 -37q-139 0 -241.5 40t-170 111t-100.5 170t-33 216zM215 1350q0 66 41 104.5t108 38.5q66 0 108 -39t42 -104 q0 -61 -42 -100.5t-108 -39.5q-68 0 -108.5 39.5t-40.5 100.5zM381 512q0 -92 11 -169t40 -130t78 -83t127 -30q45 0 82 21.5t63.5 70t40 127t13.5 193.5q0 94 -11.5 170t-39 129t-74.5 83t-119 30q-53 0 -92 -21.5t-65.5 -70t-40 -127t-13.5 -193.5zM704 1350 q0 66 41 104.5t107 38.5q68 0 109.5 -39t41.5 -104q0 -61 -42 -100.5t-109 -39.5q-66 0 -107 39.5t-41 100.5z" />
<glyph unicode="&#xf7;" d="M117 627v164h921v-164h-921zM403 317q0 74 47.5 119t124.5 45q78 0 127.5 -45t49.5 -119t-49.5 -117.5t-127.5 -43.5t-125 43.5t-47 117.5zM403 1098q0 74 47.5 119t124.5 45q78 0 127.5 -45.5t49.5 -118.5q0 -74 -49.5 -118t-127.5 -44t-125 44t-47 118z" />
<glyph unicode="&#xf8;" horiz-adv-x="1216" d="M63 512q0 125 38 224.5t109 169t171 106.5t227 37q80 0 146.5 -13.5t122.5 -38.5l90 129l110 -77l-86 -121q84 -72 123 -178.5t39 -237.5q0 -125 -37 -224.5t-107.5 -169t-172 -106.5t-228.5 -37q-147 0 -258 48l-98 -142l-109 80l90 129q-88 72 -129 179.5t-41 242.5z M381 512q0 -53 6 -99t23 -83l356 514q-29 41 -71 64.5t-103 23.5q-109 0 -160 -95.5t-51 -324.5zM457 170q61 -78 186 -78q96 0 144.5 95.5t48.5 324.5q0 96 -27 168z" />
<glyph unicode="&#xf9;" horiz-adv-x="1273" d="M23 895v80q33 12 81 24.5t99 21.5t99 16t81 12h70q0 -154 -6.5 -302.5t-6.5 -291.5q0 -168 34 -242t126 -74q63 0 117.5 48.5t89.5 154.5v537l-133 16v80q31 12 77 24.5t96 21.5t99 16t86 12h70v-904l135 -16v-72q-29 -12 -72 -24.5t-90 -23.5t-93 -18t-83 -11h-70 l-14 243h-8q-10 -43 -37 -87t-69 -80t-99 -58.5t-127 -22.5q-78 0 -138.5 19.5t-103.5 69t-65.5 132.5t-22.5 210q0 129 6.5 239.5t6.5 233.5zM322 1458v60q12 12 53 23t87 17.5t87 7.5t56 -3l190 -357l-92 -45z" />
<glyph unicode="&#xfa;" horiz-adv-x="1273" d="M23 895v80q33 12 81 24.5t99 21.5t99 16t81 12h70q0 -154 -6.5 -302.5t-6.5 -291.5q0 -168 34 -242t126 -74q63 0 117.5 48.5t89.5 154.5v537l-133 16v80q31 12 77 24.5t96 21.5t99 16t86 12h70v-904l135 -16v-72q-29 -12 -72 -24.5t-90 -23.5t-93 -18t-83 -11h-70 l-14 243h-8q-10 -43 -37 -87t-69 -80t-99 -58.5t-127 -22.5q-78 0 -138.5 19.5t-103.5 69t-65.5 132.5t-22.5 210q0 129 6.5 239.5t6.5 233.5zM465 1196l221 367q16 4 54 3t79 -7.5t75 -17.5t44 -23v-50l-391 -317z" />
<glyph unicode="&#xfb;" horiz-adv-x="1273" d="M23 895v80q33 12 81 24.5t99 21.5t99 16t81 12h70q0 -154 -6.5 -302.5t-6.5 -291.5q0 -168 34 -242t126 -74q63 0 117.5 48.5t89.5 154.5v537l-133 16v80q31 12 77 24.5t96 21.5t99 16t86 12h70v-904l135 -16v-72q-29 -12 -72 -24.5t-90 -23.5t-93 -18t-83 -11h-70 l-14 243h-8q-10 -43 -37 -87t-69 -80t-99 -58.5t-127 -22.5q-78 0 -138.5 19.5t-103.5 69t-65.5 132.5t-22.5 210q0 129 6.5 239.5t6.5 233.5zM346 1233l225 381q12 10 50 11t57 -11l233 -379l-84 -53l-211 200l-184 -200z" />
<glyph unicode="&#xfc;" horiz-adv-x="1273" d="M23 895v80q33 12 81 24.5t99 21.5t99 16t81 12h70q0 -154 -6.5 -302.5t-6.5 -291.5q0 -168 34 -242t126 -74q63 0 117.5 48.5t89.5 154.5v537l-133 16v80q31 12 77 24.5t96 21.5t99 16t86 12h70v-904l135 -16v-72q-29 -12 -72 -24.5t-90 -23.5t-93 -18t-83 -11h-70 l-14 243h-8q-10 -43 -37 -87t-69 -80t-99 -58.5t-127 -22.5q-78 0 -138.5 19.5t-103.5 69t-65.5 132.5t-22.5 210q0 129 6.5 239.5t6.5 233.5zM232 1350q0 66 41 104.5t108 38.5q66 0 108 -39t42 -104q0 -61 -42 -100.5t-108 -39.5q-68 0 -108.5 39.5t-40.5 100.5zM721 1350 q0 66 41 104.5t107 38.5q68 0 109.5 -39t41.5 -104q0 -61 -42 -100.5t-109 -39.5q-66 0 -107 39.5t-41 100.5z" />
<glyph unicode="&#xfd;" horiz-adv-x="1081" d="M-31 944v80h539v-78q-43 -29 -117 -51l207 -514l35 -131h4l33 133l159 512q-61 12 -112 49v80h395v-80q-43 -29 -117 -49l-333 -895q-49 -131 -98.5 -214t-98.5 -132t-98.5 -68.5t-98.5 -25.5q-20 18 -36.5 45.5t-29 59.5t-20.5 64.5t-10 61.5l27 49h250q18 29 31.5 61.5 t31.5 98.5l-434 895q-31 8 -56.5 20.5t-52.5 28.5zM416 1196l221 367q16 4 54 3t79 -7.5t75 -17.5t44 -23v-50l-391 -317z" />
<glyph unicode="&#xfe;" horiz-adv-x="1247" d="M20 1386v80q27 12 74 24.5t101.5 22t108.5 16.5t97 11h70v-721h2q35 98 109.5 164t208.5 66q90 0 162.5 -30t122.5 -92.5t78 -159.5t28 -232q0 -129 -36 -233.5t-102.5 -176.5t-162 -111t-215.5 -39q-70 0 -110 9.5t-85 31.5v-297q33 -4 65.5 -15t69.5 -34v-80h-565v80 q70 33 135 49v1651zM471 139q33 -25 70 -36t96 -11q117 0 172 112.5t55 330.5q0 168 -41.5 259t-150.5 91q-70 0 -124 -49.5t-77 -151.5v-545z" />
<glyph unicode="&#xff;" horiz-adv-x="1081" d="M-31 944v80h539v-78q-43 -29 -117 -51l207 -514l35 -131h4l33 133l159 512q-61 12 -112 49v80h395v-80q-43 -29 -117 -49l-333 -895q-49 -131 -98.5 -214t-98.5 -132t-98.5 -68.5t-98.5 -25.5q-20 18 -36.5 45.5t-29 59.5t-20.5 64.5t-10 61.5l27 49h250q18 29 31.5 61.5 t31.5 98.5l-434 895q-31 8 -56.5 20.5t-52.5 28.5zM178 1350q0 66 41 104.5t108 38.5q66 0 108 -39t42 -104q0 -61 -42 -100.5t-108 -39.5q-68 0 -108.5 39.5t-40.5 100.5zM667 1350q0 66 41 104.5t107 38.5q68 0 109.5 -39t41.5 -104q0 -61 -42 -100.5t-109 -39.5 q-66 0 -107 39.5t-41 100.5z" />
<glyph unicode="&#x100;" horiz-adv-x="1492" d="M0 0v78q33 20 71 35.5t74 23.5l529 1321h151l514 -1321q41 -8 82 -23.5t72 -35.5v-78h-641v78q39 18 84 34.5t86 24.5l-119 326h-454l-121 -326q94 -12 178 -59v-78h-506zM422 1595v144h663v-144h-663zM498 596h362l-133 391l-39 176h-4l-45 -180z" />
<glyph unicode="&#x101;" horiz-adv-x="1140" d="M55 260q0 92 35 151.5t109.5 97.5t192.5 56.5t286 26.5q16 176 -14.5 258t-133.5 82q-63 0 -116 -21l-97 -245h-90q-16 25 -31.5 56.5t-28.5 67t-22.5 72.5t-13.5 72q78 53 201 84t260 31q117 0 190.5 -26t115.5 -70t58.5 -103t16.5 -127q0 -123 -5 -222.5t-5 -203.5 q0 -45 1 -78t5 -69l141 -21v-72q-25 -12 -67 -24.5t-88 -23.5t-91 -18t-80 -11h-69q-20 47 -24.5 94t-6.5 114h-10q-10 -41 -35 -78.5t-62.5 -67.5t-89 -48.5t-114.5 -18.5q-68 0 -125.5 20.5t-100.5 57.5t-67.5 89.5t-24.5 117.5zM260 1268v143h602v-143h-602zM362 303 q0 -78 37 -121t103 -43q43 0 73.5 16.5t52 39t33 49t17.5 47.5v205q-96 -2 -157.5 -12.5t-96.5 -34t-48.5 -59.5t-13.5 -87z" />
<glyph unicode="&#x102;" horiz-adv-x="1492" d="M0 0v78q33 20 71 35.5t74 23.5l529 1321h151l514 -1321q41 -8 82 -23.5t72 -35.5v-78h-641v78q39 18 84 34.5t86 24.5l-119 326h-454l-121 -326q94 -12 178 -59v-78h-506zM406 1794q14 25 44 39t60 10q14 -23 44 -41t65 -30.5t72.5 -19.5t68.5 -7q33 0 70 4t70.5 15.5 t63.5 28.5t50 44q14 2 42 -12.5t42 -34.5q-18 -45 -49 -87t-74 -75t-98 -53.5t-119 -20.5q-137 0 -225 64.5t-127 175.5zM498 596h362l-133 391l-39 176h-4l-45 -180z" />
<glyph unicode="&#x103;" horiz-adv-x="1140" d="M55 260q0 92 35 151.5t109.5 97.5t192.5 56.5t286 26.5q16 176 -14.5 258t-133.5 82q-63 0 -116 -21l-97 -245h-90q-16 25 -31.5 56.5t-28.5 67t-22.5 72.5t-13.5 72q78 53 201 84t260 31q117 0 190.5 -26t115.5 -70t58.5 -103t16.5 -127q0 -123 -5 -222.5t-5 -203.5 q0 -45 1 -78t5 -69l141 -21v-72q-25 -12 -67 -24.5t-88 -23.5t-91 -18t-80 -11h-69q-20 47 -24.5 94t-6.5 114h-10q-10 -41 -35 -78.5t-62.5 -67.5t-89 -48.5t-114.5 -18.5q-68 0 -125.5 20.5t-100.5 57.5t-67.5 89.5t-24.5 117.5zM242 1487l76 45q41 -53 106.5 -88 t138.5 -37q154 -4 242 117l68 -41q-18 -55 -47 -107.5t-69 -92.5t-89 -63.5t-107 -23.5q-59 0 -110 22.5t-92 62.5t-71 93t-46 113zM362 303q0 -78 37 -121t103 -43q43 0 73.5 16.5t52 39t33 49t17.5 47.5v205q-96 -2 -157.5 -12.5t-96.5 -34t-48.5 -59.5t-13.5 -87z" />
<glyph unicode="&#x104;" horiz-adv-x="1492" d="M0 0v78q33 20 71 35.5t74 23.5l529 1321h151l514 -1321q41 -8 82 -23.5t72 -35.5v-78h-76q-80 -57 -124 -134t-44 -142q0 -53 32 -82t79 -29q25 0 47.5 2t46.5 8v-88q-29 -23 -85 -40t-122 -17q-125 0 -191.5 58t-66.5 142q0 55 21.5 101.5t59.5 85.5t91 71.5t117 63.5 h-426v78q39 18 84 34.5t86 24.5l-119 326h-454l-121 -326q94 -12 178 -59v-78h-506zM498 596h362l-133 391l-39 176h-4l-45 -180z" />
<glyph unicode="&#x105;" horiz-adv-x="1140" d="M55 260q0 92 35 151.5t109.5 97.5t192.5 56.5t286 26.5q16 176 -14.5 258t-133.5 82q-63 0 -116 -21l-97 -245h-90q-16 25 -31.5 56.5t-28.5 67t-22.5 72.5t-13.5 72q78 53 201 84t260 31q117 0 190.5 -26t115.5 -70t58.5 -103t16.5 -127q0 -123 -5 -222.5t-5 -203.5 q0 -45 1 -78t5 -69l141 -21v-72q-23 -14 -61 -24q-88 -49 -139.5 -125t-51.5 -152q0 -39 25.5 -70.5t72.5 -31.5t103 18v-94q-14 -8 -38 -15t-49.5 -13.5t-51 -9.5t-43.5 -3q-141 0 -207 55.5t-66 133.5q0 84 53.5 146t155.5 112l-45 -4h-53q-20 47 -24.5 94t-6.5 114h-10 q-10 -41 -35 -78.5t-62.5 -67.5t-89 -48.5t-114.5 -18.5q-68 0 -125.5 20.5t-100.5 57.5t-67.5 89.5t-24.5 117.5zM362 303q0 -78 37 -121t103 -43q43 0 73.5 16.5t52 39t33 49t17.5 47.5v205q-96 -2 -157.5 -12.5t-96.5 -34t-48.5 -59.5t-13.5 -87z" />
<glyph unicode="&#x106;" horiz-adv-x="1335" d="M80 719q0 195 58.5 335t156.5 230t228 132t274 42q135 0 244.5 -19.5t179.5 -52.5q0 -33 -3.5 -84t-10.5 -107t-16 -110.5t-17 -91.5h-87l-112 310q-18 10 -59.5 16t-84.5 6q-84 0 -157.5 -34t-131 -107.5t-90 -189t-32.5 -277.5q0 -293 116.5 -450.5t317.5 -157.5 q57 0 97 9t55 25l100 287h84q8 -33 15 -79t12.5 -98t7.5 -103.5t2 -92.5q-72 -45 -179.5 -63.5t-220.5 -18.5q-170 0 -308 42t-235.5 133.5t-150.5 231.5t-53 337zM582 1575l291 264q33 2 74.5 -4t81.5 -17.5t72 -25.5t44 -29v-41l-506 -196z" />
<glyph unicode="&#x107;" horiz-adv-x="991" d="M63 512q0 260 142.5 398.5t404.5 138.5q100 0 184.5 -21.5t139.5 -50.5q-4 -35 -11.5 -77t-16.5 -84t-21.5 -82t-24.5 -66h-100l-86 243q-14 10 -30.5 15.5t-49.5 5.5q-53 0 -92 -19.5t-66.5 -66.5t-41 -125t-13.5 -193q0 -84 18.5 -154.5t56.5 -122.5t95 -82t135 -30 q72 0 125 20.5t90 49.5l33 -43q-14 -41 -47 -75t-79 -60.5t-104.5 -41t-121.5 -14.5q-135 0 -232.5 38t-161 109t-94.5 170t-31 220zM406 1196l221 367q16 4 54 3t79 -7.5t75 -17.5t44 -23v-50l-391 -317z" />
<glyph unicode="&#x108;" horiz-adv-x="1335" d="M80 719q0 195 58.5 335t156.5 230t228 132t274 42q135 0 244.5 -19.5t179.5 -52.5q0 -33 -3.5 -84t-10.5 -107t-16 -110.5t-17 -91.5h-87l-112 310q-18 10 -59.5 16t-84.5 6q-84 0 -157.5 -34t-131 -107.5t-90 -189t-32.5 -277.5q0 -293 116.5 -450.5t317.5 -157.5 q57 0 97 9t55 25l100 287h84q8 -33 15 -79t12.5 -98t7.5 -103.5t2 -92.5q-72 -45 -179.5 -63.5t-220.5 -18.5q-170 0 -308 42t-235.5 133.5t-150.5 231.5t-53 337zM483 1579l260 240q20 10 63 10t64 -10l256 -234l-57 -61l-271 114l-258 -116z" />
<glyph unicode="&#x109;" horiz-adv-x="991" d="M63 512q0 260 142.5 398.5t404.5 138.5q100 0 184.5 -21.5t139.5 -50.5q-4 -35 -11.5 -77t-16.5 -84t-21.5 -82t-24.5 -66h-100l-86 243q-14 10 -30.5 15.5t-49.5 5.5q-53 0 -92 -19.5t-66.5 -66.5t-41 -125t-13.5 -193q0 -84 18.5 -154.5t56.5 -122.5t95 -82t135 -30 q72 0 125 20.5t90 49.5l33 -43q-14 -41 -47 -75t-79 -60.5t-104.5 -41t-121.5 -14.5q-135 0 -232.5 38t-161 109t-94.5 170t-31 220zM273 1233l225 381q12 10 50 11t57 -11l233 -379l-84 -53l-211 200l-184 -200z" />
<glyph unicode="&#x10c;" horiz-adv-x="1335" d="M80 719q0 195 58.5 335t156.5 230t228 132t274 42q135 0 244.5 -19.5t179.5 -52.5q0 -33 -3.5 -84t-10.5 -107t-16 -110.5t-17 -91.5h-87l-112 310q-18 10 -59.5 16t-84.5 6q-84 0 -157.5 -34t-131 -107.5t-90 -189t-32.5 -277.5q0 -293 116.5 -450.5t317.5 -157.5 q57 0 97 9t55 25l100 287h84q8 -33 15 -79t12.5 -98t7.5 -103.5t2 -92.5q-72 -45 -179.5 -63.5t-220.5 -18.5q-170 0 -308 42t-235.5 133.5t-150.5 231.5t-53 337zM494 1778q6 23 27.5 46t42.5 23l258 -112l245 112q16 0 40 -21.5t30 -41.5l-260 -230q-8 -6 -24.5 -9t-36 -3 t-37 3t-29.5 9z" />
<glyph unicode="&#x10d;" horiz-adv-x="991" d="M63 512q0 260 142.5 398.5t404.5 138.5q100 0 184.5 -21.5t139.5 -50.5q-4 -35 -11.5 -77t-16.5 -84t-21.5 -82t-24.5 -66h-100l-86 243q-14 10 -30.5 15.5t-49.5 5.5q-53 0 -92 -19.5t-66.5 -66.5t-41 -125t-13.5 -193q0 -84 18.5 -154.5t56.5 -122.5t95 -82t135 -30 q72 0 125 20.5t90 49.5l33 -43q-14 -41 -47 -75t-79 -60.5t-104.5 -41t-121.5 -14.5q-135 0 -232.5 38t-161 109t-94.5 170t-31 220zM232 1569q2 6 14.5 15t27.5 17.5t30.5 14.5t25.5 6l228 -190l215 190q20 0 50.5 -19.5t35.5 -31.5l-263 -371q-16 -10 -51 -10t-55 10z" />
<glyph unicode="&#x10e;" horiz-adv-x="1507" d="M41 0v78q35 20 78 35.5t90 23.5v1159q-47 10 -91 25.5t-77 34.5v78h238q35 0 86 2t106 5t107.5 6t89.5 3q178 0 318 -47t237.5 -137t149.5 -223.5t52 -307.5q0 -170 -49 -309t-147.5 -237.5t-249 -152.5t-352.5 -54q-27 0 -72 3t-96 6t-102.5 6t-90.5 3h-225zM363 1778 q6 23 27.5 46t42.5 23l258 -112l245 112q16 0 40 -21.5t30 -41.5l-260 -230q-8 -6 -24.5 -9t-36 -3t-37 3t-29.5 9zM504 123q8 -2 28.5 -3t42 -2t42 -2t30.5 -1q119 0 202 49t136 133t77.5 196.5t24.5 239.5q0 113 -25.5 217.5t-78.5 186.5t-138 131t-204 49q-37 0 -74 -2 t-63 -6v-1186z" />
<glyph unicode="&#x10f;" horiz-adv-x="1226" d="M63 496q0 135 37 236.5t103.5 171t161 104t208.5 34.5q37 0 63 -2t47.5 -5t40.5 -10t44 -15v360l-156 16v80q29 12 79 22.5t105.5 20t108.5 17.5t88 14h70v-1395l135 -16v-72q-29 -14 -74 -26.5t-94 -22.5t-95 -17t-77 -11h-70l-18 223h-8q-10 -45 -37 -86t-63.5 -73 t-84 -50.5t-100.5 -18.5q-203 0 -308.5 128t-105.5 393zM381 506q0 -166 45 -266.5t149 -100.5q72 0 121 45t72 154v551q-27 16 -66.5 26.5t-99.5 10.5q-119 0 -170 -107.5t-51 -312.5zM1139 1094q20 45 37.5 98t28 106.5t16.5 104.5t6 92l43 51q14 2 46 -3t68 -14 t68.5 -21.5t48.5 -26.5q-10 -57 -41.5 -122t-75.5 -125t-93.5 -108.5t-92.5 -72.5z" />
<glyph unicode="&#x110;" horiz-adv-x="1517" d="M45 674v123h174v499q-47 10 -91 25.5t-77 34.5v78h238q35 0 86 2t106.5 5t107.5 6t89 3q178 0 318.5 -47t237.5 -137t149.5 -223.5t52.5 -307.5q0 -170 -49.5 -309t-147.5 -237.5t-248.5 -152.5t-353.5 -54q-27 0 -72 3t-96 6t-102.5 6t-90.5 3h-225v78q35 20 78 35.5 t90 23.5v537h-174zM514 123q8 -2 28.5 -3t42 -2t42 -2t30.5 -1q119 0 202 49t136.5 133t78 196.5t24.5 239.5q0 113 -25.5 217.5t-79 186.5t-138.5 131t-204 49q-37 0 -73.5 -2t-63.5 -6v-512h313v-123h-313v-551z" />
<glyph unicode="&#x111;" horiz-adv-x="1226" d="M63 496q0 135 37 236.5t103.5 171t161 104t208.5 34.5q37 0 63 -2t47.5 -5t40.5 -10t44 -15v135h-295v125h295v100l-156 16v80q29 12 79 22.5t105.5 20t108.5 17.5t88 14h70v-270h162v-125h-162v-1000l135 -16v-72q-29 -14 -74 -26.5t-94 -22.5t-95 -17t-77 -11h-70 l-18 223h-8q-10 -45 -37 -86t-63.5 -73t-84 -50.5t-100.5 -18.5q-203 0 -308.5 128t-105.5 393zM381 506q0 -166 45 -266.5t149 -100.5q72 0 121 45t72 154v551q-27 16 -66.5 26.5t-99.5 10.5q-119 0 -170 -107.5t-51 -312.5z" />
<glyph unicode="&#x112;" horiz-adv-x="1236" d="M41 0v78q35 18 78 34.5t90 24.5v1159q-41 8 -87 23.5t-81 36.5v78h1077q-4 -92 -14 -190.5t-27 -184.5h-84l-94 241h-383v-501h250l90 157h66q10 -100 10 -223t-10 -229h-66l-90 162h-250v-533h399l109 260h84q8 -39 16.5 -88t13.5 -101t8 -105.5t3 -98.5h-1108z M301 1595v144h663v-144h-663z" />
<glyph unicode="&#x113;" horiz-adv-x="1099" d="M63 512q0 262 137.5 399.5t381.5 137.5q104 0 195 -29t151.5 -94.5t84 -172t-2.5 -259.5h-629q2 -162 83 -258.5t238 -96.5q68 0 140.5 20.5t113.5 53.5l39 -41q-16 -35 -52 -70.5t-88 -63.5t-120.5 -45.5t-148.5 -17.5q-127 0 -225.5 38t-164 109t-99.5 169t-34 221z M264 1268v143h602v-143h-602zM387 600h330q14 160 -19 246t-125 86q-41 0 -72.5 -14.5t-55 -52.5t-38 -102.5t-20.5 -162.5z" />
<glyph unicode="&#x116;" horiz-adv-x="1236" d="M41 0v78q35 18 78 34.5t90 24.5v1159q-41 8 -87 23.5t-81 36.5v78h1077q-4 -92 -14 -190.5t-27 -184.5h-84l-94 241h-383v-501h250l90 157h66q10 -100 10 -223t-10 -229h-66l-90 162h-250v-533h399l109 260h84q8 -39 16.5 -88t13.5 -101t8 -105.5t3 -98.5h-1108z M447 1677q0 66 47 100.5t139 34.5t137.5 -34.5t45.5 -100.5q0 -63 -45.5 -98t-137.5 -35t-139 35t-47 98z" />
<glyph unicode="&#x117;" horiz-adv-x="1099" d="M63 512q0 262 137.5 399.5t381.5 137.5q104 0 195 -29t151.5 -94.5t84 -172t-2.5 -259.5h-629q2 -162 83 -258.5t238 -96.5q68 0 140.5 20.5t113.5 53.5l39 -41q-16 -35 -52 -70.5t-88 -63.5t-120.5 -45.5t-148.5 -17.5q-127 0 -225.5 38t-164 109t-99.5 169t-34 221z M377 1360q0 72 49 112.5t127 40.5t127 -40.5t49 -112.5q0 -70 -49 -111t-127 -41t-127 41t-49 111zM387 600h330q14 160 -19 246t-125 86q-41 0 -72.5 -14.5t-55 -52.5t-38 -102.5t-20.5 -162.5z" />
<glyph unicode="&#x118;" horiz-adv-x="1236" d="M41 0v78q35 18 78 34.5t90 24.5v1159q-41 8 -87 23.5t-81 36.5v78h1077q-4 -92 -14 -190.5t-27 -184.5h-84l-94 241h-383v-501h250l90 157h66q10 -100 10 -223t-10 -229h-66l-90 162h-250v-533h399l109 260h84q8 -27 15 -79t12.5 -111.5t8.5 -114.5t5 -88h-78 q-80 -57 -124 -134t-44 -142q0 -53 33 -82t78 -29q25 0 47 2t47 8v-88q-29 -23 -84 -40t-121 -17q-125 0 -192.5 58t-67.5 142q0 113 82 188t209 134h-893z" />
<glyph unicode="&#x119;" horiz-adv-x="1099" d="M63 512q0 262 137.5 399.5t381.5 137.5q104 0 195 -29t151.5 -94.5t84 -172t-2.5 -259.5h-629q2 -162 83 -258.5t238 -96.5q68 0 140.5 20.5t113.5 53.5l39 -41q-20 -41 -65 -82t-111 -70q-80 -47 -125 -119.5t-45 -144.5q0 -39 24.5 -70.5t74.5 -31.5q47 0 102 18v-94 q-14 -8 -38 -15t-49.5 -13.5t-51 -9.5t-43.5 -3q-141 0 -207 55.5t-66 133.5q0 80 49.5 141t141.5 108q-127 0 -224.5 38t-164 107.5t-100.5 169t-34 222.5zM387 600h330q14 160 -19 246t-125 86q-41 0 -72.5 -14.5t-55 -52.5t-38 -102.5t-20.5 -162.5z" />
<glyph unicode="&#x11a;" horiz-adv-x="1236" d="M41 0v78q35 18 78 34.5t90 24.5v1159q-41 8 -87 23.5t-81 36.5v78h1077q-4 -92 -14 -190.5t-27 -184.5h-84l-94 241h-383v-501h250l90 157h66q10 -100 10 -223t-10 -229h-66l-90 162h-250v-533h399l109 260h84q8 -39 16.5 -88t13.5 -101t8 -105.5t3 -98.5h-1108z M311 1778q6 23 27.5 46t42.5 23l258 -112l245 112q16 0 40 -21.5t30 -41.5l-260 -230q-8 -6 -24.5 -9t-36 -3t-37 3t-29.5 9z" />
<glyph unicode="&#x11b;" horiz-adv-x="1099" d="M63 512q0 262 137.5 399.5t381.5 137.5q104 0 195 -29t151.5 -94.5t84 -172t-2.5 -259.5h-629q2 -162 83 -258.5t238 -96.5q68 0 140.5 20.5t113.5 53.5l39 -41q-16 -35 -52 -70.5t-88 -63.5t-120.5 -45.5t-148.5 -17.5q-127 0 -225.5 38t-164 109t-99.5 169t-34 221z M248 1569q2 6 14.5 15t27.5 17.5t30.5 14.5t25.5 6l228 -190l215 190q20 0 50.5 -19.5t35.5 -31.5l-263 -371q-16 -10 -51 -10t-55 10zM387 600h330q14 160 -19 246t-125 86q-41 0 -72.5 -14.5t-55 -52.5t-38 -102.5t-20.5 -162.5z" />
<glyph unicode="&#x11c;" horiz-adv-x="1452" d="M80 717q0 201 62.5 341t166 229t234.5 130t268 41q135 0 254 -18.5t188 -53.5q0 -31 -3 -78.5t-9 -103t-15 -111t-22 -100.5h-84l-114 312q-23 10 -68 15t-90 5q-84 0 -162 -32.5t-137.5 -105.5t-94 -188.5t-34.5 -281.5q0 -135 31.5 -247t89 -191.5t137.5 -124.5 t176 -45q31 0 63.5 5t61.5 13t50.5 18.5t29.5 18.5v385q-53 4 -100.5 20.5t-88.5 38.5v78h560v-78q-18 -18 -49 -33.5t-78 -25.5v-459q-41 -20 -100.5 -40.5t-125 -37t-131 -27t-117.5 -10.5q-176 0 -314 46.5t-235.5 139.5t-148.5 232t-51 324zM512 1579l260 240 q20 10 63 10t64 -10l256 -234l-57 -61l-271 114l-258 -116z" />
<glyph unicode="&#x11d;" horiz-adv-x="1155" d="M33 -172q0 57 22.5 98t63.5 72t95 51.5t120 36.5q-31 8 -59.5 20.5t-51 30t-37 41t-14.5 53.5q0 27 16.5 52.5t43 47t57 39t61.5 29.5q-129 29 -204.5 112t-75.5 212q0 154 127 240t344 86q133 0 221 -28t133 -69q96 104 221 146q14 -10 28.5 -29.5t25 -42t16.5 -45.5 t6 -37l-27 -49h-215q23 -29 42.5 -75t19.5 -109q0 -68 -29 -127.5t-87 -105.5t-147.5 -72.5t-207.5 -26.5q-35 0 -62.5 1t-48.5 5q-8 -12 -17.5 -29.5t-9.5 -33.5q0 -35 49.5 -55.5t125 -37t162.5 -37t163 -54.5t127 -88t53 -140q2 -82 -41 -145.5t-117.5 -107.5t-176 -67.5 t-216.5 -23.5q-135 0 -230 21.5t-154.5 58.5t-87 84t-27.5 98zM256 1233l225 381q12 10 50 11t57 -11l233 -379l-84 -53l-211 200l-184 -200zM328 -119q0 -94 64.5 -146t180.5 -52q115 0 170.5 47.5t55.5 113.5q0 55 -34 89t-87 55.5t-119.5 37t-132.5 35.5 q-53 -41 -75.5 -81.5t-22.5 -98.5zM365 713q0 -106 35.5 -161.5t140.5 -55.5q100 0 138 56t38 161q0 111 -39 165t-137 54q-102 0 -139 -53t-37 -166z" />
<glyph unicode="&#x11e;" horiz-adv-x="1452" d="M80 717q0 201 62.5 341t166 229t234.5 130t268 41q135 0 254 -18.5t188 -53.5q0 -31 -3 -78.5t-9 -103t-15 -111t-22 -100.5h-84l-114 312q-23 10 -68 15t-90 5q-84 0 -162 -32.5t-137.5 -105.5t-94 -188.5t-34.5 -281.5q0 -135 31.5 -247t89 -191.5t137.5 -124.5 t176 -45q31 0 63.5 5t61.5 13t50.5 18.5t29.5 18.5v385q-53 4 -100.5 20.5t-88.5 38.5v78h560v-78q-18 -18 -49 -33.5t-78 -25.5v-459q-41 -20 -100.5 -40.5t-125 -37t-131 -27t-117.5 -10.5q-176 0 -314 46.5t-235.5 139.5t-148.5 232t-51 324zM490 1794q14 25 44 39t60 10 q14 -23 44 -41t65 -30.5t72.5 -19.5t68.5 -7q33 0 70 4t70.5 15.5t63.5 28.5t50 44q14 2 42 -12.5t42 -34.5q-18 -45 -49 -87t-74 -75t-98 -53.5t-119 -20.5q-137 0 -225 64.5t-127 175.5z" />
<glyph unicode="&#x11f;" horiz-adv-x="1155" d="M33 -172q0 57 22.5 98t63.5 72t95 51.5t120 36.5q-31 8 -59.5 20.5t-51 30t-37 41t-14.5 53.5q0 27 16.5 52.5t43 47t57 39t61.5 29.5q-129 29 -204.5 112t-75.5 212q0 154 127 240t344 86q133 0 221 -28t133 -69q96 104 221 146q14 -10 28.5 -29.5t25 -42t16.5 -45.5 t6 -37l-27 -49h-215q23 -29 42.5 -75t19.5 -109q0 -68 -29 -127.5t-87 -105.5t-147.5 -72.5t-207.5 -26.5q-35 0 -62.5 1t-48.5 5q-8 -12 -17.5 -29.5t-9.5 -33.5q0 -35 49.5 -55.5t125 -37t162.5 -37t163 -54.5t127 -88t53 -140q2 -82 -41 -145.5t-117.5 -107.5t-176 -67.5 t-216.5 -23.5q-135 0 -230 21.5t-154.5 58.5t-87 84t-27.5 98zM227 1487l76 45q41 -53 106.5 -88t138.5 -37q154 -4 242 117l68 -41q-18 -55 -47 -107.5t-69 -92.5t-89 -63.5t-107 -23.5q-59 0 -110 22.5t-92 62.5t-71 93t-46 113zM328 -119q0 -94 64.5 -146t180.5 -52 q115 0 170.5 47.5t55.5 113.5q0 55 -34 89t-87 55.5t-119.5 37t-132.5 35.5q-53 -41 -75.5 -81.5t-22.5 -98.5zM365 713q0 -106 35.5 -161.5t140.5 -55.5q100 0 138 56t38 161q0 111 -39 165t-137 54q-102 0 -139 -53t-37 -166z" />
<glyph unicode="&#x122;" horiz-adv-x="1452" d="M80 717q0 201 62.5 341t166 229t234.5 130t268 41q135 0 254 -18.5t188 -53.5q0 -31 -3 -78.5t-9 -103t-15 -111t-22 -100.5h-84l-114 312q-23 10 -68 15t-90 5q-84 0 -162 -32.5t-137.5 -105.5t-94 -188.5t-34.5 -281.5q0 -135 31.5 -247t89 -191.5t137.5 -124.5 t176 -45q31 0 63.5 5t61.5 13t50.5 18.5t29.5 18.5v385q-53 4 -100.5 20.5t-88.5 38.5v78h560v-78q-18 -18 -49 -33.5t-78 -25.5v-459q-41 -20 -100.5 -40.5t-125 -37t-131 -27t-117.5 -10.5q-176 0 -314 46.5t-235.5 139.5t-148.5 232t-51 324zM602 -227.5 q8 34.5 28.5 64.5t49.5 49.5t59 23.5q43 -2 85 -15.5t75 -39t53.5 -64.5t20.5 -90t-22.5 -99t-62.5 -87t-95.5 -66t-120.5 -33l-27 90q47 12 83 44t34 77q-29 29 -70 47.5t-86 30.5q-12 33 -4 67.5z" />
<glyph unicode="&#x123;" horiz-adv-x="1155" d="M33 -172q0 57 22.5 98t63.5 72t95 51.5t120 36.5q-31 8 -59.5 20.5t-51 30t-37 41t-14.5 53.5q0 27 16.5 52.5t43 47t57 39t61.5 29.5q-129 29 -204.5 112t-75.5 212q0 154 127 240t344 86q133 0 221 -28t133 -69q96 104 221 146q14 -10 28.5 -29.5t25 -42t16.5 -45.5 t6 -37l-27 -49h-215q23 -29 42.5 -75t19.5 -109q0 -68 -29 -127.5t-87 -105.5t-147.5 -72.5t-207.5 -26.5q-35 0 -62.5 1t-48.5 5q-8 -12 -17.5 -29.5t-9.5 -33.5q0 -35 49.5 -55.5t125 -37t162.5 -37t163 -54.5t127 -88t53 -140q2 -82 -41 -145.5t-117.5 -107.5t-176 -67.5 t-216.5 -23.5q-135 0 -230 21.5t-154.5 58.5t-87 84t-27.5 98zM328 -119q0 -94 64.5 -146t180.5 -52q115 0 170.5 47.5t55.5 113.5q0 55 -34 89t-87 55.5t-119.5 37t-132.5 35.5q-53 -41 -75.5 -81.5t-22.5 -98.5zM365 713q0 -106 35.5 -161.5t140.5 -55.5q100 0 138 56 t38 161q0 111 -39 165t-137 54q-102 0 -139 -53t-37 -166zM407 1368q0 49 18.5 97t53.5 88t86 67.5t119 36.5l22 -92q-61 -16 -87.5 -53.5t-26.5 -71.5q25 -29 63.5 -46.5t79.5 -31.5q10 -33 2 -68t-26.5 -63.5t-44 -48t-54.5 -23.5q-80 2 -142.5 53t-62.5 156z" />
<glyph unicode="&#x124;" horiz-adv-x="1574" d="M41 0v78q35 18 81 34.5t87 24.5v1159q-49 8 -94 24.5t-74 35.5v78h621v-78q-31 -20 -69 -36.5t-77 -23.5v-495h543v495q-45 8 -81 24.5t-65 35.5v78h621v-78q-35 -23 -80 -37t-88 -23v-1159q47 -8 91 -24.5t77 -34.5v-78h-621v78q31 18 68 34.5t78 24.5v531h-543v-531 q41 -8 76 -22.5t70 -36.5v-78h-621zM465 1579l260 240q20 10 63 10t64 -10l256 -234l-57 -61l-271 114l-258 -116z" />
<glyph unicode="&#x125;" horiz-adv-x="1310" d="M-29 1599l260 240q20 10 63 10t64 -10l256 -234l-57 -61l-271 114l-258 -116zM18 1386v80q31 12 79 24.5t101.5 22t106.5 16.5t94 11h70v-723h2q20 47 55 89t79 74t95.5 50.5t108.5 18.5q82 0 146.5 -19.5t107.5 -69t65.5 -132.5t22.5 -210v-489q35 -8 69.5 -18.5 t65.5 -30.5v-80h-543v80q25 14 51.5 26.5t61.5 22.5v414q0 176 -34 259t-132 83q-82 0 -139 -56.5t-82 -130.5v-569q33 -8 58.5 -18.5t54.5 -30.5v-80h-543v80q63 33 135 49v1241z" />
<glyph unicode="&#x126;" horiz-adv-x="1574" d="M41 0v78q35 18 81 34.5t87 24.5v883h-156v129h156v147q-49 8 -94 24.5t-74 35.5v78h621v-78q-31 -20 -69 -36.5t-77 -23.5v-147h543v147q-45 8 -81 24.5t-65 35.5v78h621v-78q-35 -23 -80 -37t-88 -23v-147h156v-129h-156v-883q47 -8 91 -24.5t77 -34.5v-78h-621v78 q31 18 68 34.5t78 24.5v531h-543v-531q41 -8 76 -22.5t70 -36.5v-78h-621zM516 801h543v219h-543v-219z" />
<glyph unicode="&#x127;" horiz-adv-x="1310" d="M14 1145v125h160v100l-156 16v80q31 12 79 24.5t101.5 22t106.5 16.5t94 11h70v-270h317v-125h-317v-328h2q20 47 55 89t79 74t95.5 50.5t108.5 18.5q82 0 146.5 -19.5t107.5 -69t65.5 -132.5t22.5 -210v-489q35 -8 69.5 -18.5t65.5 -30.5v-80h-543v80q25 14 51.5 26.5 t61.5 22.5v414q0 176 -34 259t-132 83q-82 0 -139 -56.5t-82 -130.5v-569q33 -8 58.5 -18.5t54.5 -30.5v-80h-543v80q63 33 135 49v1016h-160z" />
<glyph unicode="&#x12a;" horiz-adv-x="761" d="M51 1595v144h663v-144h-663zM61 0v78q82 45 166 59v1159q-41 6 -86 22.5t-80 37.5v78h639v-78q-37 -23 -81 -38t-84 -22v-1159q41 -8 85 -22.5t80 -36.5v-78h-639z" />
<glyph unicode="&#x12b;" horiz-adv-x="679" d="M39 1268v143h602v-143h-602zM63 0v80q31 16 64 27.5t72 21.5v750l-136 16v80q31 12 77 24.5t97.5 21.5t100.5 16t86 12h70v-920q41 -10 73.5 -21.5t61.5 -27.5v-80h-566z" />
<glyph unicode="&#x12e;" horiz-adv-x="761" d="M61 0v78q82 45 166 59v1159q-41 6 -86 22.5t-80 37.5v78h639v-78q-37 -23 -81 -38t-84 -22v-1159q41 -8 85 -22.5t80 -36.5v-78h-73q-80 -57 -124 -134t-44 -142q0 -53 31.5 -82t78.5 -29q25 0 47.5 2t47.5 8v-88q-29 -23 -85.5 -40t-121.5 -17q-125 0 -191.5 58 t-66.5 142q0 55 21.5 101.5t59 85.5t91 71.5t116.5 63.5h-426z" />
<glyph unicode="&#x12f;" horiz-adv-x="731" d="M84 0v80q31 16 63.5 27.5t71.5 21.5v750l-135 16v80q31 12 77 24.5t97 21.5t100.5 16t85.5 12h70v-920q41 -10 74 -21.5t61 -27.5v-80h-71q-66 -49 -103 -114.5t-37 -129.5q0 -39 24.5 -70.5t74.5 -31.5q47 0 102 18v-94q-14 -8 -37.5 -15t-49.5 -13.5t-51.5 -9.5 t-43.5 -3q-141 0 -207 55.5t-66 133.5q0 92 62.5 157.5t181.5 116.5h-344zM190 1358q0 70 47.5 109.5t122.5 39.5q76 0 124 -40t48 -109q0 -70 -48 -110t-124 -40t-123 40t-47 110z" />
<glyph unicode="&#x130;" horiz-adv-x="761" d="M61 0v78q82 45 166 59v1159q-41 6 -86 22.5t-80 37.5v78h639v-78q-37 -23 -81 -38t-84 -22v-1159q41 -8 85 -22.5t80 -36.5v-78h-639zM197 1677q0 66 47 100.5t139 34.5t137.5 -34.5t45.5 -100.5q0 -63 -45.5 -98t-137.5 -35t-139 35t-47 98z" />
<glyph unicode="&#x131;" horiz-adv-x="679" d="M63 0v80q31 16 64 27.5t72 21.5v750l-136 16v80q31 12 77 24.5t97.5 21.5t100.5 16t86 12h70v-920q41 -10 73.5 -21.5t61.5 -27.5v-80h-566z" />
<glyph unicode="&#x134;" horiz-adv-x="747" d="M55 1356v78h631v-78q-33 -20 -74 -36.5t-82 -23.5v-1048q0 -168 -50 -275.5t-118.5 -170t-140 -91t-117.5 -39.5l-38 54q31 25 59.5 62.5t50 97t34.5 144.5t13 206v1060q-45 10 -89 23.5t-79 36.5zM55 1579l260 240q20 10 63 10t64 -10l256 -234l-57 -61l-271 114 l-258 -116z" />
<glyph unicode="&#x135;" horiz-adv-x="655" d="M55 -373q25 12 49.5 40t46 77t35 124t13.5 181v830l-136 16v80q31 14 76 26.5t96.5 21.5t101.5 15t87 11h70v-961q0 -96 -24 -172t-61.5 -131t-83.5 -94t-90.5 -64.5t-81 -40t-57.5 -20.5zM60 1233l225 381q12 10 50 11t57 -11l233 -379l-84 -53l-211 200l-184 -200z" />
<glyph unicode="&#x136;" horiz-adv-x="1454" d="M41 0v78q41 20 84 35.5t84 23.5v1159q-47 6 -91 22.5t-77 37.5v78h621v-78q-27 -16 -65 -32.5t-81 -27.5v-520l121 29l330 491q-41 8 -81 25.5t-69 34.5v78h549v-78q-35 -23 -80 -38t-82 -22l-389 -493q47 -66 110.5 -149t135.5 -172t147.5 -180t147.5 -173l98 -59v-70 h-356l-82 57q-49 61 -103.5 136t-107.5 156t-104.5 163t-96.5 160h-88v-535q45 -8 82 -24.5t64 -34.5v-78h-621zM524 -227.5q8 34.5 28.5 64.5t49.5 49.5t59 23.5q43 -2 85 -15.5t75 -39t53.5 -64.5t20.5 -90t-22.5 -99t-62.5 -87t-95.5 -66t-120.5 -33l-27 90q47 12 83 44 t34 77q-29 29 -70 47.5t-86 30.5q-12 33 -4 67.5z" />
<glyph unicode="&#x137;" horiz-adv-x="1193" d="M18 1386v80q29 12 78 24.5t104.5 22t108.5 16.5t90 11h70v-960h53q68 72 126.5 157.5t103.5 157.5q-27 8 -48.5 20.5t-44.5 28.5v80h480v-80q-39 -16 -73 -28.5t-75 -20.5q-31 -41 -66.5 -81t-71.5 -77t-68.5 -70.5t-59.5 -60.5q31 -41 72 -98t88 -121.5t99 -131.5 t106 -126l104 -49v-80h-346l-55 49q-47 63 -83 118.5t-65 107t-55.5 99.5t-52.5 95l-68 20v-360q35 -6 63.5 -18.5t61.5 -30.5v-80h-555v80q68 33 135 49v1241zM418 -221q8 35 26.5 63.5t44 48t54.5 23.5q80 -2 142.5 -53t62.5 -156q0 -49 -18.5 -97t-53.5 -88t-86 -67.5 t-119 -36.5l-22 92q61 16 87.5 53.5t26.5 71.5q-25 29 -63.5 46.5t-79.5 31.5q-10 33 -2 68z" />
<glyph unicode="&#x139;" horiz-adv-x="1193" d="M41 0v78q47 25 89 39t79 20v1159q-100 16 -168 60v78h672v-78q-43 -23 -95.5 -38t-101.5 -22v-1163h395l138 367h84q8 -47 15 -110.5t11 -133.5t6 -137.5t0 -118.5h-1124zM307 1575l291 264q33 2 74.5 -4t81.5 -17.5t72 -25.5t44 -29v-41l-506 -196z" />
<glyph unicode="&#x13a;" horiz-adv-x="679" d="M43 1386v80q27 12 74 24.5t101 22t108.5 16.5t97.5 11h70v-1411q68 -16 135 -49v-80h-566v80q68 33 136 49v1241zM152 1595l291 264q33 2 74.5 -4t81.5 -17.5t72 -25.5t44 -29v-41l-506 -196z" />
<glyph unicode="&#x13b;" horiz-adv-x="1193" d="M41 0v78q47 25 89 39t79 20v1159q-100 16 -168 60v78h672v-78q-43 -23 -95.5 -38t-101.5 -22v-1163h395l138 367h84q8 -47 15 -110.5t11 -133.5t6 -137.5t0 -118.5h-1124zM412 -227.5q8 34.5 28.5 64.5t49.5 49.5t59 23.5q43 -2 85 -15.5t75 -39t53.5 -64.5t20.5 -90 t-22.5 -99t-62.5 -87t-95.5 -66t-120.5 -33l-27 90q47 12 83 44t34 77q-29 29 -70 47.5t-86 30.5q-12 33 -4 67.5z" />
<glyph unicode="&#x13c;" horiz-adv-x="679" d="M43 1386v80q27 12 74 24.5t101 22t108.5 16.5t97.5 11h70v-1411q68 -16 135 -49v-80h-566v80q68 33 136 49v1241zM182 -221q8 35 26.5 63.5t44 48t54.5 23.5q80 -2 142.5 -53t62.5 -156q0 -49 -18.5 -97t-53.5 -88t-86 -67.5t-119 -36.5l-22 92q61 16 87.5 53.5 t26.5 71.5q-25 29 -63.5 46.5t-79.5 31.5q-10 33 -2 68z" />
<glyph unicode="&#x13d;" horiz-adv-x="1243" d="M41 0v78q47 25 89 39t79 20v1159q-100 16 -168 60v78h672v-78q-43 -23 -95.5 -38t-101.5 -22v-1163h395l138 367h84q8 -47 15 -110.5t11 -133.5t6 -137.5t0 -118.5h-1124zM774 1006q20 45 37.5 100t29 111.5t16.5 107.5t5 92l43 51q27 0 66.5 -7t78.5 -19t71 -28.5 t46 -31.5q-6 -53 -41 -117.5t-84 -124t-104.5 -107.5t-104.5 -68z" />
<glyph unicode="&#x13e;" horiz-adv-x="679" d="M43 1386v80q27 12 74 24.5t101 22t108.5 16.5t97.5 11h70v-1411q68 -16 135 -49v-80h-566v80q68 33 136 49v1241zM567 1094q20 45 37.5 98t28 106.5t16.5 104.5t6 92l43 51q14 2 46 -3t68 -14t68.5 -21.5t48.5 -26.5q-10 -57 -41.5 -122t-75.5 -125t-93.5 -108.5 t-92.5 -72.5z" />
<glyph unicode="&#x141;" horiz-adv-x="1193" d="M41 0v78q47 25 89 39t79 20v371l-168 -102v161l168 103v626q-100 16 -168 60v78h672v-78q-43 -23 -95.5 -38t-101.5 -22v-438l236 146v-162l-236 -146v-563h395l138 367h84q8 -47 15 -110.5t11 -133.5t6 -137.5t0 -118.5h-1124z" />
<glyph unicode="&#x142;" horiz-adv-x="720" d="M47 442v162l172 105v661l-156 16v80q27 12 74 24.5t101.5 22t108.5 16.5t97 11h70v-653l164 100v-162l-164 -100v-596q68 -16 135 -49v-80h-565v80q68 33 135 49v418z" />
<glyph unicode="&#x143;" horiz-adv-x="1552" d="M41 0v78q37 25 81 46t91 36v1118q-41 16 -82 36.5t-74 43.5v76h443l587 -852l95 -176h8l-10 176v684q-49 16 -95.5 39.5t-80.5 50.5v78h507v-78q-39 -31 -86 -54.5t-88 -35.5v-1291h-174l-723 1045l-82 158h-6l19 -164v-854q41 -10 91 -34t85 -48v-78h-506zM645 1575 l291 264q33 2 74.5 -4t81.5 -17.5t72 -25.5t44 -29v-41l-506 -196z" />
<glyph unicode="&#x144;" horiz-adv-x="1318" d="M47 0v80q51 27 135 49v750l-135 16v80q27 12 70 23.5t93 21.5t102.5 17t95.5 12h69v-211h2q43 86 129 148.5t209 62.5q80 0 143.5 -19.5t107.5 -69t67.5 -132.5t23.5 -210v-489q82 -14 135 -49v-80h-542v80q27 14 52 25.5t60 23.5v481q0 129 -36.5 202t-131.5 73 q-78 0 -134 -50.5t-85 -136.5v-569q33 -8 58.5 -19.5t54.5 -29.5v-80h-543zM547 1196l221 367q16 4 54 3t79 -7.5t75 -17.5t44 -23v-50l-391 -317z" />
<glyph unicode="&#x145;" horiz-adv-x="1552" d="M41 0v78q37 25 81 46t91 36v1118q-41 16 -82 36.5t-74 43.5v76h443l587 -852l95 -176h8l-10 176v684q-49 16 -95.5 39.5t-80.5 50.5v78h507v-78q-39 -31 -86 -54.5t-88 -35.5v-1291h-174l-723 1045l-82 158h-6l19 -164v-854q41 -10 91 -34t85 -48v-78h-506zM584 -227.5 q8 34.5 28.5 64.5t49.5 49.5t59 23.5q43 -2 85 -15.5t75 -39t53.5 -64.5t20.5 -90t-22.5 -99t-62.5 -87t-95.5 -66t-120.5 -33l-27 90q47 12 83 44t34 77q-29 29 -70 47.5t-86 30.5q-12 33 -4 67.5z" />
<glyph unicode="&#x146;" horiz-adv-x="1318" d="M47 0v80q51 27 135 49v750l-135 16v80q27 12 70 23.5t93 21.5t102.5 17t95.5 12h69v-211h2q43 86 129 148.5t209 62.5q80 0 143.5 -19.5t107.5 -69t67.5 -132.5t23.5 -210v-489q82 -14 135 -49v-80h-542v80q27 14 52 25.5t60 23.5v481q0 129 -36.5 202t-131.5 73 q-78 0 -134 -50.5t-85 -136.5v-569q33 -8 58.5 -19.5t54.5 -29.5v-80h-543zM500 -221q8 35 26.5 63.5t44 48t54.5 23.5q80 -2 142.5 -53t62.5 -156q0 -49 -18.5 -97t-53.5 -88t-86 -67.5t-119 -36.5l-22 92q61 16 87.5 53.5t26.5 71.5q-25 29 -63.5 46.5t-79.5 31.5 q-10 33 -2 68z" />
<glyph unicode="&#x147;" horiz-adv-x="1552" d="M41 0v78q37 25 81 46t91 36v1118q-41 16 -82 36.5t-74 43.5v76h443l587 -852l95 -176h8l-10 176v684q-49 16 -95.5 39.5t-80.5 50.5v78h507v-78q-39 -31 -86 -54.5t-88 -35.5v-1291h-174l-723 1045l-82 158h-6l19 -164v-854q41 -10 91 -34t85 -48v-78h-506zM465 1778 q6 23 27.5 46t42.5 23l258 -112l245 112q16 0 40 -21.5t30 -41.5l-260 -230q-8 -6 -24.5 -9t-36 -3t-37 3t-29.5 9z" />
<glyph unicode="&#x148;" horiz-adv-x="1318" d="M47 0v80q51 27 135 49v750l-135 16v80q27 12 70 23.5t93 21.5t102.5 17t95.5 12h69v-211h2q43 86 129 148.5t209 62.5q80 0 143.5 -19.5t107.5 -69t67.5 -132.5t23.5 -210v-489q82 -14 135 -49v-80h-542v80q27 14 52 25.5t60 23.5v481q0 129 -36.5 202t-131.5 73 q-78 0 -134 -50.5t-85 -136.5v-569q33 -8 58.5 -19.5t54.5 -29.5v-80h-543zM344 1569q2 6 14.5 15t27.5 17.5t30.5 14.5t25.5 6l228 -190l215 190q20 0 50.5 -19.5t35.5 -31.5l-263 -371q-16 -10 -51 -10t-55 10z" />
<glyph unicode="&#x14c;" horiz-adv-x="1544" d="M80 717q0 160 45 296t133 235.5t217 154.5t297 55t297 -55t216 -154.5t132 -235.5t45 -296t-45 -296t-132 -235.5t-216 -155t-297 -55.5t-297 55.5t-217 155t-133 235.5t-45 296zM428 717q0 -131 20.5 -243t64.5 -192.5t112.5 -126.5t165.5 -46q88 0 149 46t100 126.5 t56.5 192.5t17.5 243t-19.5 242.5t-61.5 192.5t-110.5 127t-166.5 46q-94 0 -157.5 -46t-101.5 -127t-53.5 -192.5t-15.5 -242.5zM440 1595v144h663v-144h-663z" />
<glyph unicode="&#x14d;" horiz-adv-x="1216" d="M63 512q0 125 38 224.5t109 169t171 106.5t227 37q143 0 246.5 -40t170.5 -111t97.5 -170t30.5 -216q0 -125 -37 -224.5t-107.5 -169t-172 -106.5t-228.5 -37q-139 0 -241.5 40t-170 111t-100.5 170t-33 216zM307 1268v143h602v-143h-602zM381 512q0 -92 11 -169t40 -130 t78 -83t127 -30q45 0 82 21.5t63.5 70t40 127t13.5 193.5q0 94 -11.5 170t-39 129t-74.5 83t-119 30q-53 0 -92 -21.5t-65.5 -70t-40 -127t-13.5 -193.5z" />
<glyph unicode="&#x150;" horiz-adv-x="1544" d="M80 717q0 160 45 296t133 235.5t217 154.5t297 55t297 -55t216 -154.5t132 -235.5t45 -296t-45 -296t-132 -235.5t-216 -155t-297 -55.5t-297 55.5t-217 155t-133 235.5t-45 296zM428 717q0 -131 20.5 -243t64.5 -192.5t112.5 -126.5t165.5 -46q88 0 149 46t100 126.5 t56.5 192.5t17.5 243t-19.5 242.5t-61.5 192.5t-110.5 127t-166.5 46q-94 0 -157.5 -46t-101.5 -127t-53.5 -192.5t-15.5 -242.5zM492 1581l143 238q12 2 44 -3.5t67 -13.5t63.5 -19t34.5 -22v-28l-276 -199zM801 1577l236 242q14 2 45.5 -3.5t67.5 -14.5t66 -21.5t40 -24.5 l-2 -20l-373 -205z" />
<glyph unicode="&#x151;" horiz-adv-x="1216" d="M63 512q0 125 38 224.5t109 169t171 106.5t227 37q143 0 246.5 -40t170.5 -111t97.5 -170t30.5 -216q0 -125 -37 -224.5t-107.5 -169t-172 -106.5t-228.5 -37q-139 0 -241.5 40t-170 111t-100.5 170t-33 216zM352 1239l139 334q12 4 47 2t73 -8t69.5 -15.5t37.5 -21.5 v-49l-282 -283zM381 512q0 -92 11 -169t40 -130t78 -83t127 -30q45 0 82 21.5t63.5 70t40 127t13.5 193.5q0 94 -11.5 170t-39 129t-74.5 83t-119 30q-53 0 -92 -21.5t-65.5 -70t-40 -127t-13.5 -193.5zM620 1243l273 330q14 4 46.5 2t69.5 -10.5t69 -20.5t44 -28v-46 l-426 -272z" />
<glyph unicode="&#x152;" horiz-adv-x="2013" d="M80 717q0 160 44 296t131 235.5t216 154.5t297 55q43 0 105.5 -7t111.5 -17h909q-4 -92 -14 -190.5t-27 -184.5h-84l-94 241h-383v-501h250l90 157h66q10 -100 10 -223t-10 -229h-66l-90 162h-250v-533h400l108 260h84q8 -39 16.5 -88t13.5 -101t8 -105.5t3 -98.5h-938 q-47 -10 -107.5 -17.5t-111.5 -7.5q-168 0 -297 55.5t-216 155t-131 235.5t-44 296zM428 717q0 -131 20.5 -243t64.5 -192.5t113 -126.5t165 -46q49 0 101 13t93 36v1106q-47 27 -106.5 44t-122.5 17q-94 0 -157.5 -46t-101.5 -127t-53.5 -192.5t-15.5 -242.5z" />
<glyph unicode="&#x153;" horiz-adv-x="1869" d="M63 512q0 125 38 224.5t109 169t171 106.5t227 37t227.5 -39t153.5 -111q63 76 155.5 113t207.5 37q104 0 195 -29t151.5 -94.5t84 -172t-2.5 -259.5h-629q2 -162 84 -258.5t238 -96.5q70 0 141.5 20.5t111.5 53.5l39 -41q-16 -35 -52 -70.5t-88 -63.5t-120.5 -45.5 t-148.5 -17.5q-59 0 -114.5 11.5t-103.5 31t-86 47t-61 60.5q-72 -80 -169 -115t-214 -35q-139 0 -241.5 40t-170 111t-100.5 170t-33 216zM381 512q0 -92 11 -170t41 -133t80 -86t130 -31q96 0 144.5 95.5t48.5 324.5q0 94 -11.5 171t-39 132t-74.5 86t-119 31 q-109 0 -160 -95.5t-51 -324.5zM1157 600h330q14 160 -19 246t-125 86q-41 0 -72.5 -14.5t-55 -52.5t-38 -102.5t-20.5 -162.5z" />
<glyph unicode="&#x154;" horiz-adv-x="1427" d="M41 0v78q45 25 86 38t82 21v1159q-102 23 -168 60v78h217q41 0 93 2t109.5 5t117 6t114.5 3q113 0 208 -25.5t164 -77t106.5 -128t37.5 -179.5q0 -147 -71.5 -241t-196.5 -142q82 -129 174 -263t195 -259l98 -65v-70h-342l-88 68q-94 113 -167 261t-128 292h-166v-484 q47 -10 84 -26.5t72 -32.5v-78h-631zM492 1575l291 264q33 2 74.5 -4t81.5 -17.5t72 -25.5t44 -29v-41l-506 -196zM516 733h121q104 0 178 75t74 222q0 76 -20.5 130t-57.5 89t-86.5 51.5t-106.5 16.5q-63 0 -102 -12v-572z" />
<glyph unicode="&#x155;" horiz-adv-x="882" d="M47 0v80q37 20 70 30.5t65 18.5v750l-135 16v80q33 14 81 26.5t99.5 21.5t99.5 15t81 11h69v-273h8q16 45 48 94.5t75 90t94.5 65.5t106.5 23q23 -29 39 -81.5t26 -99.5v-80h-280q-25 -12 -57.5 -40.5t-59.5 -94.5v-524q41 -4 82 -15.5t82 -33.5v-80h-594zM352 1196 l221 367q16 4 54 3t79 -7.5t75 -17.5t44 -23v-50l-391 -317z" />
<glyph unicode="&#x156;" horiz-adv-x="1427" d="M41 0v78q45 25 86 38t82 21v1159q-102 23 -168 60v78h217q41 0 93 2t109.5 5t117 6t114.5 3q113 0 208 -25.5t164 -77t106.5 -128t37.5 -179.5q0 -147 -71.5 -241t-196.5 -142q82 -129 174 -263t195 -259l98 -65v-70h-342l-88 68q-94 113 -167 261t-128 292h-166v-484 q47 -10 84 -26.5t72 -32.5v-78h-631zM493 -227.5q8 34.5 28.5 64.5t49.5 49.5t59 23.5q43 -2 85 -15.5t75 -39t53.5 -64.5t20.5 -90t-22.5 -99t-62.5 -87t-95.5 -66t-120.5 -33l-27 90q47 12 83 44t34 77q-29 29 -70 47.5t-86 30.5q-12 33 -4 67.5zM516 733h121 q104 0 178 75t74 222q0 76 -20.5 130t-57.5 89t-86.5 51.5t-106.5 16.5q-63 0 -102 -12v-572z" />
<glyph unicode="&#x157;" horiz-adv-x="882" d="M47 0v80q37 20 70 30.5t65 18.5v750l-135 16v80q33 14 81 26.5t99.5 21.5t99.5 15t81 11h69v-273h8q16 45 48 94.5t75 90t94.5 65.5t106.5 23q23 -29 39 -81.5t26 -99.5v-80h-280q-25 -12 -57.5 -40.5t-59.5 -94.5v-524q41 -4 82 -15.5t82 -33.5v-80h-594zM223 -221 q8 35 26.5 63.5t44 48t54.5 23.5q80 -2 142.5 -53t62.5 -156q0 -49 -18.5 -97t-53.5 -88t-86 -67.5t-119 -36.5l-22 92q61 16 87.5 53.5t26.5 71.5q-25 29 -63.5 46.5t-79.5 31.5q-10 33 -2 68z" />
<glyph unicode="&#x158;" horiz-adv-x="1427" d="M41 0v78q45 25 86 38t82 21v1159q-102 23 -168 60v78h217q41 0 93 2t109.5 5t117 6t114.5 3q113 0 208 -25.5t164 -77t106.5 -128t37.5 -179.5q0 -147 -71.5 -241t-196.5 -142q82 -129 174 -263t195 -259l98 -65v-70h-342l-88 68q-94 113 -167 261t-128 292h-166v-484 q47 -10 84 -26.5t72 -32.5v-78h-631zM301 1778q6 23 27.5 46t42.5 23l258 -112l245 112q16 0 40 -21.5t30 -41.5l-260 -230q-8 -6 -24.5 -9t-36 -3t-37 3t-29.5 9zM516 733h121q104 0 178 75t74 222q0 76 -20.5 130t-57.5 89t-86.5 51.5t-106.5 16.5q-63 0 -102 -12v-572z " />
<glyph unicode="&#x159;" horiz-adv-x="882" d="M47 0v80q37 20 70 30.5t65 18.5v750l-135 16v80q33 14 81 26.5t99.5 21.5t99.5 15t81 11h69v-273h8q16 45 48 94.5t75 90t94.5 65.5t106.5 23q23 -29 39 -81.5t26 -99.5v-80h-280q-25 -12 -57.5 -40.5t-59.5 -94.5v-524q41 -4 82 -15.5t82 -33.5v-80h-594zM164 1569 q2 6 14.5 15t27.5 17.5t30.5 14.5t25.5 6l228 -190l215 190q20 0 50.5 -19.5t35.5 -31.5l-263 -371q-16 -10 -51 -10t-55 10z" />
<glyph unicode="&#x15a;" horiz-adv-x="1142" d="M86 72q2 47 10 101t17.5 108.5t19.5 103.5t21 86h84l84 -301q23 -23 63.5 -42t108.5 -19q113 0 187.5 58t74.5 163q0 76 -48.5 127t-122 94t-157.5 85t-157.5 99.5t-122 136t-48.5 195.5q0 100 37 174t101.5 122t152.5 71.5t191 23.5q125 0 232.5 -17.5t193.5 -54.5 q-2 -41 -7.5 -94t-13.5 -105t-17 -98.5t-18 -76.5h-84l-94 280q-25 12 -73 22.5t-99 10.5q-86 0 -145.5 -45t-59.5 -131q0 -78 49.5 -132t123 -99.5t160.5 -89.5t161 -101t123 -134t49 -190q0 -205 -138.5 -316.5t-406.5 -111.5q-66 0 -132.5 8.5t-125.5 22.5t-105 30.5 t-69 35.5zM477 1575l291 264q33 2 74.5 -4t81.5 -17.5t72 -25.5t44 -29v-41l-506 -196z" />
<glyph unicode="&#x15b;" horiz-adv-x="925" d="M59 53q4 74 35 150t66 135h69l101 -223q23 -16 50.5 -19.5t51.5 -3.5q59 0 108.5 35t49.5 96q0 53 -38 92t-94.5 72t-123 65.5t-122.5 76.5t-94 103.5t-38 145.5q0 61 28.5 111.5t78 85.5t118 54.5t148.5 19.5q111 0 206 -17.5t166 -48.5q-8 -66 -32.5 -140.5 t-47.5 -135.5h-69l-86 208q-25 10 -51.5 13.5t-59.5 3.5q-61 0 -93 -36t-32 -81q0 -51 38 -89t94.5 -70.5t123 -65.5t122.5 -75t94 -99.5t38 -136.5q0 -141 -114.5 -222.5t-307.5 -81.5q-98 0 -202.5 20.5t-180.5 57.5zM334 1196l221 367q16 4 54 3t79 -7.5t75 -17.5t44 -23 v-50l-391 -317z" />
<glyph unicode="&#x15c;" horiz-adv-x="1142" d="M86 72q2 47 10 101t17.5 108.5t19.5 103.5t21 86h84l84 -301q23 -23 63.5 -42t108.5 -19q113 0 187.5 58t74.5 163q0 76 -48.5 127t-122 94t-157.5 85t-157.5 99.5t-122 136t-48.5 195.5q0 100 37 174t101.5 122t152.5 71.5t191 23.5q125 0 232.5 -17.5t193.5 -54.5 q-2 -41 -7.5 -94t-13.5 -105t-17 -98.5t-18 -76.5h-84l-94 280q-25 12 -73 22.5t-99 10.5q-86 0 -145.5 -45t-59.5 -131q0 -78 49.5 -132t123 -99.5t160.5 -89.5t161 -101t123 -134t49 -190q0 -205 -138.5 -316.5t-406.5 -111.5q-66 0 -132.5 8.5t-125.5 22.5t-105 30.5 t-69 35.5zM289 1579l260 240q20 10 63 10t64 -10l256 -234l-57 -61l-271 114l-258 -116z" />
<glyph unicode="&#x15d;" horiz-adv-x="925" d="M59 53q4 74 35 150t66 135h69l101 -223q23 -16 50.5 -19.5t51.5 -3.5q59 0 108.5 35t49.5 96q0 53 -38 92t-94.5 72t-123 65.5t-122.5 76.5t-94 103.5t-38 145.5q0 61 28.5 111.5t78 85.5t118 54.5t148.5 19.5q111 0 206 -17.5t166 -48.5q-8 -66 -32.5 -140.5 t-47.5 -135.5h-69l-86 208q-25 10 -51.5 13.5t-59.5 3.5q-61 0 -93 -36t-32 -81q0 -51 38 -89t94.5 -70.5t123 -65.5t122.5 -75t94 -99.5t38 -136.5q0 -141 -114.5 -222.5t-307.5 -81.5q-98 0 -202.5 20.5t-180.5 57.5zM193 1233l225 381q12 10 50 11t57 -11l233 -379 l-84 -53l-211 200l-184 -200z" />
<glyph unicode="&#x15e;" horiz-adv-x="1142" d="M86 72q2 47 10 101t17.5 108.5t19.5 103.5t21 86h84l84 -301q23 -23 63.5 -42t108.5 -19q113 0 187.5 58t74.5 163q0 76 -48.5 127t-122 94t-157.5 85t-157.5 99.5t-122 136t-48.5 195.5q0 100 37 174t101.5 122t152.5 71.5t191 23.5q125 0 232.5 -17.5t193.5 -54.5 q-2 -41 -7.5 -94t-13.5 -105t-17 -98.5t-18 -76.5h-84l-94 280q-25 12 -73 22.5t-99 10.5q-86 0 -145.5 -45t-59.5 -131q0 -78 49.5 -132t123 -99.5t160.5 -89.5t161 -101t123 -134t49 -190q0 -190 -120 -298.5t-351 -124.5l-51 -123q123 -4 199.5 -48.5t76.5 -134.5 q0 -68 -46 -117t-112.5 -80.5t-141.5 -46t-134 -14.5v95q72 10 118 40.5t44 88.5q-2 47 -36 73.5t-120 30.5l74 233q-59 2 -118.5 11.5t-110 23t-89.5 28.5t-59 32z" />
<glyph unicode="&#x15f;" horiz-adv-x="946" d="M59 53q4 74 35 150t66 135h69l101 -223q23 -16 55.5 -19.5t56.5 -3.5q66 0 117 35t51 96q0 59 -39 98t-98 70t-128 61.5t-128 72.5t-98 101.5t-39 151.5q0 123 105.5 197t277.5 74q111 0 211 -17.5t172 -48.5q-8 -66 -33 -140.5t-47 -135.5h-70l-86 208 q-25 10 -56.5 13.5t-64.5 3.5q-70 0 -102.5 -36t-32.5 -81q0 -55 39 -92t98.5 -68.5t128 -61.5t128 -71t98.5 -98t39 -141q0 -139 -106.5 -220t-301.5 -88l-43 -114q123 -6 187.5 -44t66.5 -112q0 -59 -35 -102t-92 -72t-129 -43t-143 -14v80q143 23 143 116q-2 47 -40 67.5 t-109 29.5l75 213q-82 10 -160.5 27.5t-138.5 45.5z" />
<glyph unicode="&#x160;" horiz-adv-x="1142" d="M86 72q2 47 10 101t17.5 108.5t19.5 103.5t21 86h84l84 -301q23 -23 63.5 -42t108.5 -19q113 0 187.5 58t74.5 163q0 76 -48.5 127t-122 94t-157.5 85t-157.5 99.5t-122 136t-48.5 195.5q0 100 37 174t101.5 122t152.5 71.5t191 23.5q125 0 232.5 -17.5t193.5 -54.5 q-2 -41 -7.5 -94t-13.5 -105t-17 -98.5t-18 -76.5h-84l-94 280q-25 12 -73 22.5t-99 10.5q-86 0 -145.5 -45t-59.5 -131q0 -78 49.5 -132t123 -99.5t160.5 -89.5t161 -101t123 -134t49 -190q0 -205 -138.5 -316.5t-406.5 -111.5q-66 0 -132.5 8.5t-125.5 22.5t-105 30.5 t-69 35.5zM295 1778q6 23 27.5 46t42.5 23l258 -112l245 112q16 0 40 -21.5t30 -41.5l-260 -230q-8 -6 -24.5 -9t-36 -3t-37 3t-29.5 9z" />
<glyph unicode="&#x161;" horiz-adv-x="925" d="M59 53q4 74 35 150t66 135h69l101 -223q23 -16 50.5 -19.5t51.5 -3.5q59 0 108.5 35t49.5 96q0 53 -38 92t-94.5 72t-123 65.5t-122.5 76.5t-94 103.5t-38 145.5q0 61 28.5 111.5t78 85.5t118 54.5t148.5 19.5q111 0 206 -17.5t166 -48.5q-8 -66 -32.5 -140.5 t-47.5 -135.5h-69l-86 208q-25 10 -51.5 13.5t-59.5 3.5q-61 0 -93 -36t-32 -81q0 -51 38 -89t94.5 -70.5t123 -65.5t122.5 -75t94 -99.5t38 -136.5q0 -141 -114.5 -222.5t-307.5 -81.5q-98 0 -202.5 20.5t-180.5 57.5zM152 1569q2 6 14.5 15t27.5 17.5t30.5 14.5t25.5 6 l228 -190l215 190q20 0 50.5 -19.5t35.5 -31.5l-263 -371q-16 -10 -51 -10t-55 10z" />
<glyph unicode="&#x162;" horiz-adv-x="1366" d="M31 1434h1304q0 -49 -4 -115t-10 -133.5t-14.5 -130t-16.5 -105.5h-86l-131 350h-237v-1163q53 -10 105 -24.5t93 -34.5v-78h-293l-59 -143q123 -4 199.5 -48.5t76.5 -134.5q0 -68 -46 -117t-112.5 -80.5t-141 -46t-134.5 -14.5v95q72 10 118 40.5t44 88.5 q-2 47 -36 73.5t-120 30.5l80 256h-280v78q41 16 93 33.5t105 25.5v1163h-237l-131 -350h-84q-8 41 -16.5 104.5t-14.5 131t-10 134t-4 114.5z" />
<glyph unicode="&#x163;" horiz-adv-x="817" d="M16 895v80q78 49 164 69v166q12 12 43 24.5t67 24t70.5 18.5t57.5 7h57v-260h270v-129h-270v-530q0 -127 32 -176.5t105 -49.5q39 0 84 5.5t84 19.5l15 -68q-33 -31 -106 -66.5t-165 -45.5q-16 -2 -29.5 -4.5t-29.5 -2.5l-43 -116q123 -6 187.5 -44t66.5 -112 q0 -59 -35 -102t-92 -72t-129 -43t-144 -14v80q143 23 144 116q-2 47 -40 67.5t-110 29.5l78 221q-168 39 -168 282v625h-164z" />
<glyph unicode="&#x164;" horiz-adv-x="1366" d="M31 1434h1304q0 -49 -4 -115t-10 -133.5t-14.5 -130t-16.5 -105.5h-86l-131 350h-237v-1163q53 -10 105 -24.5t93 -34.5v-78h-704v78q41 16 93 33.5t105 25.5v1163h-237l-131 -350h-84q-8 41 -16.5 104.5t-14.5 131t-10 134t-4 114.5zM369 1778q6 23 27.5 46t42.5 23 l258 -112l245 112q16 0 40 -21.5t30 -41.5l-260 -230q-8 -6 -24.5 -9t-36 -3t-37 3t-29.5 9z" />
<glyph unicode="&#x165;" horiz-adv-x="796" d="M16 895v80q78 49 164 69v166q12 12 42 23.5t63.5 21t66.5 17.5t54 12h69v-260h270v-129h-270v-530q0 -127 32 -176.5t105 -49.5q37 0 83 5.5t85 19.5l15 -68q-18 -18 -54 -38.5t-82.5 -39t-100.5 -31t-114 -12.5q-133 0 -198.5 70t-65.5 225v625h-164zM543 1125 q20 45 37.5 98t28 106.5t16.5 104.5t6 92l43 51q14 2 46 -3t68 -14t68.5 -21.5t48.5 -26.5q-10 -57 -41.5 -122t-75.5 -125t-93.5 -108.5t-92.5 -72.5z" />
<glyph unicode="&#x16a;" horiz-adv-x="1464" d="M14 1356v78h631v-78q-68 -43 -156 -60v-788q0 -100 23 -168t66 -110t103 -60t136 -18q68 0 124 19t98 62t64.5 113t22.5 172v768q-47 10 -97 28.5t-83 41.5v78h508v-78q-37 -27 -82 -43.5t-88 -26.5v-770q0 -262 -138 -398t-390 -136q-274 0 -424 122.5t-150 393.5v798 q-41 6 -86 21.5t-82 38.5zM469 1595v144h663v-144h-663z" />
<glyph unicode="&#x16b;" horiz-adv-x="1273" d="M23 895v80q33 12 81 24.5t99 21.5t99 16t81 12h70q0 -154 -6.5 -302.5t-6.5 -291.5q0 -168 34 -242t126 -74q63 0 117.5 48.5t89.5 154.5v537l-133 16v80q31 12 77 24.5t96 21.5t99 16t86 12h70v-904l135 -16v-72q-29 -12 -72 -24.5t-90 -23.5t-93 -18t-83 -11h-70 l-14 243h-8q-10 -43 -37 -87t-69 -80t-99 -58.5t-127 -22.5q-78 0 -138.5 19.5t-103.5 69t-65.5 132.5t-22.5 210q0 129 6.5 239.5t6.5 233.5zM330 1268v143h602v-143h-602z" />
<glyph unicode="&#x16c;" horiz-adv-x="1464" d="M14 1356v78h631v-78q-68 -43 -156 -60v-788q0 -100 23 -168t66 -110t103 -60t136 -18q68 0 124 19t98 62t64.5 113t22.5 172v768q-47 10 -97 28.5t-83 41.5v78h508v-78q-37 -27 -82 -43.5t-88 -26.5v-770q0 -262 -138 -398t-390 -136q-274 0 -424 122.5t-150 393.5v798 q-41 6 -86 21.5t-82 38.5zM447 1794q14 25 44 39t60 10q14 -23 44 -41t65 -30.5t72.5 -19.5t68.5 -7q33 0 70 4t70.5 15.5t63.5 28.5t50 44q14 2 42 -12.5t42 -34.5q-18 -45 -49 -87t-74 -75t-98 -53.5t-119 -20.5q-137 0 -225 64.5t-127 175.5z" />
<glyph unicode="&#x16d;" horiz-adv-x="1273" d="M23 895v80q33 12 81 24.5t99 21.5t99 16t81 12h70q0 -154 -6.5 -302.5t-6.5 -291.5q0 -168 34 -242t126 -74q63 0 117.5 48.5t89.5 154.5v537l-133 16v80q31 12 77 24.5t96 21.5t99 16t86 12h70v-904l135 -16v-72q-29 -12 -72 -24.5t-90 -23.5t-93 -18t-83 -11h-70 l-14 243h-8q-10 -43 -37 -87t-69 -80t-99 -58.5t-127 -22.5q-78 0 -138.5 19.5t-103.5 69t-65.5 132.5t-22.5 210q0 129 6.5 239.5t6.5 233.5zM307 1487l76 45q41 -53 106.5 -88t138.5 -37q154 -4 242 117l68 -41q-18 -55 -47 -107.5t-69 -92.5t-89 -63.5t-107 -23.5 q-59 0 -110 22.5t-92 62.5t-71 93t-46 113z" />
<glyph unicode="&#x16e;" horiz-adv-x="1464" d="M14 1356v78h631v-78q-68 -43 -156 -60v-788q0 -100 23 -168t66 -110t103 -60t136 -18q68 0 124 19t98 62t64.5 113t22.5 172v768q-47 10 -97 28.5t-83 41.5v78h508v-78q-37 -27 -82 -43.5t-88 -26.5v-770q0 -262 -138 -398t-390 -136q-274 0 -424 122.5t-150 393.5v798 q-41 6 -86 21.5t-82 38.5zM537 1614q0 84 73.5 134t198.5 50q53 0 100.5 -11t83 -33.5t56 -55.5t20.5 -78q0 -80 -72.5 -129t-189.5 -49q-131 0 -200.5 47t-69.5 125zM707 1614q0 -35 30.5 -52.5t61.5 -17.5q47 0 73.5 17.5t26.5 50.5q0 47 -27.5 65.5t-66.5 18.5 q-43 0 -70.5 -18.5t-27.5 -63.5z" />
<glyph unicode="&#x16f;" horiz-adv-x="1273" d="M23 895v80q33 12 81 24.5t99 21.5t99 16t81 12h70q0 -154 -6.5 -302.5t-6.5 -291.5q0 -168 34 -242t126 -74q63 0 117.5 48.5t89.5 154.5v537l-133 16v80q31 12 77 24.5t96 21.5t99 16t86 12h70v-904l135 -16v-72q-29 -12 -72 -24.5t-90 -23.5t-93 -18t-83 -11h-70 l-14 243h-8q-10 -43 -37 -87t-69 -80t-99 -58.5t-127 -22.5q-78 0 -138.5 19.5t-103.5 69t-65.5 132.5t-22.5 210q0 129 6.5 239.5t6.5 233.5zM399 1391q0 84 62.5 145t179.5 61q109 0 169 -55t60 -145q0 -86 -63.5 -143.5t-168.5 -57.5q-119 0 -179 54.5t-60 140.5z M552 1395q0 -47 23 -72t57 -25q84 0 84 91q0 55 -23.5 80.5t-58.5 25.5q-82 0 -82 -100z" />
<glyph unicode="&#x170;" horiz-adv-x="1464" d="M14 1356v78h631v-78q-68 -43 -156 -60v-788q0 -100 23 -168t66 -110t103 -60t136 -18q68 0 124 19t98 62t64.5 113t22.5 172v768q-47 10 -97 28.5t-83 41.5v78h508v-78q-37 -27 -82 -43.5t-88 -26.5v-770q0 -262 -138 -398t-390 -136q-274 0 -424 122.5t-150 393.5v798 q-41 6 -86 21.5t-82 38.5zM541 1581l143 238q12 2 44 -3.5t67 -13.5t63.5 -19t34.5 -22v-28l-276 -199zM850 1577l236 242q14 2 45.5 -3.5t67.5 -14.5t66 -21.5t40 -24.5l-2 -20l-373 -205z" />
<glyph unicode="&#x171;" horiz-adv-x="1273" d="M23 895v80q33 12 81 24.5t99 21.5t99 16t81 12h70q0 -154 -6.5 -302.5t-6.5 -291.5q0 -168 34 -242t126 -74q63 0 117.5 48.5t89.5 154.5v537l-133 16v80q31 12 77 24.5t96 21.5t99 16t86 12h70v-904l135 -16v-72q-29 -12 -72 -24.5t-90 -23.5t-93 -18t-83 -11h-70 l-14 243h-8q-10 -43 -37 -87t-69 -80t-99 -58.5t-127 -22.5q-78 0 -138.5 19.5t-103.5 69t-65.5 132.5t-22.5 210q0 129 6.5 239.5t6.5 233.5zM338 1239l139 334q12 4 47 2t73 -8t69.5 -15.5t37.5 -21.5v-49l-282 -283zM606 1243l273 330q14 4 46.5 2t69.5 -10.5t69 -20.5 t44 -28v-46l-426 -272z" />
<glyph unicode="&#x172;" horiz-adv-x="1464" d="M14 1356v78h631v-78q-68 -43 -156 -60v-788q0 -100 23 -168t66 -110t103 -60t136 -18q68 0 124 19t98 62t64.5 113t22.5 172v768q-47 10 -97 28.5t-83 41.5v78h508v-78q-37 -27 -82 -43.5t-88 -26.5v-770q0 -190 -72.5 -313t-210.5 -178q-49 -27 -88 -63t-64.5 -77 t-39.5 -83t-14 -78q0 -53 32.5 -82t77.5 -29q25 0 47.5 2t46.5 8v-88q-29 -23 -84 -40t-120 -17q-125 0 -192.5 58t-67.5 142q0 104 70.5 175t182.5 129h-32q-274 0 -424 122.5t-150 393.5v798q-41 6 -86 21.5t-82 38.5z" />
<glyph unicode="&#x173;" horiz-adv-x="1273" d="M23 895v80q33 12 82 25.5t103 23.5t104 17.5t83 7.5h58q0 -154 -6.5 -302.5t-6.5 -291.5q0 -168 34 -242t126 -74q63 0 117.5 48.5t89.5 154.5v537l-133 16v80q31 12 77 24.5t96 21.5t99 16t86 12h70v-904l135 -16v-72q-20 -10 -43 -17t-51 -17q-80 -47 -127 -121 t-47 -146q0 -39 25.5 -70.5t72.5 -31.5t102 18v-94q-14 -8 -37.5 -15t-49 -13.5t-51 -9.5t-44.5 -3q-141 0 -206.5 55.5t-65.5 133.5q0 84 53 146t156 110l-43 -2h-52l-14 243h-8q-8 -39 -31.5 -80t-59.5 -74.5t-85 -58t-107 -30.5q-23 -2 -44 -3.5t-44 0.5q-68 4 -122 27 t-91 72t-57.5 130t-20.5 200q0 129 6.5 239.5t6.5 233.5z" />
<glyph unicode="&#x178;" horiz-adv-x="1429" d="M0 1356v78h672v-78q-29 -16 -66 -32.5t-86 -27.5l293 -548l279 548q-47 10 -90.5 26.5t-73.5 33.5v78h502v-78q-31 -18 -69 -35.5t-77 -24.5l-397 -696v-463q41 -4 81 -21.5t74 -37.5v-78h-630v78q35 18 77.5 34.5t90.5 24.5v461l-414 698q-47 8 -89 24.5t-77 35.5z M375 1624q0 66 47 98.5t119 32.5t119 -32.5t47 -98.5q0 -57 -47.5 -89t-118.5 -32q-72 0 -119 32t-47 89zM877 1624q0 66 48 98.5t120 32.5t118.5 -32.5t46.5 -98.5q0 -57 -47 -89t-118 -32q-72 0 -120 32t-48 89z" />
<glyph unicode="&#x179;" horiz-adv-x="1298" d="M72 0v133l794 1167h-508l-120 -292h-86q-10 45 -18.5 102t-14.5 115.5t-8 113t-2 95.5h1093v-134l-790 -1167h561l127 299h86q8 -43 15 -97t13.5 -112.5t9.5 -116t3 -106.5h-1155zM539 1575l291 264q33 2 74.5 -4t81.5 -17.5t72 -25.5t44 -29v-41l-506 -196z" />
<glyph unicode="&#x17a;" horiz-adv-x="1056" d="M66 0v80l583 827h-340l-90 -241h-69q-23 88 -37.5 186t-14.5 172h881v-80l-586 -827h355l110 262h70q23 -84 39 -186.5t12 -192.5h-913zM383 1196l221 367q16 4 54 3t79 -7.5t75 -17.5t44 -23v-50l-391 -317z" />
<glyph unicode="&#x17b;" horiz-adv-x="1298" d="M72 0v133l794 1167h-508l-120 -292h-86q-10 45 -18.5 102t-14.5 115.5t-8 113t-2 95.5h1093v-134l-790 -1167h561l127 299h86q8 -43 15 -97t13.5 -112.5t9.5 -116t3 -106.5h-1155zM467 1677q0 66 47 100.5t139 34.5t137.5 -34.5t45.5 -100.5q0 -63 -45.5 -98t-137.5 -35 t-139 35t-47 98z" />
<glyph unicode="&#x17c;" horiz-adv-x="1056" d="M66 0v80l583 827h-340l-90 -241h-69q-23 88 -37.5 186t-14.5 172h881v-80l-586 -827h355l110 262h70q23 -84 39 -186.5t12 -192.5h-913zM356 1360q0 72 49 112.5t127 40.5t127 -40.5t49 -112.5q0 -70 -49 -111t-127 -41t-127 41t-49 111z" />
<glyph unicode="&#x17d;" horiz-adv-x="1298" d="M72 0v133l794 1167h-508l-120 -292h-86q-10 45 -18.5 102t-14.5 115.5t-8 113t-2 95.5h1093v-134l-790 -1167h561l127 299h86q8 -43 15 -97t13.5 -112.5t9.5 -116t3 -106.5h-1155zM338 1778q6 23 27.5 46t42.5 23l258 -112l245 112q16 0 40 -21.5t30 -41.5l-260 -230 q-8 -6 -24.5 -9t-36 -3t-37 3t-29.5 9z" />
<glyph unicode="&#x17e;" horiz-adv-x="1056" d="M66 0v80l583 827h-340l-90 -241h-69q-23 88 -37.5 186t-14.5 172h881v-80l-586 -827h355l110 262h70q23 -84 39 -186.5t12 -192.5h-913zM221 1569q2 6 14.5 15t27.5 17.5t30.5 14.5t25.5 6l228 -190l215 190q20 0 50.5 -19.5t35.5 -31.5l-263 -371q-16 -10 -51 -10 t-55 10z" />
<glyph unicode="&#x17f;" horiz-adv-x="761" d="M47 895v80q72 45 156 67v72q0 127 35.5 210t97 131t144.5 66.5t177 18.5q84 0 150.5 -15.5t101.5 -29.5q-6 -68 -26.5 -139.5t-36.5 -118.5h-70l-90 195q-53 0 -89 -11.5t-57.5 -44.5t-31.5 -93t-10 -157v-997q106 -12 196 -49v-80h-626v80q63 37 135 49v766h-156z" />
<glyph unicode="&#x192;" d="M10 -369q25 12 62 41t73.5 78t68.5 123t48 176l117 846h-143v80q41 23 87 40t87 27l14 72q27 127 73 210t107.5 131t138 66.5t166.5 18.5q66 0 133.5 -11t110.5 -34q4 -29 -3 -62.5t-22.5 -64.5t-37 -55.5t-46.5 -36.5l-145 156q-29 -6 -56.5 -18.5t-52 -44.5t-47 -89 t-43.5 -154l-20 -102h227q4 -23 -1 -62.5t-25 -66.5h-228l-114 -807q-23 -145 -86.5 -241.5t-140 -155t-153.5 -87t-126 -38.5z" />
<glyph unicode="&#x1f4;" horiz-adv-x="1452" d="M80 717q0 201 62.5 341t166 229t234.5 130t268 41q135 0 254 -18.5t188 -53.5q0 -31 -3 -78.5t-9 -103t-15 -111t-22 -100.5h-84l-114 312q-23 10 -68 15t-90 5q-84 0 -162 -32.5t-137.5 -105.5t-94 -188.5t-34.5 -281.5q0 -135 31.5 -247t89 -191.5t137.5 -124.5 t176 -45q31 0 63.5 5t61.5 13t50.5 18.5t29.5 18.5v385q-53 4 -100.5 20.5t-88.5 38.5v78h560v-78q-18 -18 -49 -33.5t-78 -25.5v-459q-41 -20 -100.5 -40.5t-125 -37t-131 -27t-117.5 -10.5q-176 0 -314 46.5t-235.5 139.5t-148.5 232t-51 324zM631 1575l291 264 q33 2 74.5 -4t81.5 -17.5t72 -25.5t44 -29v-41l-506 -196z" />
<glyph unicode="&#x1f5;" horiz-adv-x="1155" d="M33 -172q0 57 22.5 98t63.5 72t95 51.5t120 36.5q-31 8 -59.5 20.5t-51 30t-37 41t-14.5 53.5q0 27 16.5 52.5t43 47t57 39t61.5 29.5q-129 29 -204.5 112t-75.5 212q0 154 127 240t344 86q133 0 221 -28t133 -69q96 104 221 146q14 -10 28.5 -29.5t25 -42t16.5 -45.5 t6 -37l-27 -49h-215q23 -29 42.5 -75t19.5 -109q0 -68 -29 -127.5t-87 -105.5t-147.5 -72.5t-207.5 -26.5q-35 0 -62.5 1t-48.5 5q-8 -12 -17.5 -29.5t-9.5 -33.5q0 -35 49.5 -55.5t125 -37t162.5 -37t163 -54.5t127 -88t53 -140q2 -82 -41 -145.5t-117.5 -107.5t-176 -67.5 t-216.5 -23.5q-135 0 -230 21.5t-154.5 58.5t-87 84t-27.5 98zM328 -119q0 -94 64.5 -146t180.5 -52q115 0 170.5 47.5t55.5 113.5q0 55 -34 89t-87 55.5t-119.5 37t-132.5 35.5q-53 -41 -75.5 -81.5t-22.5 -98.5zM365 713q0 -106 35.5 -161.5t140.5 -55.5q100 0 138 56 t38 161q0 111 -39 165t-137 54q-102 0 -139 -53t-37 -166zM445 1196l221 367q16 4 54 3t79 -7.5t75 -17.5t44 -23v-50l-391 -317z" />
<glyph unicode="&#x218;" horiz-adv-x="1142" d="M86 72q2 47 10 101t17.5 108.5t19.5 103.5t21 86h84l84 -301q23 -23 63.5 -42t108.5 -19q113 0 187.5 58t74.5 163q0 76 -48.5 127t-122 94t-157.5 85t-157.5 99.5t-122 136t-48.5 195.5q0 100 37 174t101.5 122t152.5 71.5t191 23.5q125 0 232.5 -17.5t193.5 -54.5 q-2 -41 -7.5 -94t-13.5 -105t-17 -98.5t-18 -76.5h-84l-94 280q-25 12 -73 22.5t-99 10.5q-86 0 -145.5 -45t-59.5 -131q0 -78 49.5 -132t123 -99.5t160.5 -89.5t161 -101t123 -134t49 -190q0 -205 -138.5 -316.5t-406.5 -111.5q-66 0 -132.5 8.5t-125.5 22.5t-105 30.5 t-69 35.5zM389 -227.5q8 34.5 28.5 64.5t49.5 49.5t59 23.5q43 -2 85 -15.5t75 -39t53.5 -64.5t20.5 -90t-22.5 -99t-62.5 -87t-95.5 -66t-120.5 -33l-27 90q47 12 83 44t34 77q-29 29 -70 47.5t-86 30.5q-12 33 -4 67.5z" />
<glyph unicode="&#x219;" horiz-adv-x="925" d="M59 53q4 74 35 150t66 135h69l101 -223q23 -16 50.5 -19.5t51.5 -3.5q59 0 108.5 35t49.5 96q0 53 -38 92t-94.5 72t-123 65.5t-122.5 76.5t-94 103.5t-38 145.5q0 61 28.5 111.5t78 85.5t118 54.5t148.5 19.5q111 0 206 -17.5t166 -48.5q-8 -66 -32.5 -140.5 t-47.5 -135.5h-69l-86 208q-25 10 -51.5 13.5t-59.5 3.5q-61 0 -93 -36t-32 -81q0 -51 38 -89t94.5 -70.5t123 -65.5t122.5 -75t94 -99.5t38 -136.5q0 -141 -114.5 -222.5t-307.5 -81.5q-98 0 -202.5 20.5t-180.5 57.5zM276 -221q8 35 26.5 63.5t44 48t54.5 23.5 q80 -2 142.5 -53t62.5 -156q0 -49 -18.5 -97t-53.5 -88t-86 -67.5t-119 -36.5l-22 92q61 16 87.5 53.5t26.5 71.5q-25 29 -63.5 46.5t-79.5 31.5q-10 33 -2 68z" />
<glyph unicode="&#x21a;" horiz-adv-x="1366" d="M31 1434h1304q0 -49 -4 -115t-10 -133.5t-14.5 -130t-16.5 -105.5h-86l-131 350h-237v-1163q53 -10 105 -24.5t93 -34.5v-78h-704v78q41 16 93 33.5t105 25.5v1163h-237l-131 -350h-84q-8 41 -16.5 104.5t-14.5 131t-10 134t-4 114.5zM510 -227.5q8 34.5 28.5 64.5 t49.5 49.5t59 23.5q43 -2 85 -15.5t75 -39t53.5 -64.5t20.5 -90t-22.5 -99t-62.5 -87t-95.5 -66t-120.5 -33l-27 90q47 12 83 44t34 77q-29 29 -70 47.5t-86 30.5q-12 33 -4 67.5z" />
<glyph unicode="&#x21b;" horiz-adv-x="817" d="M16 895v80q78 49 164 69v166q12 12 42 23.5t63.5 21t66.5 17.5t54 12h69v-260h270v-129h-270v-530q0 -127 32 -176.5t105 -49.5q37 0 83 5.5t85 19.5l15 -68q-18 -18 -54 -38.5t-82.5 -39t-100.5 -31t-114 -12.5q-133 0 -198.5 70t-65.5 225v625h-164zM274 -221 q8 35 26.5 63.5t44 48t54.5 23.5q80 -2 142.5 -53t62.5 -156q0 -49 -18.5 -97t-53.5 -88t-86 -67.5t-119 -36.5l-22 92q61 16 87.5 53.5t26.5 71.5q-25 29 -63.5 46.5t-79.5 31.5q-10 33 -2 68z" />
<glyph unicode="&#x237;" horiz-adv-x="655" d="M55 -373q25 12 49.5 40t46 77t35 124t13.5 181v830l-136 16v80q31 14 76 26.5t96.5 21.5t101.5 15t87 11h70v-961q0 -96 -24 -172t-61.5 -131t-83.5 -94t-90.5 -64.5t-81 -40t-57.5 -20.5z" />
<glyph unicode="&#x2bc;" horiz-adv-x="614" d="M125 942q80 20 125 71.5t41 106.5q-27 33 -67 52.5t-85 33.5q-10 37 -3 75t27.5 69.5t48.5 54t56 27.5q41 -2 82 -17.5t73 -43.5t51.5 -70t19.5 -99q0 -55 -25 -112.5t-69 -106.5t-105 -85t-133 -50z" />
<glyph unicode="&#x2c6;" horiz-adv-x="811" d="M123 1233l225 381q12 10 50 11t57 -11l233 -379l-84 -53l-211 200l-184 -200z" />
<glyph unicode="&#x2c7;" horiz-adv-x="872" d="M123 1569q2 6 14.5 15t27.5 17.5t30.5 14.5t25.5 6l228 -190l215 190q20 0 50.5 -19.5t35.5 -31.5l-263 -371q-16 -10 -51 -10t-55 10z" />
<glyph unicode="&#x2d8;" horiz-adv-x="876" d="M123 1487l76 45q41 -53 106.5 -88t138.5 -37q154 -4 242 117l68 -41q-18 -55 -47 -107.5t-69 -92.5t-89 -63.5t-107 -23.5q-59 0 -110 22.5t-92 62.5t-71 93t-46 113z" />
<glyph unicode="&#x2d9;" horiz-adv-x="598" d="M123 1360q0 72 49 112.5t127 40.5t127 -40.5t49 -112.5q0 -70 -49 -111t-127 -41t-127 41t-49 111z" />
<glyph unicode="&#x2da;" horiz-adv-x="716" d="M123 1391q0 84 62.5 145t179.5 61q109 0 169 -55t60 -145q0 -86 -63.5 -143.5t-168.5 -57.5q-119 0 -179 54.5t-60 140.5zM276 1395q0 -47 23 -72t57 -25q84 0 84 91q0 55 -23.5 80.5t-58.5 25.5q-82 0 -82 -100z" />
<glyph unicode="&#x2db;" horiz-adv-x="706" d="M123 -274q0 111 92 186.5t264 128.5h105q-94 -47 -150.5 -127t-56.5 -158q0 -39 24.5 -70.5t73.5 -31.5q47 0 103 18v-94q-14 -8 -38 -15t-49.5 -13.5t-51 -9.5t-44.5 -3q-141 0 -206.5 55.5t-65.5 133.5z" />
<glyph unicode="&#x2dc;" horiz-adv-x="911" d="M123 1348q76 78 144.5 108.5t115.5 30.5q37 0 68.5 -10.5t60.5 -22.5t58.5 -22.5t60.5 -10.5q27 0 53.5 5.5t58.5 25.5l45 -86q-61 -70 -126.5 -101.5t-112.5 -31.5q-37 0 -70 11t-63.5 23.5t-60 24t-60.5 11.5q-27 0 -54.5 -9.5t-60.5 -31.5z" />
<glyph unicode="&#x2dd;" horiz-adv-x="1015" d="M123 1239l139 334q12 4 47 2t73 -8t69.5 -15.5t37.5 -21.5v-49l-282 -283zM391 1243l273 330q14 4 46.5 2t69.5 -10.5t69 -20.5t44 -28v-46l-426 -272z" />
<glyph unicode="&#x301;" horiz-adv-x="4" d="M-606 1196l221 367q16 4 54 3t79 -7.5t75 -17.5t44 -23v-50l-391 -317z" />
<glyph unicode="&#x394;" horiz-adv-x="1355" d="M41 0v92l600 1342h86l588 -1342v-92h-1274zM223 154h754l-363 884z" />
<glyph unicode="&#x3a9;" horiz-adv-x="1632" d="M61 0q0 37 3.5 98.5t9.5 129t13 133t15 110.5h70l90 -242h344q-90 33 -176 86.5t-153.5 127t-108.5 170t-41 216.5q0 147 51 264t144.5 198t223.5 124t285 43q160 0 286 -42t213 -120.5t134 -193.5t47 -262q0 -127 -44 -228.5t-112.5 -176.5t-151.5 -126t-159 -80h324 l92 242h70q8 -47 16 -113.5t13.5 -134t8.5 -128t3 -95.5h-651v244q43 20 88 71.5t81.5 125t60.5 166.5t24 200q0 240 -87.5 379t-255.5 139q-100 0 -169.5 -36t-113.5 -100.5t-63.5 -155.5t-19.5 -204q0 -111 26.5 -207t66.5 -172.5t87 -130t88 -75.5v-244h-672z" />
<glyph unicode="&#x3c0;" horiz-adv-x="1388" d="M82 735q12 74 31.5 130.5t54.5 95t89 58t136 17.5q23 0 89.5 -2t153.5 -4t185.5 -4t182.5 -2q66 0 108.5 1t70 7t47 16.5t40.5 28.5l37 -18q-4 -102 -51.5 -160.5t-135.5 -58.5h-24v-693l135 -16v-72q-29 -12 -72 -25.5t-93 -23.5t-104.5 -18t-103.5 -10h-70v858h-299 v-252q0 -195 -21.5 -344.5t-59.5 -243.5q-18 -10 -61.5 -11t-87.5 0t-76.5 5t-32.5 6l-13 18q45 63 85 163t70 213.5t46 230t16 215.5h-35q-57 0 -101 -30t-91 -91z" />
<glyph unicode="&#x401;" horiz-adv-x="1236" d="M41 0v78q35 18 78 34.5t90 24.5v1159q-41 8 -87 23.5t-81 36.5v78h1077q-4 -92 -14 -190.5t-27 -184.5h-84l-94 241h-383v-501h250l90 157h66q10 -100 10 -223t-10 -229h-66l-90 162h-250v-533h399l109 260h84q8 -39 16.5 -88t13.5 -101t8 -105.5t3 -98.5h-1108z M195 1624q0 66 47 98.5t119 32.5t119 -32.5t47 -98.5q0 -57 -47.5 -89t-118.5 -32q-72 0 -119 32t-47 89zM697 1624q0 66 48 98.5t120 32.5t118.5 -32.5t46.5 -98.5q0 -57 -47 -89t-118 -32q-72 0 -120 32t-48 89z" />
<glyph unicode="&#x402;" horiz-adv-x="1644" d="M20 1434h1305q0 -49 -4 -105.5t-10 -113t-14.5 -108.5t-16.5 -95h-86l-131 288h-238v-507q57 33 153.5 61.5t211.5 28.5q82 0 154.5 -17.5t127 -62.5t86 -123t31.5 -201q0 -147 -34.5 -242.5t-101.5 -150.5t-162 -75.5t-216 -16.5l-12 92q57 12 98 33.5t67.5 59.5 t40 97.5t13.5 149.5q0 72 -9 129t-32.5 98t-65.5 63.5t-110 22.5t-128 -19.5t-112 -49.5v-533q35 -10 66 -26.5t57 -32.5v-78h-629v78q41 16 93.5 33.5t105.5 25.5v1163h-237l-131 -350h-84q-8 41 -16.5 104.5t-14.5 131t-10.5 134t-4.5 114.5z" />
<glyph unicode="&#x403;" horiz-adv-x="1112" d="M41 0v78q90 45 168 59v1159q-41 8 -85 22.5t-83 37.5v78h1049q0 -49 -2.5 -113t-6.5 -131.5t-12 -132t-16 -115.5h-84l-129 358h-324v-1163q51 -8 101.5 -24.5t95.5 -34.5v-78h-672zM459 1575l291 264q33 2 74.5 -4t81.5 -17.5t72 -25.5t44 -29v-41l-506 -196z" />
<glyph unicode="&#x404;" horiz-adv-x="1320" d="M80 719q0 195 58.5 335t156.5 230t228 132t274 42q135 0 244.5 -19.5t179.5 -52.5q0 -33 -3.5 -84t-10.5 -107t-16 -110.5t-17 -91.5h-87l-112 310q-18 10 -59.5 16t-84.5 6q-80 0 -151.5 -30.5t-126.5 -97.5t-90 -170t-41 -247l551 33q18 -49 19 -110.5t-9 -102.5 q-127 18 -276.5 27.5t-284.5 13.5q14 -256 128 -394t304 -138q57 0 97 9t55 25l100 287h84q8 -33 15 -79t12.5 -98t7.5 -103.5t2 -92.5q-72 -45 -179.5 -63.5t-220.5 -18.5q-170 0 -308 42t-235.5 133.5t-150.5 231.5t-53 337z" />
<glyph unicode="&#x405;" horiz-adv-x="1142" d="M86 72q2 47 10 101t17.5 108.5t19.5 103.5t21 86h84l84 -301q23 -23 63.5 -42t108.5 -19q113 0 187.5 58t74.5 163q0 76 -48.5 127t-122 94t-157.5 85t-157.5 99.5t-122 136t-48.5 195.5q0 100 37 174t101.5 122t152.5 71.5t191 23.5q125 0 232.5 -17.5t193.5 -54.5 q-2 -41 -7.5 -94t-13.5 -105t-17 -98.5t-18 -76.5h-84l-94 280q-25 12 -73 22.5t-99 10.5q-86 0 -145.5 -45t-59.5 -131q0 -78 49.5 -132t123 -99.5t160.5 -89.5t161 -101t123 -134t49 -190q0 -205 -138.5 -316.5t-406.5 -111.5q-66 0 -132.5 8.5t-125.5 22.5t-105 30.5 t-69 35.5z" />
<glyph unicode="&#x406;" horiz-adv-x="761" d="M61 0v78q82 45 166 59v1159q-41 6 -86 22.5t-80 37.5v78h639v-78q-37 -23 -81 -38t-84 -22v-1159q41 -8 85 -22.5t80 -36.5v-78h-639z" />
<glyph unicode="&#x407;" horiz-adv-x="761" d="M25 1624q0 66 39.5 98.5t111.5 32.5t112 -32.5t40 -98.5q0 -57 -40 -89t-112 -32t-111.5 32t-39.5 89zM61 0v78q82 45 166 59v1159q-41 6 -86 22.5t-80 37.5v78h639v-78q-37 -23 -81 -38t-84 -22v-1159q41 -8 85 -22.5t80 -36.5v-78h-639zM432 1624q0 66 41 98.5 t113 32.5q150 0 149 -131q0 -57 -39 -89t-110 -32q-72 0 -113 32t-41 89z" />
<glyph unicode="&#x408;" horiz-adv-x="747" d="M55 1356v78h631v-78q-33 -20 -74 -36.5t-82 -23.5v-1048q0 -168 -50 -275.5t-118.5 -170t-140 -91t-117.5 -39.5l-38 54q31 25 59.5 62.5t50 97t34.5 144.5t13 206v1060q-45 10 -89 23.5t-79 36.5z" />
<glyph unicode="&#x409;" horiz-adv-x="1984" d="M-12 260l55 78l244 -59q27 57 52.5 138t46 199.5t32.5 280.5t12 379q-63 10 -119.5 32.5t-97.5 47.5v78h1194v-78q-39 -20 -85 -35.5t-95 -24.5v-438q37 6 88 10t92 4q106 0 201.5 -20.5t166 -69.5t112.5 -131t42 -205q0 -115 -45 -199.5t-123 -141t-182 -84t-223 -27.5 q-10 0 -42 1t-74 2t-85 2t-74 1h-317v78q37 20 76 35.5t80 23.5v1163h-334q-6 -311 -28.5 -519t-55.5 -343t-73 -214t-83 -136q-39 -53 -98.5 -83t-114.5 -30q-27 10 -51.5 42t-45 73t-33.5 86t-15 84zM1227 135q16 -4 53 -6t55 -2q117 0 186.5 76t69.5 243q0 293 -258 293 q-68 0 -106 -12v-592z" />
<glyph unicode="&#x40a;" horiz-adv-x="2123" d="M41 0v78q35 18 81 34.5t87 24.5v1159q-49 8 -94 24.5t-74 35.5v78h621v-78q-31 -20 -69 -36.5t-77 -23.5v-469h543v469q-41 8 -73 21.5t-73 38.5v78h633v-78q-39 -20 -85 -35.5t-95 -24.5v-471q37 6 88 10.5t92 4.5q106 0 201.5 -19.5t166.5 -67.5t112.5 -127t41.5 -198 q0 -115 -45 -196.5t-122.5 -134t-182 -78t-223.5 -25.5q-10 0 -42 1t-74 2t-85 2t-73 1h-308v78q35 23 69 37t77 22v557h-543v-557q41 -8 76 -22.5t70 -36.5v-78h-621zM1366 135q16 -4 53 -6t56 -2q115 0 185.5 68.5t70.5 232.5q0 143 -64.5 211t-193.5 68q-68 0 -107 -13 v-559z" />
<glyph unicode="&#x40b;" horiz-adv-x="1726" d="M20 1434h1305q-2 -100 -15.5 -215t-29.5 -203h-86l-131 284h-238v-512q57 35 148.5 64t206.5 29q82 0 153.5 -17.5t123.5 -60.5t82 -118t30 -189v-359q39 -6 78 -22.5t69 -36.5v-78h-454v424q0 72 -7.5 129t-29 98t-62.5 63.5t-108 22.5q-68 0 -123 -19.5t-107 -51.5 v-529q35 -10 68 -26.5t59 -32.5v-78h-633v78q41 16 93.5 33.5t105.5 25.5v1163h-237l-131 -350h-84q-8 41 -16.5 104.5t-14.5 131t-10.5 134t-4.5 114.5z" />
<glyph unicode="&#x40c;" horiz-adv-x="1454" d="M41 0v78q41 20 84 35.5t84 23.5v1159q-47 6 -91 22.5t-77 37.5v78h621v-78q-27 -16 -65 -32.5t-81 -27.5v-520l121 29l330 491q-41 8 -81 25.5t-69 34.5v78h549v-78q-35 -23 -80 -38t-82 -22l-389 -493q47 -66 110.5 -149t135.5 -172t147.5 -180t147.5 -173l98 -59v-70 h-356l-82 57q-49 61 -103.5 136t-107.5 156t-104.5 163t-96.5 160h-88v-535q45 -8 82 -24.5t64 -34.5v-78h-621zM547 1575l291 264q33 2 74.5 -4t81.5 -17.5t72 -25.5t44 -29v-41l-506 -196z" />
<glyph unicode="&#x40e;" horiz-adv-x="1400" d="M0 1356v78h639v-78q-61 -37 -156 -60l289 -555l43 -131h4l41 135l203 551q-49 10 -86 25.5t-72 34.5v78h496v-78q-23 -16 -60.5 -31.5t-85.5 -28.5l-391 -884q-98 -225 -204.5 -335t-227.5 -87q-16 16 -33.5 50t-33 72t-25.5 73.5t-12 60.5l57 82l244 -76q16 18 30.5 45 t26.5 59l-545 940q-39 10 -74.5 25.5t-66.5 34.5zM344 1788q37 27 97.5 35t111.5 10l69 -37v-160q29 -14 67 -19t75 -5q29 0 70.5 4t70.5 14v166l70 37q37 4 96 -7t104 -38q0 -131 -110 -200.5t-303 -69.5q-94 0 -171 17t-132.5 51t-85 85t-29.5 117z" />
<glyph unicode="&#x40f;" horiz-adv-x="1552" d="M41 0v78q39 23 83 37t85 22v1159q-55 8 -96 24.5t-72 35.5v78h614v-78q-33 -20 -65.5 -35.5t-73.5 -24.5v-1163h520v1163q-53 10 -85.5 26.5t-53.5 33.5v78h614v-78q-45 -27 -86 -41.5t-82 -18.5v-1159q43 -8 86.5 -21.5t81.5 -37.5v-78h-583q-14 -98 -46 -206.5 t-61 -203.5h-90q-35 102 -62.5 207t-43.5 203h-584z" />
<glyph unicode="&#x410;" horiz-adv-x="1492" d="M0 0v78q33 20 71 35.5t74 23.5l529 1321h151l514 -1321q41 -8 82 -23.5t72 -35.5v-78h-641v78q39 18 84 34.5t86 24.5l-119 326h-454l-121 -326q94 -12 178 -59v-78h-506zM498 596h362l-133 391l-39 176h-4l-45 -180z" />
<glyph unicode="&#x411;" horiz-adv-x="1312" d="M41 0v78q39 23 81 38t87 21v1159q-96 16 -168 60v78h1100q0 -47 -4 -104.5t-10.5 -115t-14.5 -110.5t-16 -96h-84l-127 292h-369v-466l45 5t54.5 5t55 3t48.5 1q104 0 198.5 -22.5t165 -73t112.5 -130t42 -192.5q0 -109 -44 -190.5t-121 -136t-182.5 -82t-227.5 -27.5 q-10 0 -51.5 1t-92.5 2l-102 2t-82 1h-293zM516 135q8 -2 25.5 -4t36 -3t36 -1h27.5q121 0 189.5 78t68.5 219q0 135 -63.5 213t-204.5 78q-33 0 -63.5 -3t-51.5 -10v-567z" />
<glyph unicode="&#x412;" horiz-adv-x="1329" d="M41 0v78q39 23 83 39t85 20v1159q-41 8 -86 23.5t-82 36.5v78h330q78 0 147.5 6t159.5 6q98 0 190.5 -14.5t164 -51.5t114.5 -103.5t43 -170.5q0 -66 -23.5 -122t-65.5 -99t-98.5 -72t-121.5 -41v-8q66 -8 132 -30.5t119.5 -65.5t87 -107.5t33.5 -152.5q0 -111 -49 -191 t-132 -131t-189.5 -74.5t-220.5 -23.5q-43 0 -94.5 2t-102.5 4t-99.5 4t-80.5 2h-244zM504 135q29 -6 60.5 -10t94.5 -4q129 0 203 76.5t74 203.5q0 78 -24.5 128.5t-67.5 80t-102.5 41t-129.5 11.5h-108v-527zM504 795h65q35 0 70 3t66 7q80 33 129 101.5t49 156.5 q0 129 -67.5 189.5t-174.5 60.5q-45 0 -78 -2t-59 -6v-510z" />
<glyph unicode="&#x413;" horiz-adv-x="1112" d="M41 0v78q90 45 168 59v1159q-41 8 -85 22.5t-83 37.5v78h1049q0 -49 -2.5 -113t-6.5 -131.5t-12 -132t-16 -115.5h-84l-129 358h-324v-1163q51 -8 101.5 -24.5t95.5 -34.5v-78h-672z" />
<glyph unicode="&#x414;" horiz-adv-x="1488" d="M0 133h178q57 86 105.5 213t82 277.5t51 317.5t17.5 335q-53 10 -110.5 30.5t-106.5 49.5v78h1178v-78q-72 -39 -168 -60v-1163h239q0 -47 -4 -107.5t-11 -124t-16.5 -125t-21.5 -110.5h-80l-110 334h-979l-111 -334h-80q-12 51 -22.5 114.5t-17.5 128t-10 124t-3 100.5z M348 133h572v1167h-330q-10 -238 -35 -426t-58.5 -331.5t-72.5 -244.5t-76 -165z" />
<glyph unicode="&#x415;" horiz-adv-x="1236" d="M41 0v78q35 18 78 34.5t90 24.5v1159q-41 8 -87 23.5t-81 36.5v78h1077q-4 -92 -14 -190.5t-27 -184.5h-84l-94 241h-383v-501h250l90 157h66q10 -100 10 -223t-10 -229h-66l-90 162h-250v-533h399l109 260h84q8 -39 16.5 -88t13.5 -101t8 -105.5t3 -98.5h-1108z" />
<glyph unicode="&#x416;" horiz-adv-x="2095" d="M0 0v70l84 49q74 82 143.5 170t133 174t119 166t102.5 145l-367 522q-41 10 -76 26.5t-61 33.5v78h540v-78q-27 -16 -63.5 -32.5t-77.5 -27.5l295 -503h131v503q-41 10 -74.5 26.5t-58.5 33.5v78h533v-78q-20 -14 -50 -29.5t-71 -30.5v-522l139 31l295 491 q-41 10 -79 26.5t-71 33.5v78h543v-78q-31 -16 -68.5 -32.5t-78.5 -27.5l-369 -501q53 -70 113.5 -154t125 -173t135 -178t144.5 -171l84 -49v-70h-346l-88 70q-59 70 -108.5 143.5t-92.5 149t-83 154.5t-85 159h-110v-539q35 -10 67.5 -25.5t63.5 -33.5v-78h-553v78 q29 18 64.5 33.5t78.5 25.5v557l-117 -30q-86 -166 -164.5 -311.5t-187.5 -282.5l-88 -70h-346z" />
<glyph unicode="&#x417;" horiz-adv-x="1187" d="M78 55q0 33 7 80t17.5 97.5t23.5 100.5t26 91h86l81 -291q23 -10 73 -17t93 -7q135 0 217 77.5t82 210.5q0 145 -71.5 206t-192.5 61l-158 -27q-10 37 -12 84t10 86h66q35 -2 81 1t79 7q78 33 120 95.5t42 158.5q0 121 -62.5 188.5t-177.5 67.5q-49 0 -89 -11t-54 -28 l-101 -260h-86q-8 31 -16 71t-14.5 86t-11.5 94t-5 93q39 27 91 43.5t106.5 26.5t107.5 14t96 4q98 0 194.5 -14t171.5 -54t121 -109t46 -175q0 -104 -68.5 -199.5t-208.5 -138.5v-8q63 -10 122 -37t104 -70t71.5 -104.5t26.5 -140.5q0 -109 -43 -191t-121 -135t-187.5 -80 t-244.5 -27q-57 0 -119.5 6.5t-122 16.5t-110.5 25.5t-86 31.5z" />
<glyph unicode="&#x418;" horiz-adv-x="1595" d="M41 0v78q39 20 82 36.5t86 22.5v1159q-41 10 -86 23.5t-82 36.5v78h616v-78q-31 -18 -69.5 -34.5t-83.5 -25.5v-778l-21 -160l101 168l516 721v49q-96 23 -162 60v78h616v-78q-35 -23 -78.5 -36t-89.5 -24v-1159q47 -8 89.5 -23.5t78.5 -35.5v-78h-616v78q29 14 69 31.5 t85 27.5v776l20 162l-92 -162l-524 -731v-45q47 -10 88 -26.5t73 -32.5v-78h-616z" />
<glyph unicode="&#x419;" horiz-adv-x="1595" d="M41 0v78q39 20 82 36.5t86 22.5v1159q-41 10 -86 23.5t-82 36.5v78h616v-78q-31 -18 -69.5 -34.5t-83.5 -25.5v-778l-21 -160l101 168l516 721v49q-96 23 -162 60v78h616v-78q-35 -23 -78.5 -36t-89.5 -24v-1159q47 -8 89.5 -23.5t78.5 -35.5v-78h-616v78q29 14 69 31.5 t85 27.5v776l20 162l-92 -162l-524 -731v-45q47 -10 88 -26.5t73 -32.5v-78h-616zM389 1788q37 27 97.5 35t111.5 10l69 -37v-160q29 -14 67 -19t75 -5q29 0 70.5 4t70.5 14v166l70 37q37 4 96 -7t104 -38q0 -131 -110 -200.5t-303 -69.5q-94 0 -171 17t-132.5 51t-85 85 t-29.5 117z" />
<glyph unicode="&#x41a;" horiz-adv-x="1454" d="M41 0v78q41 20 84 35.5t84 23.5v1159q-47 6 -91 22.5t-77 37.5v78h621v-78q-27 -16 -65 -32.5t-81 -27.5v-520l121 29l330 491q-41 8 -81 25.5t-69 34.5v78h549v-78q-35 -23 -80 -38t-82 -22l-389 -493q47 -66 110.5 -149t135.5 -172t147.5 -180t147.5 -173l98 -59v-70 h-356l-82 57q-49 61 -103.5 136t-107.5 156t-104.5 163t-96.5 160h-88v-535q45 -8 82 -24.5t64 -34.5v-78h-621z" />
<glyph unicode="&#x41b;" horiz-adv-x="1435" d="M-12 260l55 78l244 -59q27 57 52.5 138t46 199.5t32.5 280.5t12 379q-63 10 -119.5 32.5t-97.5 47.5v78h1182v-78q-31 -18 -75 -34.5t-93 -25.5v-1159q47 -8 89 -24.5t79 -34.5v-78h-631v78q35 18 75 33.5t81 25.5v1163h-334q-6 -311 -28.5 -519t-55.5 -343t-73 -214 t-83 -136q-39 -53 -98.5 -83t-114.5 -30q-27 10 -51.5 42t-45 73t-33.5 86t-15 84z" />
<glyph unicode="&#x41c;" horiz-adv-x="1904" d="M41 0v78q33 16 81 38.5t91 30.5v1149q-41 8 -87 22.5t-81 37.5v78h555l313 -834l60 -197h2l61 201l320 830h508v-78q-35 -20 -75 -35.5t-81 -24.5v-1161q43 -8 83 -24.5t71 -32.5v-78h-613v78q41 20 80 34.5t84 24.5v856l10 240h-16l-68 -219l-395 -1014h-94l-393 1006 l-74 239h-18l2 -260v-840q39 -8 86 -26.5t88 -40.5v-78h-500z" />
<glyph unicode="&#x41d;" horiz-adv-x="1574" d="M41 0v78q35 18 81 34.5t87 24.5v1159q-49 8 -94 24.5t-74 35.5v78h621v-78q-31 -20 -69 -36.5t-77 -23.5v-495h543v495q-45 8 -81 24.5t-65 35.5v78h621v-78q-35 -23 -80 -37t-88 -23v-1159q47 -8 91 -24.5t77 -34.5v-78h-621v78q31 18 68 34.5t78 24.5v531h-543v-531 q41 -8 76 -22.5t70 -36.5v-78h-621z" />
<glyph unicode="&#x41e;" horiz-adv-x="1544" d="M80 717q0 160 45 296t133 235.5t217 154.5t297 55t297 -55t216 -154.5t132 -235.5t45 -296t-45 -296t-132 -235.5t-216 -155t-297 -55.5t-297 55.5t-217 155t-133 235.5t-45 296zM428 717q0 -131 20.5 -243t64.5 -192.5t112.5 -126.5t165.5 -46q88 0 149 46t100 126.5 t56.5 192.5t17.5 243t-19.5 242.5t-61.5 192.5t-110.5 127t-166.5 46q-94 0 -157.5 -46t-101.5 -127t-53.5 -192.5t-15.5 -242.5z" />
<glyph unicode="&#x41f;" horiz-adv-x="1552" d="M41 0v78q31 16 72 33.5t96 25.5v1159q-41 8 -85 22.5t-83 37.5v78h1470v-78q-39 -25 -82 -38t-86 -22v-1159q76 -8 168 -59v-78h-614v78q20 16 53 31.5t86 27.5v1163h-520v-1163q41 -10 74 -24.5t65 -34.5v-78h-614z" />
<glyph unicode="&#x420;" horiz-adv-x="1310" d="M41 0v78q39 23 83 37t85 22v1159q-47 8 -90 23.5t-78 36.5v78h258q82 0 187.5 8t193.5 8q109 0 212 -21.5t184 -72.5t130 -136t49 -212q0 -121 -48 -209t-128 -145.5t-184 -85t-215 -27.5h-32.5t-48.5 1t-49.5 2t-33.5 3v-410q55 -8 109.5 -23.5t97.5 -35.5v-78h-682z M516 682q18 -6 55 -7t60 -1q55 0 106 18.5t91 57t65 100t25 147.5q0 164 -80 242t-211 78q-41 0 -64.5 -3t-46.5 -9v-623z" />
<glyph unicode="&#x421;" horiz-adv-x="1335" d="M80 719q0 195 58.5 335t156.5 230t228 132t274 42q135 0 244.5 -19.5t179.5 -52.5q0 -33 -3.5 -84t-10.5 -107t-16 -110.5t-17 -91.5h-87l-112 310q-18 10 -59.5 16t-84.5 6q-84 0 -157.5 -34t-131 -107.5t-90 -189t-32.5 -277.5q0 -293 116.5 -450.5t317.5 -157.5 q57 0 97 9t55 25l100 287h84q8 -33 15 -79t12.5 -98t7.5 -103.5t2 -92.5q-72 -45 -179.5 -63.5t-220.5 -18.5q-170 0 -308 42t-235.5 133.5t-150.5 231.5t-53 337z" />
<glyph unicode="&#x422;" horiz-adv-x="1366" d="M31 1434h1304q0 -49 -4 -115t-10 -133.5t-14.5 -130t-16.5 -105.5h-86l-131 350h-237v-1163q53 -10 105 -24.5t93 -34.5v-78h-704v78q41 16 93 33.5t105 25.5v1163h-237l-131 -350h-84q-8 41 -16.5 104.5t-14.5 131t-10 134t-4 114.5z" />
<glyph unicode="&#x423;" horiz-adv-x="1400" d="M0 1356v78h639v-78q-61 -37 -156 -60l289 -555l43 -131h4l41 135l203 551q-49 10 -86 25.5t-72 34.5v78h496v-78q-23 -16 -60.5 -31.5t-85.5 -28.5l-391 -884q-98 -225 -204.5 -335t-227.5 -87q-16 16 -33.5 50t-33 72t-25.5 73.5t-12 60.5l57 82l244 -76q16 18 30.5 45 t26.5 59l-545 940q-39 10 -74.5 25.5t-66.5 34.5z" />
<glyph unicode="&#x424;" horiz-adv-x="1734" d="M55 717q0 121 41 215t112 158.5t165 98.5t200 34h33t42.5 -1l43 -2t35.5 -3v81q-47 10 -85 26.5t-60 33.5v76h561v-76q-23 -14 -55.5 -30.5t-79.5 -29.5v-88q20 4 47.5 7.5t54.5 4.5t51.5 1h40.5q106 0 193.5 -33t151 -96.5t98 -153.5t34.5 -203q0 -129 -43 -223 t-114.5 -157.5t-163.5 -94.5t-191 -31q-10 0 -30.5 1t-44 2.5t-47 3.5t-37.5 6v-109q41 -10 74.5 -26.5t60.5 -32.5v-76h-561v76q29 16 66.5 32.5t78.5 24.5v107q-45 -4 -99.5 -6.5t-95.5 -2.5q-90 0 -176 27t-152.5 85t-107.5 150.5t-41 223.5zM373 717q0 -180 74.5 -270.5 t197.5 -90.5q23 0 42.5 2t41.5 9v727q-25 4 -42 4h-42q-51 0 -100 -20.5t-87 -66.5t-61.5 -119t-23.5 -175zM1006 362q20 -4 43.5 -5t40.5 -1q53 0 102 20.5t87 66.5t60.5 118t22.5 176q0 174 -65.5 267.5t-194.5 93.5q-27 0 -49.5 -2t-46.5 -9v-725z" />
<glyph unicode="&#x425;" horiz-adv-x="1490" d="M25 0v78q68 41 139 59l411 584l-385 575q-39 10 -73.5 26.5t-67.5 33.5v78h649v-78q-25 -14 -61.5 -29.5t-85.5 -30.5l250 -411l246 411q-41 8 -82 25.5t-74 34.5v78h508v-78q-31 -16 -65 -32.5t-74 -27.5l-365 -534l424 -625q47 -10 85 -25.5t73 -33.5v-78h-664v78 q33 18 69 33.5t76 25.5l-290 451l-271 -453q43 -6 80 -20.5t72 -36.5v-78h-524z" />
<glyph unicode="&#x426;" horiz-adv-x="1597" d="M41 0v78q29 16 72 32.5t96 26.5v1159q-41 6 -85 21.5t-83 38.5v78h610v-78q-25 -16 -57.5 -31.5t-77.5 -28.5v-1163h512v1163q-37 8 -72.5 24.5t-64.5 35.5v78h612v-78q-41 -25 -83 -38t-85 -22v-1163h240q-2 -53 -6 -115.5t-11.5 -126t-16.5 -122t-19 -103.5h-80 l-111 334h-1290z" />
<glyph unicode="&#x427;" horiz-adv-x="1404" d="M10 1356v78h580v-78q-23 -16 -54.5 -32.5t-70.5 -27.5v-311q0 -72 8 -129t32.5 -98t66.5 -63.5t110 -22.5t128 19.5t112 51.5v553q-35 10 -68 25.5t-59 34.5v78h569v-78q-27 -18 -61.5 -33.5t-73.5 -26.5v-1159q41 -8 75.5 -25.5t59.5 -33.5v-78h-631v78q47 23 94 39 t95 20v484q-57 -35 -153.5 -64t-211.5 -29q-82 0 -154.5 17.5t-127 60.5t-86 118t-31.5 189v383q-39 6 -78 22.5t-70 37.5z" />
<glyph unicode="&#x428;" horiz-adv-x="2060" d="M41 0v78q33 18 72 34.5t75 24.5v1159q-82 16 -147 60v78h565v-78q-16 -12 -46 -29.5t-64 -30.5v-1163h383v1163q-70 23 -113 60v78h530v-78q-23 -16 -50 -32.5t-60 -27.5v-1163h383v1163q-59 14 -117 60v78h567v-78q-63 -41 -143 -60v-1159q41 -10 77 -25.5t66 -33.5v-78 h-1978z" />
<glyph unicode="&#x429;" horiz-adv-x="2138" d="M41 0v78q31 16 67.5 33.5t79.5 25.5v1159q-39 6 -78.5 22.5t-68.5 37.5v78h565v-78q-18 -16 -48 -32.5t-62 -27.5v-1163h383v1163q-70 25 -113 60v78h530v-78q-18 -16 -46.5 -32.5t-63.5 -27.5v-1163h383v1163q-68 20 -117 60v78h567v-78q-29 -20 -64.5 -35.5 t-78.5 -24.5v-1163h240q0 -47 -4.5 -108.5t-11.5 -125t-16 -124t-22 -109.5h-80l-110 334h-1831z" />
<glyph unicode="&#x42a;" horiz-adv-x="1585" d="M31 1434h948v-78q-35 -20 -86 -34.5t-102 -25.5v-438q37 6 93 10t97 4q104 0 202.5 -19t175.5 -66.5t124 -129.5t47 -206q0 -123 -47 -210t-129 -141.5t-196 -80t-245 -25.5q-10 0 -42.5 1t-75.5 2t-87 2t-75 1h-318v78q37 20 79 35.5t89 23.5v1163h-213l-108 -350h-86 q-12 51 -20.5 118t-13.5 134.5t-8 129t-3 102.5zM791 135q18 -4 57 -6t61 -2q57 0 108.5 17.5t90.5 55.5t61.5 99t22.5 152q0 147 -79 217.5t-208 70.5q-39 0 -65.5 -3t-48.5 -9v-592z" />
<glyph unicode="&#x42b;" horiz-adv-x="1904" d="M41 0v78q37 20 81 35.5t87 23.5v1159q-41 8 -84 21.5t-84 38.5v78h655v-78q-39 -20 -85 -35.5t-95 -24.5v-438q37 6 88 10t92 4q106 0 201.5 -20.5t166.5 -69.5t113 -131t42 -205q0 -115 -45.5 -199.5t-123 -141t-182 -84t-223.5 -27.5q-10 0 -42 1t-74 2t-85 2t-73 1 h-330zM516 135q16 -4 53 -6t56 -2q117 0 186.5 76t69.5 243q0 293 -258 293q-68 0 -107 -12v-592zM1233 1356v78h631v-78q-70 -45 -164 -60v-1159q51 -8 92 -25.5t72 -33.5v-78h-621v78q33 18 71 33.5t79 25.5v1159q-39 8 -81 22.5t-79 37.5z" />
<glyph unicode="&#x42c;" horiz-adv-x="1310" d="M41 0v78q37 20 81 36.5t87 22.5v1159q-41 8 -86 22.5t-82 37.5v78h664v-78q-35 -20 -86.5 -35.5t-102.5 -24.5v-438q37 6 93.5 10t97.5 4q117 0 217 -22.5t173.5 -72.5t115.5 -131t42 -195q0 -117 -44 -203t-123.5 -142.5t-192.5 -84t-250 -27.5q-10 0 -45 1t-78 2t-89 2 t-77 1h-315zM516 135q18 -4 57 -6t62 -2q55 0 106.5 17.5t90 55.5t62.5 99t24 152q0 147 -79 217.5t-208 70.5q-72 0 -115 -12v-592z" />
<glyph unicode="&#x42d;" horiz-adv-x="1331" d="M92 55q0 35 4 84t10.5 103.5t13.5 109t15 97.5h86l111 -320q23 -12 70 -16t85 -4q80 0 156 35.5t134.5 107.5t94 179.5t37.5 252.5l-518 -63q-12 41 -14 101t14 109l518 -8q-10 248 -120.5 375t-301.5 127q-55 0 -94 -11t-59 -28l-107 -266h-84q-6 23 -12 65.5t-11 92 t-7 100.5t0 92q37 25 86 42.5t103 27.5t108.5 14t97.5 4q176 0 314.5 -46t233.5 -138t145 -228.5t50 -316.5q0 -207 -61.5 -351.5t-163.5 -233.5t-236.5 -129t-279.5 -40q-125 0 -235.5 19.5t-182.5 60.5z" />
<glyph unicode="&#x42e;" horiz-adv-x="2105" d="M41 0v78q37 20 79 35.5t89 23.5v1159q-41 6 -85 21.5t-83 38.5v78h631v-78q-25 -16 -62 -32.5t-94 -27.5v-495h225q10 141 57.5 262t129.5 208t194.5 137t255.5 50q158 0 279 -55t201.5 -154.5t122.5 -235.5t42 -296t-39.5 -296t-119.5 -234.5t-202 -155t-284 -56.5 q-158 0 -274.5 51.5t-196.5 143.5t-121 219t-47 279h-223v-531q51 -10 89 -26.5t67 -32.5v-78h-631zM1071 717q0 -287 75 -447.5t245 -160.5q84 0 139 46t87 126.5t45 192.5t13 243t-14 242.5t-49 192.5t-94.5 127t-151.5 46q-88 0 -144.5 -46t-90 -127t-47 -192.5 t-13.5 -242.5z" />
<glyph unicode="&#x42f;" horiz-adv-x="1413" d="M10 0v70l90 49q131 141 212 260t151 221q-53 18 -106.5 50t-95.5 81t-67.5 116.5t-25.5 158.5q0 119 51 201.5t135 135t194.5 75t227.5 22.5q20 0 54 -1t72 -2t77 -2t70 -1h323v-78q-27 -16 -72 -32.5t-96 -27.5v-1159q53 -10 94 -26.5t74 -32.5v-78h-635v78 q35 18 75 33.5t85 25.5v451h-172q-61 -141 -123.5 -274.5t-152.5 -247.5l-84 -66h-355zM496 1016q0 -154 74.5 -230.5t201.5 -76.5q29 0 69 3t56 7v577q-16 4 -51 7.5t-60 3.5q-59 0 -111 -15.5t-92 -50.5t-63.5 -90t-23.5 -135z" />
<glyph unicode="&#x430;" horiz-adv-x="1140" d="M55 260q0 92 35 151.5t109.5 97.5t192.5 56.5t286 26.5q16 176 -14.5 258t-133.5 82q-63 0 -116 -21l-97 -245h-90q-16 25 -31.5 56.5t-28.5 67t-22.5 72.5t-13.5 72q78 53 201 84t260 31q117 0 190.5 -26t115.5 -70t58.5 -103t16.5 -127q0 -123 -5 -222.5t-5 -203.5 q0 -45 1 -78t5 -69l141 -21v-72q-25 -12 -67 -24.5t-88 -23.5t-91 -18t-80 -11h-69q-20 47 -24.5 94t-6.5 114h-10q-10 -41 -35 -78.5t-62.5 -67.5t-89 -48.5t-114.5 -18.5q-68 0 -125.5 20.5t-100.5 57.5t-67.5 89.5t-24.5 117.5zM362 303q0 -78 37 -121t103 -43 q43 0 73.5 16.5t52 39t33 49t17.5 47.5v205q-96 -2 -157.5 -12.5t-96.5 -34t-48.5 -59.5t-13.5 -87z" />
<glyph unicode="&#x431;" horiz-adv-x="1196" d="M63 555q0 256 48.5 429t146.5 278.5t246.5 150.5t349.5 45l133 103h80q0 -39 -5 -89.5t-14.5 -99.5t-19.5 -90t-18 -61q-215 0 -363.5 -14.5t-244 -63.5t-144.5 -142.5t-68 -252.5h11q31 53 79 101t108.5 84t129 56.5t141.5 20.5q223 0 348.5 -122t125.5 -382 q0 -115 -37 -212t-107.5 -168t-175 -111t-238.5 -40q-117 0 -211 39t-161.5 113t-103.5 181.5t-36 246.5zM381 537q0 -129 15.5 -214t45 -136.5t71.5 -73t97 -21.5q102 0 152.5 95.5t50.5 304.5q0 207 -63.5 290.5t-176.5 83.5q-49 0 -95 -26.5t-75 -61.5q-22 -96 -22 -241z " />
<glyph unicode="&#x432;" horiz-adv-x="1173" d="M59 0v80q63 33 136 49v766q-78 14 -136 49v80h277q98 0 174 4t152 4q195 0 296 -54t101 -190q0 -49 -21.5 -87.5t-57.5 -67.5t-79 -47.5t-86 -26.5q57 -4 109.5 -22.5t92.5 -51t63.5 -79t23.5 -107.5q0 -82 -35 -140.5t-96.5 -95t-144.5 -54t-177 -17.5q-66 0 -112.5 1 t-81.5 3t-60.5 3t-48.5 1h-289zM489 117q29 -6 63 -7t58 -1q92 0 139.5 47t47.5 137q0 88 -54.5 132t-142.5 44h-111v-352zM489 557l183 21q33 20 63.5 66t30.5 114q0 158 -182 157q-23 0 -47.5 -1t-47.5 -7v-350z" />
<glyph unicode="&#x433;" horiz-adv-x="954" d="M59 0v80q35 20 68 30.5t68 18.5v768q-76 12 -136 47v80h875q-2 -39 -7 -90t-12.5 -106.5t-17.5 -108.5t-20 -94h-84l-91 282h-213v-778q117 -23 185 -49v-80h-615z" />
<glyph unicode="&#x434;" horiz-adv-x="1239" d="M0 129h150q25 29 55.5 86t58 148.5t47 217.5t19.5 293q-43 10 -83 29t-69 41v80h973v-80q-55 -37 -135 -49v-766h190q2 -100 -7 -216t-23 -216h-80l-111 303h-764l-110 -303h-80q-12 100 -21.5 216t-9.5 216zM311 129h410v766h-242q0 -172 -18.5 -299t-45 -219 t-55 -152.5t-49.5 -95.5z" />
<glyph unicode="&#x435;" horiz-adv-x="1099" d="M63 512q0 262 137.5 399.5t381.5 137.5q104 0 195 -29t151.5 -94.5t84 -172t-2.5 -259.5h-629q2 -162 83 -258.5t238 -96.5q68 0 140.5 20.5t113.5 53.5l39 -41q-16 -35 -52 -70.5t-88 -63.5t-120.5 -45.5t-148.5 -17.5q-127 0 -225.5 38t-164 109t-99.5 169t-34 221z M387 600h330q14 160 -19 246t-125 86q-41 0 -72.5 -14.5t-55 -52.5t-38 -102.5t-20.5 -162.5z" />
<glyph unicode="&#x436;" horiz-adv-x="1644" d="M0 0v80l86 49q51 59 98 122.5t88 123t76 111t64 87.5q-74 78 -134.5 154t-125.5 168q-53 12 -103 49v80h428v-80q-39 -29 -102 -49q27 -49 51.5 -88t50 -76t53 -75t64.5 -87h96v326q-35 8 -58.5 20.5t-45.5 28.5v80h471v-80q-20 -16 -42 -28.5t-59 -20.5v-338l105 21 q37 49 62.5 85.5t49 72.5t46 73t51.5 86q-29 10 -53.5 20.5t-49.5 28.5v80h428v-80q-35 -25 -116 -49q-66 -86 -126.5 -158.5t-125.5 -150.5q27 -37 65.5 -90.5t83.5 -115t95.5 -126t99.5 -125.5l74 -49v-80h-291l-58 47q-35 43 -71.5 101.5t-71.5 118t-62.5 112.5t-43.5 88 h-91v-338q63 -16 123 -49v-80h-504v80q29 14 56.5 26.5t58.5 22.5v350l-102 -20q-16 -29 -41 -81t-57.5 -111.5t-68.5 -119t-73 -100.5l-61 -47h-287z" />
<glyph unicode="&#x437;" horiz-adv-x="1019" d="M59 98l56 193h59q31 -29 68 -78t65 -88q20 -8 45 -12t60 -4q111 0 164 57t53 139q0 88 -39 120t-111 42l-182 -31q-10 25 -12 69t12 73h199q35 16 70.5 61t35.5 125q0 78 -44 123t-126 45q-35 0 -66.5 -5t-41.5 -9l-93 -232h-69q-29 57 -54.5 134t-27.5 143 q47 31 149.5 58.5t251.5 27.5q203 0 313.5 -60.5t110.5 -179.5q0 -53 -22.5 -96t-60.5 -74t-86 -52.5t-99 -31.5q59 -6 115.5 -21.5t99.5 -45t68.5 -74.5t25.5 -109q0 -164 -128 -247t-357 -83q-139 0 -240.5 35t-161.5 88z" />
<glyph unicode="&#x438;" horiz-adv-x="1370" d="M59 0v80q35 16 68 27.5t68 21.5v766q-80 12 -136 49v80h545v-80q-23 -12 -52.5 -24.5t-70.5 -24.5v-461l-22 -190h10l80 153l375 627h387v-80q-66 -37 -135 -49v-766q39 -10 73.5 -21.5t61.5 -27.5v-80h-545v80q57 33 123 49v483l20 162h-10l-78 -153l-370 -621h-392z " />
<glyph unicode="&#x439;" horiz-adv-x="1370" d="M59 0v80q35 16 68 27.5t68 21.5v766q-80 12 -136 49v80h545v-80q-23 -12 -52.5 -24.5t-70.5 -24.5v-461l-22 -190h10l80 153l375 627h387v-80q-66 -37 -135 -49v-766q39 -10 73.5 -21.5t61.5 -27.5v-80h-545v80q57 33 123 49v483l20 162h-10l-78 -153l-370 -621h-392z M324 1409q29 25 84 38t115 17l69 -26v-183q51 -23 121 -22q20 0 56 4t65 12v189l69 26q55 -4 108.5 -16t82.5 -39q0 -123 -93 -196.5t-290 -73.5q-203 0 -295 73.5t-92 196.5z" />
<glyph unicode="&#x43a;" horiz-adv-x="1216" d="M59 0v80q55 33 136 49v766q-72 14 -136 49v80h523v-80q-20 -14 -40 -26.5t-53 -22.5v-334l95 21q59 68 118.5 145.5t108.5 161.5q-35 14 -59.5 26.5t-51.5 28.5v80h469v-80q-20 -16 -49.5 -27.5t-79.5 -27.5q-70 -84 -143.5 -161t-142.5 -142q45 -49 92 -106.5t93 -118 t94 -120t97 -112.5l87 -49v-80h-322l-66 47q-88 106 -144 213t-114 211h-82v-342q66 -18 115 -49v-80h-545z" />
<glyph unicode="&#x43b;" horiz-adv-x="1208" d="M4 213l47 70l193 -52q51 96 75.5 269.5t26.5 373.5q-41 12 -79 31t-66 39v80h948v-80q-66 -37 -135 -49v-766q43 -10 75.5 -22.5t59.5 -26.5v-80h-543v80q25 16 50.5 28.5t62.5 20.5v778h-225q-2 -109 -12.5 -226.5t-32 -230t-56.5 -212t-84 -168.5q-41 -57 -90 -82 t-88 -17q-27 14 -49.5 46t-38.5 67t-26.5 69.5t-12.5 59.5z" />
<glyph unicode="&#x43c;" horiz-adv-x="1638" d="M43 0v80q68 33 135 49l41 745q-43 16 -75.5 35t-59.5 35v80h510l176 -496l39 -141h6l43 143l180 494h516v-80q-27 -16 -59.5 -28.5t-75.5 -20.5l41 -766q68 -12 135 -49v-80h-544v80q20 10 48.5 22.5t74.5 26.5l-41 737h-17l-311 -866h-103l-327 866h-17l-30 -737 q74 -23 123 -49v-80h-408z" />
<glyph unicode="&#x43d;" horiz-adv-x="1359" d="M59 0v80q29 16 64 27.5t72 21.5v766q-37 10 -72 21.5t-64 27.5v80h543v-80q-47 -29 -113 -49v-320h381v320q-59 12 -112 49v80h542v-80q-55 -35 -135 -49v-766q37 -8 72 -18.5t63 -30.5v-80h-542v80q53 39 112 49v330h-381v-330q35 -8 63 -20.5t50 -28.5v-80h-543z" />
<glyph unicode="&#x43e;" horiz-adv-x="1216" d="M63 512q0 125 38 224.5t109 169t171 106.5t227 37q143 0 246.5 -40t170.5 -111t97.5 -170t30.5 -216q0 -125 -37 -224.5t-107.5 -169t-172 -106.5t-228.5 -37q-139 0 -241.5 40t-170 111t-100.5 170t-33 216zM381 512q0 -92 11 -169t40 -130t78 -83t127 -30q45 0 82 21.5 t63.5 70t40 127t13.5 193.5q0 94 -11.5 170t-39 129t-74.5 83t-119 30q-53 0 -92 -21.5t-65.5 -70t-40 -127t-13.5 -193.5z" />
<glyph unicode="&#x43f;" horiz-adv-x="1349" d="M59 0v80q39 23 72 34t64 15v766q-43 10 -78 22.5t-58 26.5v80h1231v-80q-27 -16 -59.5 -30.5t-75.5 -18.5v-766q70 -12 135 -49v-80h-542v80q20 14 43.5 26.5t68.5 22.5v778h-371v-778q41 -12 66 -24.5t47 -24.5v-80h-543z" />
<glyph unicode="&#x440;" horiz-adv-x="1247" d="M43 -330q70 33 135 49v1160l-135 16v80q33 14 81 26.5t99 21.5t99.5 15t80.5 11h70v-230h2q35 98 109.5 164t208.5 66q90 0 162.5 -30t122.5 -92.5t78 -159.5t28 -232q0 -129 -36 -233.5t-102.5 -176.5t-162 -111t-215.5 -39q-70 0 -110 9.5t-85 31.5v-297 q33 -4 65.5 -15t69.5 -34v-80h-565v80zM473 139q33 -25 70 -36t96 -11q117 0 172 112.5t55 330.5q0 168 -41.5 259t-150.5 91q-70 0 -124 -49.5t-77 -151.5v-545z" />
<glyph unicode="&#x441;" horiz-adv-x="991" d="M63 512q0 260 142.5 398.5t404.5 138.5q100 0 184.5 -21.5t139.5 -50.5q-4 -35 -11.5 -77t-16.5 -84t-21.5 -82t-24.5 -66h-100l-86 243q-14 10 -30.5 15.5t-49.5 5.5q-53 0 -92 -19.5t-66.5 -66.5t-41 -125t-13.5 -193q0 -84 18.5 -154.5t56.5 -122.5t95 -82t135 -30 q72 0 125 20.5t90 49.5l33 -43q-14 -41 -47 -75t-79 -60.5t-104.5 -41t-121.5 -14.5q-135 0 -232.5 38t-161 109t-94.5 170t-31 220z" />
<glyph unicode="&#x442;" horiz-adv-x="1110" d="M31 1024h1048q0 -37 -4 -88t-11 -105.5t-16.5 -108.5t-19.5 -97h-86l-90 282h-150v-778q47 -12 80 -22.5t64 -26.5v-80h-582v80q31 16 70 28.5t74 20.5v778h-150l-90 -282h-86q-10 43 -19.5 96t-15.5 107.5t-11 105.5t-5 90z" />
<glyph unicode="&#x443;" horiz-adv-x="1081" d="M-31 944v80h539v-78q-43 -29 -117 -51l207 -514l35 -131h4l33 133l159 512q-61 12 -112 49v80h395v-80q-43 -29 -117 -49l-333 -895q-49 -131 -98.5 -214t-98.5 -132t-98.5 -68.5t-98.5 -25.5q-20 18 -36.5 45.5t-29 59.5t-20.5 64.5t-10 61.5l27 49h250q18 29 31.5 61.5 t31.5 98.5l-434 895q-31 8 -56.5 20.5t-52.5 28.5z" />
<glyph unicode="&#x444;" horiz-adv-x="1619" d="M57 475q0 147 33 255t92.5 178.5t142.5 105.5t185 35q51 0 94 -15.5t62 -40.5v377l-156 16v80q29 12 78 24.5t103 23t105.5 17.5t86.5 9h69v-559q29 31 81 49.5t110 18.5q92 0 169 -29t132 -88.5t86 -148.5t31 -210q0 -156 -34 -268t-93.5 -186t-141.5 -109t-176 -35 q-45 0 -92 13.5t-72 40.5v-310q76 -12 135 -49v-80h-557v80q57 33 136 49v324q-25 -31 -76 -49.5t-103 -18.5q-94 0 -172.5 30t-136 91.5t-89.5 155.5t-32 223zM365 555q0 -139 14 -226t39.5 -137.5t61.5 -69t79 -18.5q35 0 61.5 9.5t55.5 38.5v733q-25 16 -51.5 25.5 t-67.5 9.5t-76 -18.5t-61.5 -60.5t-40.5 -112t-14 -174zM942 141q25 -20 51.5 -28.5t67.5 -8.5q37 0 71.5 18.5t61.5 64.5t43 122t16 193q0 125 -13 207t-37.5 128t-61.5 64.5t-84 18.5q-35 0 -60.5 -9.5t-54.5 -33.5v-736z" />
<glyph unicode="&#x445;" horiz-adv-x="1146" d="M20 0v80q29 16 52.5 28.5t54.5 20.5l303 377l-305 389q-29 10 -51.5 21.5t-40.5 27.5v80h514v-78q-25 -16 -44.5 -29.5t-47.5 -21.5l178 -254l170 254q-35 10 -55.5 22.5t-36.5 26.5v80h379v-80q-20 -14 -45 -26.5t-62 -22.5l-281 -346l324 -420q53 -16 100 -49v-80h-522 v78q23 16 46.5 29.5t47.5 21.5l-194 279l-189 -279q29 -10 50.5 -22.5t42.5 -26.5v-80h-388z" />
<glyph unicode="&#x446;" horiz-adv-x="1366" d="M59 0v80q55 33 136 49v766q-78 12 -136 49v80h543v-80q-23 -14 -48.5 -26.5t-64.5 -22.5v-778h351v778q-29 6 -54.5 18.5t-58.5 30.5v80h543v-80q-27 -14 -59.5 -26.5t-75.5 -22.5v-778h200q-4 -98 -17 -211t-24 -209h-80l-110 303h-1045z" />
<glyph unicode="&#x447;" horiz-adv-x="1236" d="M6 944v80h537v-80q-41 -33 -107 -49v-227q0 -86 30 -136.5t103 -50.5q53 0 98.5 16.5t80.5 39.5v358q-33 6 -57.5 18.5t-51.5 30.5v80h539v-80q-55 -35 -136 -49v-766q41 -10 74 -21.5t62 -27.5v-80h-594v80q84 35 164 49v320q-49 -53 -129 -87t-173 -34 q-143 0 -224 77.5t-81 210.5v279q-78 14 -135 49z" />
<glyph unicode="&#x448;" horiz-adv-x="1847" d="M59 0v80q57 33 136 49v766q-35 4 -68 15.5t-68 33.5v80h523v-80q-39 -33 -93 -49v-778h287v778q-29 10 -55.5 21.5t-48.5 27.5v80h491v-80q-14 -14 -36.5 -26.5t-55.5 -22.5v-778h287v778q-51 14 -92 49v80h522v-80q-29 -16 -61.5 -28.5t-73.5 -20.5v-766q76 -16 135 -49 v-80h-1729z" />
<glyph unicode="&#x449;" horiz-adv-x="1884" d="M59 0v80q57 33 136 49v766q-41 8 -74 20.5t-62 28.5v80h523v-80q-16 -14 -40 -26.5t-53 -22.5v-778h287v778q-27 8 -54.5 20.5t-49.5 28.5v80h491v-80q-37 -33 -92 -49v-778h287v778q-53 16 -92 49v80h522v-80q-29 -16 -61.5 -27.5t-73.5 -21.5v-778h200q-2 -98 -14 -211 t-27 -209h-79l-111 303h-1563z" />
<glyph unicode="&#x44a;" horiz-adv-x="1300" d="M6 1024h772v-80q-25 -16 -55.5 -27.5t-67.5 -21.5v-279q35 4 92.5 10.5t139.5 6.5q168 0 268 -77t100 -230q0 -82 -32.5 -144.5t-90 -104.5t-136 -63.5t-171.5 -21.5q-29 0 -78 1t-105 3t-111.5 3t-94.5 1h-211v80q57 33 135 49v778h-122l-101 -282h-80q-8 39 -17 91 t-16.5 108.5t-12.5 108.5t-5 91zM655 117q18 -4 40 -6t46 -2q88 0 140.5 46t52.5 173q0 57 -14.5 94t-38 58.5t-55 28.5t-66.5 7q-27 0 -52.5 -2t-52.5 -8v-389z" />
<glyph unicode="&#x44b;" horiz-adv-x="1699" d="M59 0v80q33 18 67 28.5t69 20.5v766q-39 6 -72 19.5t-64 29.5v80h553v-80q-49 -29 -123 -49v-279q35 4 87.5 10.5t134.5 6.5q160 0 259 -77t99 -230q0 -82 -31.5 -144.5t-88 -104.5t-133.5 -63.5t-167 -21.5q-29 0 -79 1t-108.5 3t-115.5 3t-96 1h-191zM489 117 q20 -4 44 -6t47 -2q82 0 125 50t43 169q0 111 -46.5 149.5t-111.5 38.5q-23 0 -49.5 -2t-51.5 -8v-389zM1087 944v80h553v-80q-25 -16 -59.5 -27.5t-75.5 -21.5v-766q35 -10 68 -21.5t67 -27.5v-80h-542v80q25 14 51.5 26.5t60.5 22.5v766q-78 14 -123 49z" />
<glyph unicode="&#x44c;" horiz-adv-x="1134" d="M59 0v80q31 16 66 27.5t70 21.5v766q-39 8 -72 20.5t-64 28.5v80h553v-80q-49 -29 -123 -49v-279q35 4 92.5 10.5t139.5 6.5q168 0 268.5 -77t100.5 -230q0 -82 -33 -144.5t-90.5 -104.5t-136 -63.5t-171.5 -21.5q-29 0 -81 1t-112 3t-118.5 3t-97.5 1h-191zM489 117 q20 -4 44 -6t47 -2q43 0 77.5 10t59 35.5t38 67.5t13.5 106q0 55 -13.5 91t-37 57.5t-55 30.5t-68.5 9q-25 0 -52.5 -2t-52.5 -8v-389z" />
<glyph unicode="&#x44d;" horiz-adv-x="1050" d="M59 98l56 193h59q31 -29 68 -78t63 -88q43 -16 109 -16q131 0 192.5 97t63.5 261l-359 -41q-6 12 -10 34.5t-4 46t4 46t10 35.5h357q-2 94 -20.5 160.5t-50.5 106.5t-76 58.5t-97 18.5q-33 0 -61.5 -3t-38.5 -11l-93 -242h-69q-27 59 -52.5 133t-33.5 145q57 35 150 65 t245 30q98 0 191.5 -27t165 -88.5t115.5 -159.5t44 -242q0 -145 -46 -250.5t-121 -173t-169 -100.5t-192 -33q-133 0 -236.5 35t-163.5 88z" />
<glyph unicode="&#x44e;" horiz-adv-x="1771" d="M59 0v80q29 16 64 27.5t72 21.5v766q-35 10 -68 21.5t-68 27.5v80h543v-80q-23 -14 -47.5 -26.5t-65.5 -22.5v-320h177q6 111 45 199t105.5 149.5t158.5 93.5t207 32q254 0 390 -137.5t136 -405.5q0 -123 -35 -221.5t-102.5 -167t-165.5 -105.5t-223 -37q-236 0 -371 124 t-145 360h-177v-330q41 -8 66 -20.5t47 -28.5v-80h-543zM969 512q0 -221 56 -320.5t167 -99.5q109 0 154 104.5t45 315.5q0 223 -49.5 321.5t-167.5 98.5q-205 0 -205 -420z" />
<glyph unicode="&#x44f;" horiz-adv-x="1196" d="M0 0v80l96 49q70 70 132.5 155t105.5 142q-45 14 -85 36.5t-69.5 57.5t-47 82.5t-17.5 110.5q0 70 24.5 129t76.5 102t132 67.5t191 24.5q25 0 70.5 -2t97 -4t98.5 -4t74 -2h258v-80q-16 -14 -46 -26.5t-90 -22.5v-766q76 -23 136 -49v-80h-543v80q49 33 113 49v293 l-136 -21q-33 -70 -81 -164t-123 -190l-64 -47h-303zM418 719q0 -92 57 -149.5t176 -57.5h56v395q-20 4 -52 8.5t-57 4.5q-180 2 -180 -201z" />
<glyph unicode="&#x451;" horiz-adv-x="1099" d="M63 512q0 262 137.5 399.5t381.5 137.5q104 0 195 -29t151.5 -94.5t84 -172t-2.5 -259.5h-629q2 -162 83 -258.5t238 -96.5q68 0 140.5 20.5t113.5 53.5l39 -41q-16 -35 -52 -70.5t-88 -63.5t-120.5 -45.5t-148.5 -17.5q-127 0 -225.5 38t-164 109t-99.5 169t-34 221z M174 1350q0 66 41 104.5t108 38.5q66 0 108 -39t42 -104q0 -61 -42 -100.5t-108 -39.5q-68 0 -108.5 39.5t-40.5 100.5zM387 600h330q14 160 -19 246t-125 86q-41 0 -72.5 -14.5t-55 -52.5t-38 -102.5t-20.5 -162.5zM663 1350q0 66 41 104.5t107 38.5q68 0 109.5 -39 t41.5 -104q0 -61 -42 -100.5t-109 -39.5q-66 0 -107 39.5t-41 100.5z" />
<glyph unicode="&#x452;" horiz-adv-x="1275" d="M18 1386v80q31 12 79 24.5t101.5 22t106.5 16.5t94 11h70v-317h389v-125h-389v-350h2q20 47 55 89t79 73.5t95.5 50t108.5 18.5q82 0 146.5 -19.5t107.5 -68.5t65.5 -132t22.5 -210v-547q0 -127 -28.5 -211t-88 -134t-148.5 -70.5t-212 -20.5l-10 94q55 14 92 36.5 t59.5 62.5t31.5 98.5t9 142.5v473q0 178 -34 260t-132 82q-82 0 -139 -56.5t-82 -129.5v-500q33 -8 58.5 -18.5t54.5 -30.5v-80h-543v80q63 33 135 49v969h-139v125h139v147z" />
<glyph unicode="&#x453;" horiz-adv-x="954" d="M59 0v80q35 20 68 30.5t68 18.5v768q-76 12 -136 47v80h875q-2 -39 -7 -90t-12.5 -106.5t-17.5 -108.5t-20 -94h-84l-91 282h-213v-778q117 -23 185 -49v-80h-615zM379 1196l221 367q16 4 54 3t79 -7.5t75 -17.5t44 -23v-50l-391 -317z" />
<glyph unicode="&#x454;" horiz-adv-x="1032" d="M63 512q0 129 41 229.5t114 168t173.5 103.5t220.5 36q129 0 220.5 -28t146.5 -56q-4 -35 -13.5 -75t-23.5 -79t-28.5 -75t-26.5 -60h-70l-90 237q-29 18 -92 19q-49 0 -94 -18.5t-80 -61.5t-56.5 -113.5t-23.5 -175.5l344 27q14 -27 14 -75t-14 -75l-336 4 q23 -133 111 -219t227 -86q72 0 125 20.5t90 49.5l33 -43q-14 -41 -47 -75t-79 -60.5t-104.5 -41t-121.5 -14.5q-139 0 -244 38t-175.5 109t-105.5 170t-35 220z" />
<glyph unicode="&#x455;" horiz-adv-x="925" d="M59 53q4 74 35 150t66 135h69l101 -223q23 -16 50.5 -19.5t51.5 -3.5q59 0 108.5 35t49.5 96q0 53 -38 92t-94.5 72t-123 65.5t-122.5 76.5t-94 103.5t-38 145.5q0 61 28.5 111.5t78 85.5t118 54.5t148.5 19.5q111 0 206 -17.5t166 -48.5q-8 -66 -32.5 -140.5 t-47.5 -135.5h-69l-86 208q-25 10 -51.5 13.5t-59.5 3.5q-61 0 -93 -36t-32 -81q0 -51 38 -89t94.5 -70.5t123 -65.5t122.5 -75t94 -99.5t38 -136.5q0 -141 -114.5 -222.5t-307.5 -81.5q-98 0 -202.5 20.5t-180.5 57.5z" />
<glyph unicode="&#x456;" horiz-adv-x="679" d="M63 0v80q31 16 64 27.5t72 21.5v750l-136 16v80q31 12 77 24.5t97.5 21.5t100.5 16t86 12h70v-920q41 -10 73.5 -21.5t61.5 -27.5v-80h-566zM164 1360q0 72 49 112.5t127 40.5t127 -40.5t49 -112.5q0 -70 -49 -111t-127 -41t-127 41t-49 111z" />
<glyph unicode="&#x457;" horiz-adv-x="778" d="M66 1358q0 70 36.5 109.5t104.5 39.5q66 0 101.5 -40t35.5 -109q0 -66 -36 -106t-101 -40q-68 0 -104.5 40t-36.5 106zM106 0v80q31 16 64 27.5t72 21.5v750l-136 16v80q31 12 77 24.5t97.5 21.5t101.5 16t85 12h70v-920q41 -10 73.5 -21.5t61.5 -27.5v-80h-566z M432 1358q0 70 37 109.5t102 39.5q68 0 104 -40t36 -109q0 -66 -36 -106t-104 -40q-66 0 -102.5 40t-36.5 106z" />
<glyph unicode="&#x458;" horiz-adv-x="655" d="M55 -373q25 12 49.5 40t46 77t35 124t13.5 181v830l-136 16v80q31 14 76 26.5t96.5 21.5t101.5 15t87 11h70v-961q0 -96 -24 -172t-61.5 -131t-83.5 -94t-90.5 -64.5t-81 -40t-57.5 -20.5zM164 1360q0 72 49 112.5t127 40.5t127 -40.5t49 -112.5q0 -70 -49 -111t-127 -41 t-127 41t-49 111z" />
<glyph unicode="&#x459;" horiz-adv-x="1638" d="M4 213l47 70l193 -52q51 96 75.5 269.5t26.5 373.5q-41 12 -79 31t-66 39v80h948v-80q-25 -14 -61.5 -26.5t-73.5 -22.5v-279q35 4 87 10.5t134 6.5q160 0 259 -77t99 -230q0 -82 -31.5 -144.5t-88 -104.5t-133 -63.5t-166.5 -21.5q-29 0 -79.5 1t-108.5 3t-115.5 3 t-96.5 1h-168v80q25 16 50.5 28.5t62.5 20.5v778h-225q-2 -109 -12.5 -226.5t-32 -230t-56.5 -212t-84 -168.5q-41 -57 -90 -82t-88 -17q-27 14 -49.5 46t-38.5 67t-26.5 69.5t-12.5 59.5zM1014 117q20 -4 43.5 -6t46.5 -2q82 0 125 50t43 169q0 111 -46 149.5t-112 38.5 q-23 0 -49.5 -2t-50.5 -8v-389z" />
<glyph unicode="&#x45a;" horiz-adv-x="1789" d="M59 0v80q29 16 64 27.5t72 21.5v766q-37 10 -72 21.5t-64 27.5v80h543v-80q-47 -29 -113 -49v-320h381v320q-59 12 -112 49v80h542v-80q-25 -14 -61.5 -26.5t-73.5 -22.5v-279q35 4 87.5 10.5t133.5 6.5q160 0 259.5 -77t99.5 -230q0 -82 -32 -144.5t-88 -104.5 t-133 -63.5t-167 -21.5q-29 0 -79 1t-108.5 3t-115.5 3t-96 1h-168v80q53 39 112 49v330h-381v-330q35 -8 63 -20.5t50 -28.5v-80h-543zM1165 117q20 -4 44 -6t46 -2q82 0 125 50t43 169q0 111 -46 149.5t-111 38.5q-23 0 -49.5 -2t-51.5 -8v-389z" />
<glyph unicode="&#x45b;" horiz-adv-x="1292" d="M18 1386v80q31 12 79 24.5t101.5 22t106.5 16.5t94 11h70v-317h389v-125h-389v-353h2q20 47 55 89.5t79 74t95.5 50t108.5 18.5q82 0 146.5 -19.5t107.5 -68.5t65.5 -132t22.5 -210v-400l129 -18v-72q-29 -12 -74 -24.5t-95 -23.5t-98 -18t-85 -11h-70l-2 491 q0 178 -34 260t-132 82q-82 0 -139 -56.5t-82 -129.5v-498q33 -8 58.5 -18.5t54.5 -30.5v-80h-543v80q63 33 135 49v969h-139v125h139v147z" />
<glyph unicode="&#x45c;" horiz-adv-x="1216" d="M59 0v80q55 33 136 49v766q-72 14 -136 49v80h523v-80q-20 -14 -40 -26.5t-53 -22.5v-334l95 21q59 68 118.5 145.5t108.5 161.5q-35 14 -59.5 26.5t-51.5 28.5v80h469v-80q-20 -16 -49.5 -27.5t-79.5 -27.5q-70 -84 -143.5 -161t-142.5 -142q45 -49 92 -106.5t93 -118 t94 -120t97 -112.5l87 -49v-80h-322l-66 47q-88 106 -144 213t-114 211h-82v-342q66 -18 115 -49v-80h-545zM490 1196l221 367q16 4 54 3t79 -7.5t75 -17.5t44 -23v-50l-391 -317z" />
<glyph unicode="&#x45e;" horiz-adv-x="1081" d="M-31 944v80h539v-78q-43 -29 -117 -51l207 -514l35 -131h4l33 133l159 512q-61 12 -112 49v80h395v-80q-43 -29 -117 -49l-333 -895q-49 -131 -98.5 -214t-98.5 -132t-98.5 -68.5t-98.5 -25.5q-20 18 -36.5 45.5t-29 59.5t-20.5 64.5t-10 61.5l27 49h250q18 29 31.5 61.5 t31.5 98.5l-434 895q-31 8 -56.5 20.5t-52.5 28.5zM197 1409q29 25 84 38t115 17l69 -26v-183q51 -23 121 -22q20 0 56 4t65 12v189l69 26q55 -4 108.5 -16t82.5 -39q0 -123 -93 -196.5t-290 -73.5q-203 0 -295 73.5t-92 196.5z" />
<glyph unicode="&#x45f;" horiz-adv-x="1339" d="M59 0v80q23 14 58 26.5t78 22.5v766q-31 4 -64 15.5t-72 33.5v80h543v-80q-23 -12 -47.5 -24.5t-65.5 -24.5v-778h361v778q-45 10 -68.5 22.5t-44.5 26.5v80h543v-80q-66 -37 -135 -49v-766q43 -4 75.5 -18.5t59.5 -30.5v-80h-465q-12 -98 -41 -197.5t-59 -191.5h-90 q-33 98 -58.5 194.5t-42.5 194.5h-465z" />
<glyph unicode="&#x462;" horiz-adv-x="1574" d="M20 1268h453v86q-41 8 -86 22.5t-82 36.5v70h664v-70q-35 -20 -86.5 -35.5t-102.5 -23.5v-86h508q-2 -92 -16.5 -193.5t-28.5 -173.5h-86l-119 242h-258v-320q37 4 93.5 8.5t97.5 4.5q117 0 217 -20.5t174 -69t116 -126t42 -192.5q0 -117 -44 -200t-124 -135 t-192.5 -75.5t-250.5 -23.5q-10 0 -45 1t-78 2t-89 2t-76 1h-316v78q37 20 81 36.5t87 22.5v1006h-192l-131 -340h-84q-8 41 -16.5 101.5t-14.5 125t-10.5 128t-4.5 110.5zM780 135q18 -4 57.5 -6t61.5 -2q55 0 106.5 13.5t90.5 48t62.5 92t23.5 147.5q0 147 -79 210.5 t-208 63.5q-39 0 -65.5 -2t-49.5 -8v-557z" />
<glyph unicode="&#x463;" horiz-adv-x="1323" d="M16 1024h367v346l-156 16v80q27 12 74 24.5t101.5 22t108.5 16.5t97 11h70v-516h407q0 -74 -8 -147.5t-22 -159.5h-88l-142 190h-147v-301q35 4 92 10.5t139 6.5q168 0 268.5 -75t100.5 -229q0 -82 -33 -143t-90 -102t-136 -61.5t-171 -20.5q-29 0 -81 1t-112.5 3t-119 3 t-97.5 1h-190v80q31 16 65.5 27.5t69.5 21.5v778h-139l-90 -282h-86q-10 43 -19.5 96t-15.5 107.5t-11.5 105.5t-5.5 90zM678 117q20 -4 43.5 -6t46.5 -2q43 0 78 9t59.5 33.5t37.5 65.5t13 105q0 55 -13 91t-36.5 56t-55.5 28.5t-69 8.5q-25 0 -52.5 -2t-51.5 -8v-379z" />
<glyph unicode="&#x472;" horiz-adv-x="1544" d="M80 717q0 160 45 296t133 235.5t217 154.5t297 55t297 -55t216 -154.5t132 -235.5t45 -296t-45 -296t-132 -235.5t-216 -155t-297 -55.5t-297 55.5t-217 155t-133 235.5t-45 296zM418 756q80 109 174 127q45 6 82 -2q43 -6 83 -26.5t77.5 -42t75.5 -39t77 -17.5 q29 0 66 5t69 32q-4 115 -27.5 213t-68.5 168.5t-111.5 110.5t-158.5 40t-155.5 -43t-103.5 -120t-58.5 -180t-20.5 -226zM420 614q8 -111 33.5 -204t71.5 -160.5t113 -104t153 -36.5q82 0 143 40.5t102 113.5t62.5 172.5t25.5 217.5q-86 -104 -186 -104q-49 0 -94 21.5 t-89 46t-87 46t-84 21.5q-35 0 -80 -13.5t-84 -56.5z" />
<glyph unicode="&#x473;" horiz-adv-x="1216" d="M63 512q0 125 38 224.5t109 169t171 106.5t227 37q143 0 246.5 -40t170.5 -111t97.5 -170t30.5 -216q0 -125 -37 -224.5t-107.5 -169t-172 -106.5t-228.5 -37q-139 0 -241.5 40t-170 111t-100.5 170t-33 216zM360 549q49 51 96.5 73.5t84.5 22.5q33 0 60.5 -13.5 t53 -29.5t51 -29.5t54.5 -13.5q16 0 42.5 10.5t49.5 32.5q-12 150 -73.5 240t-186.5 90q-104 0 -165.5 -88t-66.5 -295zM365 412q12 -143 76.5 -231.5t201.5 -88.5q90 0 148.5 87t62.5 294q-88 -88 -168 -88q-33 0 -61.5 14.5t-55 30.5t-53 30.5t-53.5 14.5 q-23 0 -49.5 -16.5t-48.5 -46.5z" />
<glyph unicode="&#x474;" horiz-adv-x="1562" d="M0 1356v78h682v-78q-35 -16 -78 -32.5t-90 -27.5l262 -766l47 -192h4l37 194q41 162 93.5 300.5t107.5 248t108.5 188.5t94.5 122q35 37 70.5 51t70.5 16q31 -8 60.5 -41t54 -77t40 -91t17.5 -84l-63 -71l-220 57q-57 -82 -120.5 -215t-125 -292t-112.5 -333t-84 -336 h-172l-530 1321q-41 10 -82 25.5t-72 34.5z" />
<glyph unicode="&#x475;" horiz-adv-x="1142" d="M-20 944v80h538v-78q-27 -14 -54.5 -27.5t-62.5 -23.5l191 -524l31 -127h4l20 137q18 74 39 151.5t46.5 152.5t56 143.5t71.5 123.5q41 57 89 79t87 13q27 -14 51.5 -41.5t42 -61.5t28.5 -70.5t16 -67.5l-58 -80l-172 51q-25 -37 -49.5 -88t-47 -108.5t-43 -119 t-36.5 -116.5l-104 -342l-177 -25l-399 920q-59 20 -108 49z" />
<glyph unicode="&#x48a;" horiz-adv-x="1662" d="M41 0v78q39 20 82 36.5t86 22.5v1159q-41 10 -86 23.5t-82 36.5v78h616v-78q-31 -18 -69.5 -34.5t-83.5 -25.5v-778l-21 -160l101 168l516 721v49q-96 23 -162 60v78h616v-78q-35 -23 -78.5 -36t-89.5 -24v-1163h230l20 -27q-8 -39 -31.5 -93t-57.5 -112.5t-74.5 -113.5 t-81.5 -94h-111l70 307h-412v78q29 14 69 31.5t85 27.5v776l20 162l-92 -162l-524 -731v-45q47 -10 88 -26.5t73 -32.5v-78h-616zM381 1788q37 27 98.5 35t110.5 10l69 -37v-160q29 -14 67 -19t75 -5q29 0 70.5 4t70.5 14v166l70 37q39 4 97 -7t103 -38q0 -131 -110 -200.5 t-303 -69.5q-94 0 -171 17t-132.5 51t-85 85t-29.5 117z" />
<glyph unicode="&#x48b;" horiz-adv-x="1415" d="M59 0v80q35 16 68 27.5t68 21.5v766q-80 12 -136 49v80h545v-80q-23 -12 -52.5 -24.5t-70.5 -24.5v-461l-22 -190h10l80 153l375 627h387v-80q-66 -37 -135 -49v-778h217l12 -21q-10 -49 -40 -108.5t-69 -114.5t-78.5 -102t-68.5 -74h-100l63 303h-346v80q57 33 123 49 v483l20 162h-10l-78 -153l-370 -621h-392zM334 1399q16 12 41.5 21.5t53.5 16.5t55.5 11t47.5 6l70 -27v-182q51 -23 121 -22q20 0 56 4t65 12v188l69 27q20 -2 48 -7t55.5 -12.5t51.5 -16.5t36 -19q0 -123 -93 -197t-290 -74q-203 0 -295 74t-92 197z" />
<glyph unicode="&#x48c;" horiz-adv-x="1398" d="M20 1026v131h277v139q-41 8 -86 22.5t-82 37.5v78h664v-78q-35 -20 -86.5 -35.5t-102.5 -24.5v-139h397v-131h-397v-168q37 6 93.5 10t97.5 4q117 0 217 -22.5t174 -72.5t115.5 -131t41.5 -195q0 -117 -44 -203t-123.5 -142.5t-192.5 -84t-250 -27.5q-10 0 -45 1t-78 2 t-89 2t-77 1h-315v78q37 20 81 36.5t87 22.5v889h-277zM604 135q18 -4 57 -6t62 -2q55 0 106.5 17.5t90 55.5t62.5 99t24 152q0 147 -79 217.5t-208 70.5q-72 0 -115 -12v-592z" />
<glyph unicode="&#x48d;" horiz-adv-x="1114" d="M4 889v125h191v356l-156 16v80q29 12 78 24.5t104 22t108.5 16.5t90.5 11h69v-526h297v-125h-297v-273q35 4 87.5 10.5t134.5 6.5q160 0 259 -77t99 -230q0 -82 -31.5 -144.5t-88 -104.5t-133.5 -63.5t-167 -21.5q-29 0 -79 1t-108.5 3t-115.5 3t-96 1h-191v80 q33 18 67 28.5t69 20.5v760h-191zM489 117q20 -4 44 -6t47 -2q82 0 125 50t43 169q0 111 -46.5 149.5t-111.5 38.5q-23 0 -49.5 -2t-51.5 -8v-389z" />
<glyph unicode="&#x48e;" horiz-adv-x="1310" d="M41 0v78q39 23 83 37t85 22v1159q-47 8 -90 23.5t-78 36.5v78h215q39 0 90 2t108.5 5t116 6t109.5 3q109 0 212 -21.5t184 -72.5t130 -136t49 -212q0 -84 -23.5 -150.5t-64.5 -119t-97 -90.5t-122 -62l76 -129l-164 -88l-102 182q-31 -6 -63.5 -8t-67.5 -2q-20 0 -58.5 1 t-52.5 5v-410q55 -8 109.5 -23.5t97.5 -35.5v-78h-682zM516 682q18 -6 55 -7t60 -1q45 0 92 12l-111 191l99 53l106 -189q45 39 73 101.5t28 154.5q0 164 -80 242t-211 78q-41 0 -64.5 -3t-46.5 -9v-623z" />
<glyph unicode="&#x48f;" horiz-adv-x="1247" d="M43 -330q70 33 135 49v1160l-135 16v80q33 14 82 27.5t102.5 23.5t103.5 16.5t85 6.5h57v-230q35 90 96.5 150.5t169.5 72.5q23 4 47.5 4.5t49.5 -2.5q80 -6 144 -38.5t109.5 -95t70 -155.5t24.5 -220q0 -190 -75 -321.5t-210 -193.5l100 -157l-151 -80l-127 201 q-51 -8 -107 -2q-47 2 -76.5 10t-64.5 24v-297q33 -4 65.5 -15t69.5 -34v-80h-565v80zM473 139q33 -25 70 -36t96 -11q23 0 45 6l-111 178l103 64l106 -170q41 53 62.5 146.5t21.5 218.5q0 168 -41.5 259t-150.5 91q-72 0 -131.5 -56.5t-69.5 -177.5v-512z" />
<glyph unicode="&#x490;" horiz-adv-x="1101" d="M41 0v78q90 45 168 59v1159q-41 8 -85 22.5t-83 37.5v78h799l123 307h86q8 -49 14 -110.5t10 -123t5 -116t1 -91.5h-563v-1163q51 -8 101.5 -24.5t95.5 -34.5v-78h-672z" />
<glyph unicode="&#x491;" horiz-adv-x="903" d="M59 0v80q35 20 68 30.5t68 18.5v768q-76 12 -136 47v80h623q4 14 10 27.5t10 27.5l91 228h84q8 -45 14 -98.5t10 -107.5t7 -105.5t5 -88.5h-424v-778q117 -23 185 -49v-80h-615z" />
<glyph unicode="&#x492;" horiz-adv-x="1150" d="M59 0v78q90 45 168 59v506h-168v143h168v510q-41 8 -85 22.5t-83 37.5v78h1049q0 -49 -2 -113t-6 -129.5t-12.5 -130t-16.5 -115.5h-84l-129 354h-323v-514h276v-143h-276v-506q51 -8 101 -24.5t95 -34.5v-78h-672z" />
<glyph unicode="&#x493;" horiz-adv-x="954" d="M53 387v143h142v367q-76 12 -136 47v80h875q-2 -39 -7 -90t-12.5 -106.5t-17.5 -108.5t-20 -94h-84l-91 282h-213v-377h193v-143h-193v-258q117 -23 185 -49v-80h-615v80q35 20 68 30.5t68 18.5v258h-142z" />
<glyph unicode="&#x494;" horiz-adv-x="1335" d="M41 0v78q90 45 168 59v1159q-41 8 -85 22.5t-83 37.5v78h1049q0 -49 -2.5 -107.5t-6.5 -119t-12 -120t-16 -110.5h-84l-129 323h-324v-567q57 35 148.5 63.5t207.5 28.5q88 0 163 -24.5t129.5 -78.5t85 -142t30.5 -213q0 -145 -26.5 -254t-89 -180.5t-165 -108.5 t-251.5 -39l-13 92q82 25 130 62.5t73 91t31 124t4 160.5q-2 84 -12.5 152t-35 116t-67.5 73.5t-110 25.5q-68 0 -125.5 -19.5t-106.5 -52.5v-473q41 -10 80 -26.5t72 -32.5v-78h-627z" />
<glyph unicode="&#x495;" horiz-adv-x="1220" d="M59 0v80q35 20 68 30.5t68 18.5v768q-76 12 -136 47v80h875q-2 -78 -11.5 -171t-25.5 -177h-84l-111 231h-213v-452q49 53 129 85.5t173 32.5q143 0 229 -77.5t86 -210.5v-285q0 -127 -29.5 -211t-88 -133t-147.5 -69.5t-212 -20.5l-11 94q55 14 92.5 36.5t60 62.5 t31.5 98.5t9 144.5v231q0 86 -36 136.5t-107 50.5q-53 0 -98.5 -16.5t-80.5 -38.5v-236q47 -10 83 -21.5t71 -27.5v-80h-584z" />
<glyph unicode="&#x496;" horiz-adv-x="2129" d="M0 0v70l84 49q74 82 143.5 170t133 174t119 166t102.5 145l-367 522q-41 10 -76 26.5t-61 33.5v78h540v-78q-27 -16 -63.5 -32.5t-77.5 -27.5l295 -503h131v503q-41 10 -74.5 26.5t-58.5 33.5v78h533v-78q-20 -14 -50 -29.5t-71 -30.5v-522l139 31l295 491 q-41 10 -79 26.5t-71 33.5v78h543v-78q-31 -16 -68.5 -32.5t-78.5 -27.5l-369 -501q51 -68 109.5 -150t122 -169t132 -175t140.5 -168h168q-2 -53 -7.5 -115.5t-11.5 -126t-15 -122t-22 -103.5h-79l-111 334h-170l-88 70q-59 70 -108.5 143.5t-92.5 149t-83 154.5t-85 159 h-110v-539q35 -10 67.5 -25.5t63.5 -33.5v-78h-553v78q29 18 64.5 33.5t78.5 25.5v557l-117 -30q-86 -166 -164.5 -311.5t-187.5 -282.5l-88 -70h-346z" />
<glyph unicode="&#x497;" horiz-adv-x="1712" d="M0 0v80l86 49q51 59 99 122.5t91 123t80 111t66 87.5q-74 78 -139.5 154t-130.5 168q-53 12 -103 49v80h428v-80q-39 -29 -102 -49q27 -49 53.5 -88t53 -76t56 -75t66.5 -87h86v326q-35 8 -58.5 20.5t-45.5 28.5v80h471v-80q-20 -16 -42 -28.5t-59 -20.5v-338l95 21 q37 49 64.5 85.5t52 72.5t49 73t53.5 86q-29 10 -53.5 20.5t-49.5 28.5v80h428v-80q-35 -25 -116 -49q-66 -86 -131.5 -158.5t-130.5 -150.5q27 -37 69.5 -92.5t94 -119t105.5 -130t103 -127.5h135q-4 -98 -17 -211t-24 -209h-79l-111 303h-139l-58 47q-35 43 -73.5 101.5 t-74.5 118t-65.5 112.5t-46.5 88h-80v-338q63 -16 123 -49v-80h-504v80q29 14 56.5 26.5t58.5 22.5v350l-92 -20q-16 -29 -43 -81t-60.5 -111.5t-71.5 -119t-75 -100.5l-61 -47h-287z" />
<glyph unicode="&#x498;" horiz-adv-x="1187" d="M78 55q0 33 7 80t17.5 97.5t23.5 100.5t26 91h86l81 -291q23 -10 73 -17t93 -7q135 0 217 77.5t82 210.5q0 145 -71.5 206t-192.5 61l-158 -27q-10 37 -12 84t10 86h66q35 -2 81 1t79 7q158 66 162 254q-4 121 -64.5 188.5t-175.5 67.5q-49 0 -89 -11t-54 -28l-101 -260 h-86q-8 31 -16 71t-14.5 86t-11.5 94t-5 93q39 27 91 43.5t106.5 26.5t107.5 14t96 4q98 0 194.5 -14t171.5 -54t121 -109t46 -175q0 -104 -68.5 -199.5t-208.5 -138.5v-8q63 -10 122 -37t104 -70t71.5 -104t26.5 -141q0 -92 -30.5 -164t-87 -124t-135.5 -85t-177 -47 q-14 -96 -40 -200.5t-54 -197.5h-90q-33 96 -55.5 196.5t-39.5 195.5q-96 8 -184 27.5t-141 45.5z" />
<glyph unicode="&#x499;" horiz-adv-x="1019" d="M59 98l56 193h59q31 -29 68 -78t65 -88q20 -8 45 -13.5t60 -5.5q111 0 164 58.5t53 140.5q0 88 -39 120t-111 42l-182 -31q-10 25 -12 69t12 73h199q35 16 70.5 61t35.5 125q0 78 -44 123t-126 45q-35 0 -66.5 -5t-41.5 -9l-93 -232h-69q-29 57 -54.5 134t-27.5 143 q47 31 149.5 58.5t251.5 27.5q203 0 313.5 -60.5t110.5 -179.5q0 -53 -22.5 -96t-60.5 -74t-86 -52.5t-99 -31.5q59 -6 115.5 -21.5t99.5 -45t68.5 -74.5t25.5 -109q0 -139 -93 -219t-259 -102q-14 -92 -31.5 -179.5t-46.5 -173.5h-90q-27 92 -45.5 175t-32.5 176 q-98 10 -170 41.5t-119 74.5z" />
<glyph unicode="&#x49a;" horiz-adv-x="1484" d="M41 0v78q41 20 84 35.5t84 23.5v1159q-47 6 -91 22.5t-77 37.5v78h621v-78q-27 -16 -65 -32.5t-81 -27.5v-520l121 29l330 491q-41 8 -81 25.5t-69 34.5v78h549v-78q-35 -23 -80 -38t-82 -22l-389 -493q47 -66 109.5 -149t134 -171t146.5 -178t147 -172h172 q-2 -53 -6.5 -115.5t-11.5 -126t-16 -122t-20 -103.5h-79l-111 334h-182l-82 57q-49 61 -103.5 136t-107.5 156t-104.5 163t-96.5 160h-88v-535q45 -8 82 -24.5t64 -34.5v-78h-621z" />
<glyph unicode="&#x49b;" horiz-adv-x="1249" d="M59 0v80q55 33 136 49v766q-72 14 -136 49v80h523v-80q-20 -14 -40 -26.5t-53 -22.5v-334l95 21q59 68 118.5 145.5t108.5 161.5q-35 14 -59.5 26.5t-51.5 28.5v80h469v-80q-20 -16 -49.5 -27.5t-79.5 -27.5q-70 -84 -143.5 -161t-142.5 -142q45 -49 94 -108.5t98 -122 t99.5 -125t99.5 -113.5h117q-4 -98 -17.5 -211t-23.5 -209h-80l-111 303h-135l-66 47q-88 106 -144 213t-114 211h-82v-342q66 -18 115 -49v-80h-545z" />
<glyph unicode="&#x49c;" horiz-adv-x="1617" d="M41 0v78q41 20 84 35.5t84 23.5v1159q-47 6 -91 22.5t-77 37.5v78h616v-78q-27 -16 -64.5 -32.5t-80.5 -27.5v-522l98 10v303h131v-292l76 8l324 493q-41 8 -81 25.5t-69 34.5v78h529v-78q-35 -23 -80 -38t-82 -22l-367 -475q45 -68 106.5 -153.5t131 -178t143.5 -185.5 t146 -175l98 -59v-70h-356l-82 57q-49 61 -101.5 137t-103.5 157t-99.5 164t-89.5 159h-43v-297h-131v297h-98v-537q45 -8 82 -24.5t63 -34.5v-78h-616z" />
<glyph unicode="&#x49d;" horiz-adv-x="1421" d="M59 0v80q55 33 136 49v766q-72 14 -136 49v80h523v-80q-20 -14 -40 -26.5t-53 -22.5v-352l113 14v274h121v-258l65 9q59 68 119 145.5t109 161.5q-35 14 -59.5 26.5t-51.5 28.5v80h469v-80q-20 -16 -51 -28.5t-78 -26.5q-70 -84 -143.5 -161t-143.5 -142 q45 -49 92.5 -106.5t93.5 -118t94 -120t97 -112.5l86 -49v-80h-321l-66 47q-88 106 -144 213t-114 211h-53v-242h-121v242h-113v-342q66 -18 115 -49v-80h-545z" />
<glyph unicode="&#x49e;" horiz-adv-x="1484" d="M20 1047v129h230v120q-47 6 -91 22.5t-77 37.5v78h620v-78q-27 -16 -64.5 -32.5t-80.5 -27.5v-120h186v-129h-186v-275l135 29l320 495q-41 8 -81 25.5t-69 34.5v78h529v-78q-35 -23 -80 -38t-82 -22l-361 -475q45 -68 104.5 -153.5t128 -178t141.5 -185.5t144 -175 l99 -59v-70h-357l-81 57q-49 61 -100.5 136t-101.5 157t-97.5 164t-85.5 158h-105v-535q45 -8 82 -24.5t63 -34.5v-78h-620v78q41 20 84 35.5t84 23.5v910h-230z" />
<glyph unicode="&#x49f;" horiz-adv-x="1193" d="M14 1145v125h160v100l-156 16v80q29 12 78 24.5t104.5 22t108.5 16.5t90 11h70v-270h276v-125h-276v-565h53q68 72 126.5 157.5t103.5 157.5q-27 8 -48.5 20.5t-44.5 28.5v80h480v-80q-39 -16 -73 -28.5t-75 -20.5q-31 -41 -66.5 -81t-71.5 -77t-68.5 -70.5t-59.5 -60.5 q31 -41 72 -98t88 -121.5t99 -131.5t106 -126l104 -49v-80h-346l-55 49q-47 63 -83 118.5t-65 107t-55.5 99.5t-52.5 95l-68 20v-360q35 -6 63.5 -18.5t61.5 -30.5v-80h-555v80q68 33 135 49v1016h-160z" />
<glyph unicode="&#x4a0;" horiz-adv-x="1708" d="M20 1434h906v-78q-27 -16 -65 -32.5t-81 -27.5v-520l121 29l330 491q-41 8 -81 25.5t-69 34.5v78h529v-78q-35 -23 -80 -38t-82 -22l-371 -475q45 -68 106.5 -153.5t132 -178t146.5 -185.5t148 -175l98 -59v-70h-354l-84 57q-49 61 -102.5 136t-106.5 157t-102.5 164 t-88.5 158h-90v-535q45 -8 82 -24.5t64 -34.5v-78h-621v78q41 20 84 35.5t84 23.5v1163h-213l-108 -309h-86q-12 51 -20.5 111.5t-13.5 120t-8.5 115t-3.5 96.5z" />
<glyph unicode="&#x4a1;" horiz-adv-x="1382" d="M16 1024h732v-80q-20 -14 -40 -26.5t-53 -22.5v-334l95 21q59 61 119.5 142t107.5 165q-35 14 -59.5 26.5t-51.5 28.5v80h469v-80q-20 -16 -50 -27.5t-79 -27.5q-70 -84 -143.5 -161t-142.5 -142q45 -49 92 -106.5t93 -118t94 -120t97 -112.5l86 -49v-80h-321l-66 47 q-88 106 -144 213t-114 211h-82v-342q63 -18 115 -49v-80h-545v80q55 33 135 49v778h-122l-101 -262h-69q-8 39 -17.5 88t-16.5 101.5t-12.5 101.5t-5.5 88z" />
<glyph unicode="&#x4a2;" horiz-adv-x="1611" d="M41 0v78q35 18 81 34.5t87 24.5v1159q-49 8 -94 24.5t-74 35.5v78h621v-78q-31 -20 -69 -36.5t-77 -23.5v-495h543v495q-45 8 -81 24.5t-65 35.5v78h621v-78q-35 -23 -80 -37t-88 -23v-1163h225q-2 -53 -7 -115.5t-11 -126t-15.5 -122t-21.5 -103.5h-80l-110 334h-433v78 q31 18 68 34.5t78 24.5v531h-543v-531q41 -8 76 -22.5t70 -36.5v-78h-621z" />
<glyph unicode="&#x4a3;" horiz-adv-x="1384" d="M59 0v80q29 16 64 27.5t72 21.5v766q-37 10 -72 21.5t-64 27.5v80h543v-80q-47 -29 -113 -49v-320h381v320q-59 12 -112 49v80h542v-80q-55 -35 -135 -49v-778h191q-4 -98 -17.5 -211t-23.5 -209h-80l-111 303h-366v80q53 39 112 49v330h-381v-330q35 -8 63 -20.5 t50 -28.5v-80h-543z" />
<glyph unicode="&#x4a4;" horiz-adv-x="1961" d="M41 0v78q35 18 81 34.5t87 24.5v1159q-49 8 -94 24.5t-74 35.5v78h621v-78q-31 -20 -69 -36.5t-77 -23.5v-495h543v495q-39 4 -82 21.5t-64 38.5v78h1026q0 -49 -2 -113t-6 -129.5t-12 -130t-16 -115.5h-84l-129 354h-324v-1163q51 -8 101.5 -24.5t95.5 -34.5v-78h-650 v78q39 23 72 34t74 25v531h-543v-531q41 -8 76 -22.5t70 -36.5v-78h-621z" />
<glyph unicode="&#x4a5;" horiz-adv-x="1630" d="M59 0v80q29 16 64 27.5t72 21.5v766q-37 10 -72 21.5t-64 27.5v80h543v-80q-47 -29 -113 -49v-320h381v320q-59 12 -112 49v80h852q-2 -39 -7.5 -90t-12.5 -106.5t-17 -108.5t-21 -94h-84l-90 282h-213v-778q117 -23 185 -49v-80h-592v80q53 39 112 49v330h-381v-330 q35 -8 63 -20.5t50 -28.5v-80h-543z" />
<glyph unicode="&#x4a6;" horiz-adv-x="2162" d="M41 0v78q31 16 72 33.5t96 25.5v1159q-41 8 -85 22.5t-83 37.5v78h1470v-78q-39 -25 -82 -38t-86 -22v-563q57 35 148.5 63.5t208.5 28.5q88 0 162.5 -24.5t129 -78.5t85 -142t30.5 -213q0 -145 -26.5 -254t-89 -180.5t-165 -108.5t-251.5 -39l-12 92q82 25 130 62.5 t72.5 91t30.5 124t4 160.5q-2 84 -12 152t-34.5 116t-68 73.5t-110.5 25.5q-68 0 -125 -19.5t-107 -52.5v-473q39 -10 72 -25.5t66 -33.5v-78h-584v78q20 16 53 31.5t86 27.5v1163h-520v-1163q41 -10 74 -24.5t65 -34.5v-78h-614z" />
<glyph unicode="&#x4a7;" horiz-adv-x="1888" d="M59 0v80q39 23 72 34t64 15v766q-43 10 -78 22.5t-58 26.5v80h1231v-80q-27 -16 -59.5 -30.5t-75.5 -18.5v-389q41 84 125 139t188 55q88 0 154 -22.5t111 -75.5t67.5 -139t22.5 -213v-178q-2 -256 -118 -381t-362 -125l-10 94q111 29 153 135.5t42 276.5v143 q0 176 -40 249t-134 73q-74 0 -124 -39t-75 -107v-262q70 -12 135 -49v-80h-542v80q20 14 43.5 26.5t68.5 22.5v778h-371v-778q41 -12 66 -24.5t47 -24.5v-80h-543z" />
<glyph unicode="&#x4a8;" horiz-adv-x="1861" d="M80 725q0 154 47 287t132 232t204 156.5t264 57.5q174 0 227 -102l-18 -47q-27 10 -55.5 13t-44.5 3q-100 0 -178 -46t-131.5 -129t-81 -195.5t-27.5 -247.5q0 -131 38 -241t103.5 -189.5t155.5 -123.5t192 -44q37 0 70 5t61 19q-57 31 -117.5 84t-110.5 130t-82 174 t-32 216q0 137 44 249t120 191.5t173 124t206 44.5q106 0 204.5 -37t173.5 -113t119 -188.5t44 -262.5q0 -127 -45 -230t-110.5 -181t-139.5 -128t-129 -69q23 -14 57.5 -21t67.5 -7q61 0 117.5 19t103.5 62l37 -45q-20 -72 -98 -121t-201 -49q-94 0 -173 28t-116 60 q-45 -37 -133 -62.5t-180 -25.5q-172 0 -312.5 55.5t-239 156t-152.5 237.5t-54 301zM1004 721q0 -92 18 -171t48 -144.5t68 -115.5t76 -83q45 31 86 84t73 122.5t50.5 154.5t18.5 182q0 90 -10.5 174t-34 148.5t-62.5 102t-96 37.5q-63 0 -108.5 -36.5t-73 -103t-40.5 -157 t-13 -194.5z" />
<glyph unicode="&#x4a9;" horiz-adv-x="1486" d="M63 512q0 111 39 208t109 171t168 116t215 42q98 0 144 -32t48 -83l-10 -14q-47 12 -90 12q-68 -2 -124 -34t-96 -87t-62.5 -131t-22.5 -168t29.5 -170t82 -133t120 -86t145.5 -31q14 0 33.5 1l39 2t36 3t24.5 6q-55 14 -109.5 51.5t-97.5 89.5t-68.5 117.5t-25.5 135.5 q0 111 36 191.5t95 132.5t137 78t164 26q78 0 151.5 -26t130 -77t91.5 -130t35 -183q0 -72 -28 -139.5t-73 -122.5t-101.5 -93t-113.5 -53q29 -10 78 -13t84 -1t71.5 14.5t63.5 34.5l19 -31q-6 -37 -27 -61.5t-47.5 -39.5t-56 -22.5t-54.5 -7.5q-72 0 -141.5 16.5 t-104.5 43.5q-27 -12 -61.5 -23.5t-74.5 -18.5t-81 -12.5t-77 -5.5q-150 0 -269 38t-201.5 109t-127 170t-44.5 220zM838 496q0 -106 40 -202.5t111 -150.5q57 41 99 136.5t42 246.5q0 55 -7 106.5t-23.5 90.5t-42 62.5t-64.5 23.5q-68 0 -111.5 -84t-43.5 -229z" />
<glyph unicode="&#x4aa;" horiz-adv-x="1335" d="M80 719q0 195 58.5 335t156.5 230t228 132t274 42q135 0 244.5 -19.5t179.5 -52.5q0 -33 -3.5 -84t-10.5 -107t-16 -110.5t-17 -91.5h-87l-112 310q-18 10 -59.5 16t-84.5 6q-84 0 -157.5 -34t-131 -107.5t-90 -189t-32.5 -277.5q0 -293 116.5 -450.5t317.5 -157.5 q57 0 97 9t55 25l100 287h84q8 -33 15 -79t12.5 -98t7.5 -103.5t2 -92.5q-55 -37 -136 -54t-165 -23q-12 -92 -38 -195.5t-54 -194.5h-91q-35 98 -57 201t-39 199q-131 18 -236.5 71.5t-179 143.5t-112.5 217t-39 297z" />
<glyph unicode="&#x4ab;" horiz-adv-x="991" d="M63 512q0 260 142.5 398.5t404.5 138.5q100 0 184.5 -21.5t139.5 -50.5q-4 -35 -11.5 -77t-16.5 -84t-21.5 -82t-24.5 -66h-100l-86 243q-14 10 -30.5 15.5t-49.5 5.5q-53 0 -92 -19.5t-66.5 -66.5t-41 -125t-13.5 -193q0 -84 18.5 -154.5t56.5 -122.5t95 -82t135 -30 q72 0 125 20.5t90 49.5l33 -43q-25 -68 -96.5 -117t-173.5 -65q-23 -184 -76 -353h-90q-27 94 -45.5 181.5t-34.5 181.5q-182 41 -268.5 178t-86.5 340z" />
<glyph unicode="&#x4ac;" horiz-adv-x="1366" d="M31 1434h1304q0 -49 -4 -115t-10 -133.5t-14.5 -130t-16.5 -105.5h-86l-131 350h-237v-1163q16 -2 33.5 -2h33.5h168q-2 -53 -6 -116.5t-11 -126t-16.5 -122t-19.5 -104.5h-80l-111 334h-497v78q41 16 93 33.5t105 25.5v1163h-237l-131 -350h-84q-8 41 -16.5 104.5 t-14.5 131t-10 134t-4 114.5z" />
<glyph unicode="&#x4ad;" horiz-adv-x="1110" d="M31 1024h1048q0 -37 -4 -88t-11 -105.5t-16.5 -108.5t-19.5 -97h-88l-90 282h-148v-790h209q-4 -98 -17 -211t-24 -209h-79l-111 303h-418v80q33 16 72 28.5t74 20.5v778h-150l-90 -282h-86q-10 43 -19.5 96t-15.5 107.5t-11 105.5t-5 90z" />
<glyph unicode="&#x4ae;" horiz-adv-x="1429" d="M0 1356v78h672v-78q-29 -16 -66 -32.5t-86 -27.5l293 -548l279 548q-47 10 -90.5 26.5t-73.5 33.5v78h502v-78q-31 -18 -69 -35.5t-77 -24.5l-397 -696v-463q41 -4 81 -21.5t74 -37.5v-78h-630v78q35 18 77.5 34.5t90.5 24.5v461l-414 698q-47 8 -89 24.5t-77 35.5z" />
<glyph unicode="&#x4af;" horiz-adv-x="1103" d="M-20 944v80h538v-78q-27 -14 -54.5 -27.5t-62.5 -23.5l185 -535l45 -178h4l39 180l168 533q-33 8 -60.5 20.5t-52.5 28.5v80h395v-80q-20 -14 -50 -26.5t-66 -22.5l-295 -850v-326q41 -10 73.5 -21t61.5 -28v-80h-565v80q31 16 63.5 27.5t71.5 21.5v328l-330 848 q-59 20 -108 49z" />
<glyph unicode="&#x4b0;" horiz-adv-x="1429" d="M0 1356v78h672v-78q-29 -16 -66 -32.5t-86 -27.5l295 -561l287 561q-47 10 -90 26.5t-74 33.5v78h492v-78q-31 -18 -74 -35.5t-82 -24.5l-385 -694h287v-137h-289v-328q41 -4 81 -21.5t74 -37.5v-78h-630v78q35 18 77.5 34.5t90.5 24.5v328h-289v137h287l-412 694 q-47 8 -89 24.5t-77 35.5z" />
<glyph unicode="&#x4b1;" horiz-adv-x="1103" d="M-20 944v80h538v-78q-27 -14 -54.5 -27.5t-62.5 -23.5l160 -483l68 -230h4l61 232l148 481q-33 8 -60.5 20.5t-52.5 28.5v80h395v-80q-20 -14 -50 -26.5t-66 -22.5l-273 -770h197v-125l-219 -2v-279q41 -10 73.5 -21t61.5 -28v-80h-565v80q31 16 63.5 27.5t71.5 21.5v281 h-217v125h188l-301 770q-59 20 -108 49z" />
<glyph unicode="&#x4b2;" horiz-adv-x="1492" d="M18 0v78q68 41 140 59l411 584l-385 575q-39 10 -73.5 26.5t-67.5 33.5v78h649v-78q-25 -14 -61.5 -29.5t-85.5 -30.5l250 -411l245 411q-41 8 -81.5 25.5t-73.5 34.5v78h508v-78q-31 -16 -65 -32.5t-75 -27.5l-364 -534l430 -629h217q-2 -53 -7 -115.5t-11.5 -126 t-15.5 -122t-21 -103.5h-80l-111 334h-483v78q33 18 68.5 33.5t76.5 25.5l-290 451l-271 -453q43 -6 80 -20.5t72 -36.5v-78h-525z" />
<glyph unicode="&#x4b3;" horiz-adv-x="1146" d="M20 0v80q29 16 52.5 28.5t54.5 20.5l305 379l-307 387q-29 10 -51.5 21.5t-40.5 27.5v80h514v-78q-25 -16 -44.5 -29.5t-47.5 -21.5l178 -254l170 254q-35 10 -55.5 22.5t-36.5 26.5v80h379v-80q-20 -14 -45 -26.5t-62 -22.5l-281 -346l334 -432h156q-4 -98 -17.5 -211 t-23.5 -209h-80l-110 303h-357v78q23 16 46.5 29.5t47.5 21.5l-192 281l-191 -281q29 -10 50.5 -22.5t42.5 -26.5v-80h-388z" />
<glyph unicode="&#x4b4;" horiz-adv-x="1980" d="M47 1434h1186q0 -49 -4 -115t-10.5 -133.5t-14.5 -130t-16 -105.5h-86l-119 361h-135v-1178h569v1163q-68 18 -110 60v78h579v-78q-39 -25 -82 -38t-86 -22v-1163h242q-2 -53 -7 -115.5t-11.5 -126t-15.5 -122t-21 -103.5h-80l-111 334h-1366v78q41 16 93.5 33.5 t105.5 25.5v1174h-242l-127 -361h-86q-8 41 -15 104.5t-13.5 131t-11.5 134t-5 114.5z" />
<glyph unicode="&#x4b5;" horiz-adv-x="1753" d="M31 1024h1028q0 -37 -4 -88t-11.5 -105.5t-16.5 -108.5t-19 -97h-88l-91 282h-137v-790h535v778q-29 6 -53.5 18.5t-49.5 30.5v80h533v-80q-27 -14 -59.5 -26.5t-75.5 -22.5v-778h200q-4 -98 -17 -211t-24 -209h-79l-111 303h-1229v80q55 33 135 49v778h-139l-90 -282 h-86q-10 43 -19.5 96t-15.5 107.5t-11 105.5t-5 90z" />
<glyph unicode="&#x4b6;" horiz-adv-x="1484" d="M10 1356v78h580v-78q-23 -16 -54.5 -32.5t-70.5 -27.5v-311q0 -72 8 -129t32.5 -98t66.5 -63.5t110 -22.5t128 19.5t112 51.5v553q-35 10 -68 25.5t-59 34.5v78h569v-78q-27 -18 -61.5 -33.5t-73.5 -26.5v-1163h235q-2 -53 -7 -115.5t-11 -126t-15.5 -122t-21.5 -103.5 h-80l-110 334h-486v78q47 23 94 39t95 20v484q-57 -35 -153.5 -64t-211.5 -29q-82 0 -154.5 17.5t-127 60.5t-86 118t-31.5 189v383q-39 6 -78 22.5t-70 37.5z" />
<glyph unicode="&#x4b7;" horiz-adv-x="1236" d="M6 944v80h537v-80q-41 -33 -107 -49v-227q0 -86 30 -136.5t103 -50.5q53 0 98.5 16.5t80.5 39.5v358q-33 6 -57.5 18.5t-51.5 30.5v80h539v-80q-55 -35 -136 -49v-778h195q-4 -98 -17.5 -211t-23.5 -209h-80l-110 303h-422v80q84 35 164 49v320q-49 -53 -129 -87 t-173 -34q-143 0 -224 77.5t-81 210.5v279q-78 14 -135 49z" />
<glyph unicode="&#x4b8;" horiz-adv-x="1492" d="M10 1356v78h590v-78q-23 -16 -59.5 -32.5t-75.5 -27.5v-311q0 -70 10 -127t36 -97t68 -63.5t105 -25.5v301h131v-291q57 10 109.5 25.5t85.5 35.5v553q-33 10 -66 25.5t-61 34.5v78h569v-78q-27 -18 -61.5 -33.5t-73.5 -26.5v-1159q41 -8 75.5 -25.5t59.5 -33.5v-78h-631 v78q47 23 94.5 39t94.5 20v484q-31 -16 -82 -34t-113 -32v-283h-131v263q-59 -6 -121 -7q-82 0 -155.5 17.5t-129 60.5t-88 118t-32.5 189v383q-39 6 -78 22.5t-70 37.5z" />
<glyph unicode="&#x4b9;" horiz-adv-x="1390" d="M6 944v80h537v-80q-41 -33 -107 -49v-227q0 -82 40 -131.5t142 -55.5v320h121v-312q47 8 93.5 19.5t68.5 28.5v358q-33 6 -57.5 18.5t-50.5 30.5v80h538v-80q-55 -35 -135 -49v-766q41 -10 74 -21.5t61 -27.5v-80h-594v80q84 35 164 49v320q-27 -29 -68.5 -50.5 t-93.5 -38.5v-161h-121v135q-53 -6 -100 -6q-109 0 -181.5 20.5t-115.5 58t-61.5 91t-18.5 118.5v279q-78 14 -135 49z" />
<glyph unicode="&#x4ba;" horiz-adv-x="1404" d="M41 0v78q27 18 61.5 33.5t73.5 26.5v1159q-41 8 -75.5 25.5t-59.5 33.5v78h631v-78q-47 -23 -94 -39t-95 -20v-484q57 35 153.5 64t211.5 29q82 0 154.5 -17.5t127 -60.5t86 -118t31.5 -189v-383q39 -6 78 -22.5t70 -37.5v-78h-580v78q23 16 54.5 32.5t70.5 27.5v311 q0 72 -8 129t-32.5 98t-66.5 63.5t-110 22.5t-128 -19.5t-112 -51.5v-553q35 -10 68 -25.5t59 -34.5v-78h-569z" />
<glyph unicode="&#x4bb;" horiz-adv-x="1310" d="M18 1386v80q31 12 79 24.5t101.5 22t106.5 16.5t94 11h70v-723h2q20 47 55 89t79 74t95.5 50.5t108.5 18.5q82 0 146.5 -19.5t107.5 -69t65.5 -132.5t22.5 -210v-489q35 -8 69.5 -18.5t65.5 -30.5v-80h-543v80q25 14 51.5 26.5t61.5 22.5v414q0 176 -34 259t-132 83 q-82 0 -139 -56.5t-82 -130.5v-569q33 -8 58.5 -18.5t54.5 -30.5v-80h-543v80q63 33 135 49v1241z" />
<glyph unicode="&#x4bc;" horiz-adv-x="1738" d="M-12 991q0 25 5 57.5t16 64.5t28.5 61.5t40.5 52.5q47 -4 110.5 -32t110.5 -67l16 -59l-172 -145q23 -53 78 -82t127 -31q14 162 74.5 284t153 202.5t211 120.5t249.5 40q133 0 246 -40t193.5 -116.5t127 -191.5t46.5 -264q0 -104 -13 -168h-954q4 -209 90 -331t214 -166 t274.5 -18.5t271.5 111.5l31 -67q-41 -59 -99.5 -102.5t-124 -72t-133 -43t-127.5 -14.5q-152 0 -282.5 42t-229 128t-157 218.5t-64.5 314.5q-88 2 -154.5 27.5t-111.5 67.5t-68.5 98.5t-23.5 119.5zM682 811h629q2 23 3 43t1 41q0 207 -78 318.5t-213 111.5 q-162 0 -249 -126t-93 -388z" />
<glyph unicode="&#x4bd;" horiz-adv-x="1353" d="M10 764q0 59 23.5 119.5t66.5 103.5q23 2 51.5 -9t55 -29.5t48 -42t32.5 -46.5q2 -10 3 -18t3 -17l-150 -127q16 -51 67.5 -72.5t111.5 -25.5q23 217 156.5 333t357.5 116q104 0 195 -29t151.5 -94.5t84 -172t-2.5 -259.5h-629q2 -162 84 -258.5t237 -96.5 q66 0 139.5 20.5t114.5 53.5l39 -41q-16 -35 -52 -70.5t-88 -63.5t-120.5 -45.5t-148.5 -17.5q-125 0 -221.5 37t-162 104.5t-101.5 163t-38 214.5q-84 2 -142 24.5t-95 59t-53.5 85t-16.5 101.5zM641 600h330q14 160 -19 246t-125 86q-41 0 -72.5 -14.5t-55 -52.5 t-38 -102.5t-20.5 -162.5z" />
<glyph unicode="&#x4be;" horiz-adv-x="1738" d="M-12 991q0 25 5 57.5t16 64.5t28.5 61.5t40.5 52.5q47 -4 110.5 -32t110.5 -67l16 -59l-172 -145q23 -53 78 -82t127 -31q14 162 74.5 284t153 202.5t211 120.5t249.5 40q133 0 246 -40t193.5 -116.5t127 -191.5t46.5 -264q0 -104 -13 -168h-954q4 -209 90 -331t214 -166 t274.5 -18.5t271.5 111.5l31 -67q-70 -98 -180.5 -153.5t-221.5 -71.5q-12 -92 -37.5 -196.5t-54.5 -195.5h-90q-35 98 -57.5 203t-38.5 201q-16 2 -31.5 7t-32.5 9q-102 29 -187 84.5t-146.5 138t-98.5 193.5t-41 252q-88 2 -154.5 27.5t-111.5 67.5t-68.5 98.5 t-23.5 119.5zM682 811h629q2 23 3 43t1 41q0 207 -78 318.5t-213 111.5q-162 0 -249 -126t-93 -388z" />
<glyph unicode="&#x4bf;" horiz-adv-x="1353" d="M10 764q0 59 23.5 119.5t66.5 103.5q23 2 51.5 -9t55 -29.5t48 -42t32.5 -46.5q2 -10 3 -18t3 -17l-150 -127q16 -51 67.5 -72.5t111.5 -25.5q23 217 156.5 333t357.5 116q104 0 195 -29t151.5 -94.5t84 -172t-2.5 -259.5h-629q2 -162 84 -258.5t237 -96.5 q66 0 139.5 20.5t114.5 53.5l39 -41q-29 -61 -109.5 -115.5t-199.5 -72.5q-23 -184 -76 -353h-90q-27 94 -45 180.5t-35 178.5q-180 39 -276 171t-101 333q-84 2 -142 24.5t-95 59t-53.5 85t-16.5 101.5zM641 600h330q14 160 -19 246t-125 86q-41 0 -72.5 -14.5t-55 -52.5 t-38 -102.5t-20.5 -162.5z" />
<glyph unicode="&#x4c0;" horiz-adv-x="761" d="M61 0v78q82 45 166 59v1159q-41 6 -86 22.5t-80 37.5v78h639v-78q-37 -23 -81 -38t-84 -22v-1159q41 -8 85 -22.5t80 -36.5v-78h-639z" />
<glyph unicode="&#x4c3;" horiz-adv-x="1443" d="M41 0v78q41 20 84 35.5t84 23.5v1159q-47 6 -91 22.5t-77 37.5v78h621v-78q-27 -16 -65 -32.5t-81 -27.5v-520l121 29l319 491q-41 8 -75.5 25.5t-63.5 34.5v78h529v-78q-35 -23 -80 -38t-82 -22l-363 -485q70 -37 161 -112.5t173 -177t138.5 -220.5t56.5 -244 q0 -121 -40 -211t-114 -151.5t-177.5 -93t-232.5 -33.5l-12 92q119 27 188.5 109.5t69.5 244.5q0 98 -44 201.5t-107.5 195t-134 161t-125.5 100.5h-105v-535q45 -8 82 -24.5t64 -34.5v-78h-621z" />
<glyph unicode="&#x4c4;" horiz-adv-x="1216" d="M59 0v80q55 33 136 49v766q-72 14 -136 49v80h523v-80q-20 -14 -40 -26.5t-53 -22.5v-334l95 21q59 68 118.5 145.5t108.5 161.5q-35 14 -59.5 26.5t-51.5 28.5v80h469v-80q-20 -16 -49.5 -27.5t-79.5 -27.5q-70 -84 -143.5 -161t-142.5 -142q61 -31 132.5 -90.5 t135 -139.5t105.5 -177t42 -204q0 -215 -115.5 -312t-361.5 -97l-10 94q102 27 142 100.5t40 196.5q0 80 -28.5 156.5t-71.5 144.5t-94.5 123t-98.5 90h-82v-342q66 -18 115 -49v-80h-545z" />
<glyph unicode="&#x4c5;" horiz-adv-x="1486" d="M-12 260l55 78l244 -59q27 57 52.5 138t46 199.5t32.5 280.5t12 379q-63 10 -119.5 32.5t-97.5 47.5v78h1182v-78q-31 -18 -75 -34.5t-93 -25.5v-1161h215l20 -29q-8 -39 -31.5 -93t-57.5 -112.5t-75 -113.5t-81 -94h-111l70 307h-412v78q35 18 75 33.5t81 25.5v1163 h-334q-6 -311 -28.5 -519t-55.5 -343t-73 -214t-83 -136q-39 -53 -98.5 -83t-114.5 -30q-27 10 -51.5 42t-45 73t-33.5 86t-15 84z" />
<glyph unicode="&#x4c6;" horiz-adv-x="1218" d="M-23 213l48 70l192 -52q27 47 45.5 117t30.5 153t19 178t7 195q-41 12 -78.5 31t-66.5 39v80h948v-80q-66 -37 -135 -49v-778h215l12 -21q-10 -49 -39.5 -108.5t-68.5 -114.5t-79 -102t-69 -74h-100l64 303h-342v80q25 16 50 28.5t62 20.5v778h-225q-2 -109 -12.5 -226.5 t-32 -230t-55 -212t-84.5 -168.5q-41 -57 -90.5 -82t-88.5 -17q-27 14 -49 46t-38.5 67t-26.5 69.5t-13 59.5z" />
<glyph unicode="&#x4c7;" horiz-adv-x="1574" d="M41 0v78q35 18 81 34.5t87 24.5v1159q-49 8 -94 24.5t-74 35.5v78h621v-78q-31 -20 -69 -36.5t-77 -23.5v-495h543v495q-45 8 -81 24.5t-65 35.5v78h621v-78q-35 -23 -80 -37t-88 -23v-1296q0 -139 -33 -224t-95 -131t-157.5 -61.5t-222.5 -15.5l-12 92q55 12 96 32.5 t66.5 58.5t38 97.5t12.5 151.5v668h-543v-531q41 -8 76 -22.5t70 -36.5v-78h-621z" />
<glyph unicode="&#x4c8;" horiz-adv-x="1359" d="M59 0v80q29 16 64 27.5t72 21.5v766q-37 10 -72 21.5t-64 27.5v80h543v-80q-47 -29 -113 -49v-320h381v320q-59 12 -112 49v80h542v-80q-55 -35 -135 -49v-895q0 -127 -29.5 -211t-88 -133t-147.5 -69.5t-212 -20.5l-10 94q55 14 92 36.5t59.5 62.5t31.5 98.5t9 142.5 v459h-381v-330q35 -8 63 -20.5t50 -28.5v-80h-543z" />
</font>
</defs>
</svg>
